<svg width="284" height="323" viewBox="0 0 284 323" fill="none" xmlns="http://www.w3.org/2000/svg">
<g opacity="0.5">
<path d="M185.091 128.258C185.091 128.258 183.639 128.258 183.639 126.806C183.639 125.355 185.091 120.999 192.351 120.999C199.61 120.999 201.062 125.355 201.062 126.806C201.062 128.258 199.61 128.258 199.61 128.258H185.091ZM192.351 119.547C193.506 119.547 194.614 119.088 195.431 118.271C196.247 117.454 196.706 116.346 196.706 115.191C196.706 114.036 196.247 112.928 195.431 112.111C194.614 111.294 193.506 110.835 192.351 110.835C191.195 110.835 190.088 111.294 189.271 112.111C188.454 112.928 187.995 114.036 187.995 115.191C187.995 116.346 188.454 117.454 189.271 118.271C190.088 119.088 191.195 119.547 192.351 119.547Z" fill="black"/>
<path d="M114.528 149.889V158.168C114.528 158.938 114.222 159.676 113.677 160.221C113.133 160.765 112.394 161.071 111.624 161.071H98.8472C98.077 161.071 97.3384 160.765 96.7939 160.221C96.2493 159.676 95.9434 158.938 95.9434 158.168V149.889L104.941 155.184C105.03 155.236 105.132 155.264 105.236 155.264C105.339 155.264 105.441 155.236 105.531 155.184L114.528 149.889ZM111.624 145.971C112.339 145.971 113.028 146.235 113.561 146.711C114.093 147.187 114.431 147.843 114.51 148.554L105.236 154.009L95.9608 148.554C96.04 147.843 96.3781 147.187 96.9107 146.711C97.4432 146.235 98.1327 145.971 98.8472 145.971H111.624Z" fill="black"/>
<path d="M47.5607 168.12H219.663C313.071 168.12 297.447 27.5524 203.759 58.7218C203.759 -19.3344 63.1921 -19.3344 63.1921 74.3531C-14.9502 58.7218 -14.9502 168.112 47.5607 168.112V168.12Z" stroke="black" stroke-width="3" stroke-linecap="round" stroke-linejoin="round"/>
<circle cx="165.539" cy="55.7754" r="15.7989" fill="#82B3FC"/>
<g clip-path="url(#clip0_602_1351)">
<path d="M171.087 58.9025C170.224 58.9025 169.43 59.2041 168.803 59.7085L164.888 57.2378C165.004 56.7083 165.004 56.1596 164.888 55.6301L168.803 53.1594C169.43 53.6638 170.224 53.9654 171.087 53.9654C173.113 53.9654 174.755 52.3076 174.755 50.2625C174.755 48.2175 173.113 46.5597 171.087 46.5597C169.062 46.5597 167.42 48.2175 167.42 50.2625C167.42 50.5386 167.45 50.8076 167.507 51.0664L163.591 53.5371C162.965 53.0327 162.171 52.7311 161.307 52.7311C159.281 52.7311 157.639 54.389 157.639 56.434C157.639 58.479 159.281 60.1368 161.307 60.1368C162.171 60.1368 162.965 59.8352 163.591 59.3309L167.507 61.8015C167.449 62.0655 167.42 62.335 167.42 62.6054C167.42 64.6504 169.062 66.3083 171.087 66.3083C173.113 66.3083 174.755 64.6504 174.755 62.6054C174.755 60.5604 173.113 58.9025 171.087 58.9025Z" fill="white"/>
</g>
<g clip-path="url(#clip1_602_1351)">
<path d="M186.016 32.5279C188.299 36.6272 193.344 33.8169 191.061 29.7176C190.192 28.1584 188.881 26.8918 187.293 26.0779C185.704 25.2641 183.91 24.9394 182.138 25.1452C180.365 25.3509 178.693 26.0777 177.333 27.2336C175.973 28.3896 174.987 29.9228 174.498 31.6394C174.01 33.356 174.042 35.1788 174.589 36.8775C175.137 38.5761 176.176 40.0742 177.575 41.1823C178.974 42.2904 180.67 42.9588 182.449 43.1029C184.228 43.247 186.01 42.8604 187.569 41.9919C190.407 40.4111 190.965 38.4472 190.965 38.4472" stroke="#484747" stroke-width="1.5" stroke-linecap="round" stroke-linejoin="round"/>
<path d="M184.758 36.9467C186.326 36.0736 186.889 34.0953 186.015 32.5279C185.142 30.9606 183.164 30.3977 181.597 31.2708C180.029 32.1438 179.467 34.1222 180.34 35.6895C181.213 37.2569 183.191 37.8197 184.758 36.9467Z" stroke="#484747" stroke-width="1.5" stroke-linecap="round" stroke-linejoin="round"/>
</g>
<path d="M187.271 88.2957V81.641H180.63L175.911 76.9642L171.263 81.641H164.608V88.2957L159.931 92.9442L164.608 97.6633V104.304H171.263L175.911 108.981L180.63 104.304H187.271V97.6633L191.948 92.9442L187.271 88.2957ZM171.432 85.9503C172.817 85.9503 173.933 87.0665 173.933 88.4653C173.933 89.1286 173.67 89.7647 173.201 90.2337C172.732 90.7027 172.095 90.9661 171.432 90.9661C170.033 90.9661 168.917 89.8499 168.917 88.4653C168.917 87.0665 170.033 85.9503 171.432 85.9503ZM180.461 100.009C179.076 100.009 177.96 98.8784 177.96 97.4938C177.96 96.8305 178.223 96.1944 178.692 95.7254C179.161 95.2564 179.797 94.9929 180.461 94.9929C181.845 94.9929 182.976 96.1091 182.976 97.4938C182.976 98.1608 182.711 98.8005 182.239 99.2721C181.767 99.7438 181.128 100.009 180.461 100.009ZM170.966 100.051L168.847 97.9318L180.899 85.8797L183.018 87.999L170.966 100.051Z" fill="#294988"/>
<path d="M188.659 158.832L186.733 158.832L186.733 155.92L190.586 155.92L190.586 141.363L186.733 141.363L186.733 138.451L190.586 138.451L190.586 135.54L155.906 135.54L155.906 138.451L159.759 138.451L159.759 141.363L155.906 141.363L155.906 155.92L159.759 155.92L159.759 158.832L155.906 158.832L155.906 161.743L190.586 161.743L190.586 158.832L188.659 158.832ZM182.879 138.451L182.879 141.363L179.026 141.363L179.026 138.451L182.879 138.451ZM175.172 138.451L175.172 141.363L171.319 141.363L171.319 138.451L175.172 138.451ZM163.612 138.451L167.466 138.451L167.466 141.363L163.612 141.363L163.612 138.451ZM163.612 155.92L167.466 155.92L167.466 158.832L163.612 158.832L163.612 155.92ZM171.319 158.832L171.319 155.92L175.172 155.92L175.172 158.832L171.319 158.832ZM179.026 155.92L182.879 155.92L182.879 158.832L179.026 158.832L179.026 155.92Z" fill="black"/>
<g clip-path="url(#clip2_602_1351)">
<path d="M265 135.669V132.553C265.031 130.975 264.436 129.449 263.345 128.309C262.253 127.168 260.755 126.507 259.177 126.468C257.599 126.507 256.1 127.168 255.009 128.309C253.918 129.449 253.323 130.975 253.354 132.553V135.669H251.17V148.042C251.17 148.428 251.324 148.799 251.597 149.072C251.87 149.345 252.24 149.498 252.626 149.498H265.728C266.114 149.498 266.484 149.345 266.757 149.072C267.03 148.799 267.183 148.428 267.183 148.042V135.669H265ZM259.905 143.115V145.131H258.449V143.049C258.095 142.867 257.813 142.569 257.652 142.204C257.49 141.84 257.458 141.432 257.56 141.047C257.663 140.661 257.894 140.323 258.215 140.087C258.536 139.851 258.929 139.733 259.327 139.751C259.725 139.769 260.105 139.922 260.404 140.186C260.703 140.449 260.902 140.807 260.97 141.2C261.037 141.593 260.969 141.997 260.775 142.345C260.581 142.693 260.274 142.965 259.905 143.115ZM263.544 135.669H254.81V132.553C254.778 131.361 255.22 130.205 256.038 129.338C256.857 128.47 257.985 127.962 259.177 127.924C260.369 127.962 261.497 128.47 262.315 129.338C263.134 130.205 263.575 131.361 263.544 132.553V135.669Z" fill="black"/>
</g>
<g clip-path="url(#clip3_602_1351)">
<path d="M21.808 156.541C22.6592 156.541 23.3493 155.938 23.3493 155.193C23.3493 154.448 22.6592 153.844 21.808 153.844C20.9567 153.844 20.2666 154.448 20.2666 155.193C20.2666 155.938 20.9567 156.541 21.808 156.541Z" fill="black"/>
<path d="M32.5973 156.541C33.4485 156.541 34.1386 155.938 34.1386 155.193C34.1386 154.448 33.4485 153.844 32.5973 153.844C31.746 153.844 31.0559 154.448 31.0559 155.193C31.0559 155.938 31.746 156.541 32.5973 156.541Z" fill="black"/>
<path d="M17.939 138.202C17.9041 138.049 17.8098 137.912 17.6721 137.813C17.5344 137.714 17.3619 137.66 17.1838 137.66H14.1011V139.008H16.5518L19.5112 151.953C19.5461 152.106 19.6404 152.243 19.7781 152.342C19.9158 152.441 20.0884 152.495 20.2665 152.495H34.1386V151.147H20.8984L20.2819 148.449H34.1386C34.314 148.449 34.484 148.397 34.6208 148.301C34.7575 148.205 34.8528 148.071 34.8908 147.921L36.6387 141.031H35.0611L33.5206 147.101H19.9736L17.939 138.202Z" fill="black"/>
<path d="M27.9732 140.357V137.66H26.4318V140.357H23.3491V141.706H26.4318V144.403H27.9732V141.706H31.0559V140.357H27.9732Z" fill="black"/>
</g>
<path d="M46.8217 120.361H33.9033V107.443C33.9033 107.284 33.7732 107.154 33.6143 107.154H32.675C30.7795 107.152 28.9022 107.524 27.1509 108.25C25.3996 108.975 23.8087 110.039 22.4696 111.381C21.1511 112.695 20.1009 114.253 19.3773 115.968C18.6258 117.749 18.2429 119.639 18.2429 121.59C18.2429 123.54 18.6258 125.426 19.3773 127.207C20.1034 128.923 21.1438 130.469 22.4696 131.795C23.7954 133.121 25.338 134.161 27.0575 134.887C28.8354 135.642 30.7474 136.029 32.6786 136.025C34.5742 136.027 36.4515 135.655 38.2028 134.93C39.9541 134.204 41.5449 133.14 42.8841 131.799C44.2099 130.473 45.2503 128.93 45.9764 127.211C46.7307 125.433 47.1177 123.521 47.1144 121.59V120.65C47.1107 120.491 46.9807 120.361 46.8217 120.361ZM49.9972 118.356L49.9032 117.338C49.5962 114.014 48.1223 110.878 45.7452 108.512C43.3704 106.139 40.2409 104.671 36.8981 104.361L35.8757 104.267C35.7059 104.253 35.5614 104.383 35.5614 104.553V118.414C35.5614 118.573 35.6915 118.703 35.8505 118.703L49.7082 118.667C49.878 118.663 50.0116 118.523 49.9972 118.356Z" fill="#294988"/>
<path d="M78.0562 181.959C78.1004 182.023 78.1595 182.075 78.2285 182.111C78.2975 182.148 78.3742 182.167 78.4522 182.167C78.5301 182.167 78.6068 182.148 78.6758 182.111C78.7448 182.075 78.8039 182.023 78.8481 181.959L83.1832 175.697C83.2333 175.625 83.2628 175.54 83.2682 175.452C83.2737 175.364 83.255 175.277 83.2142 175.199C83.1734 175.121 83.112 175.056 83.0367 175.01C82.9615 174.965 82.8752 174.941 82.7872 174.941H74.1171C74.0294 174.941 73.9434 174.966 73.8684 175.011C73.7934 175.057 73.7323 175.122 73.6916 175.2C73.6509 175.277 73.6321 175.365 73.6373 175.452C73.6425 175.54 73.6715 175.624 73.7212 175.697L78.0562 181.959Z" fill="#484747"/>
<path d="M78.0562 191.977C78.1004 192.042 78.1595 192.094 78.2285 192.13C78.2975 192.167 78.3742 192.186 78.4522 192.186C78.5301 192.186 78.6068 192.167 78.6758 192.13C78.7448 192.094 78.8039 192.042 78.8481 191.977L83.1832 185.716C83.2333 185.643 83.2628 185.559 83.2682 185.471C83.2737 185.383 83.255 185.296 83.2142 185.218C83.1734 185.14 83.112 185.075 83.0367 185.029C82.9615 184.984 82.8752 184.96 82.7872 184.96H74.1171C74.0294 184.96 73.9434 184.985 73.8684 185.03C73.7934 185.076 73.7323 185.141 73.6916 185.219C73.6509 185.296 73.6321 185.384 73.6373 185.471C73.6425 185.559 73.6715 185.643 73.7212 185.716L78.0562 191.977Z" fill="#484747"/>
<path d="M78.0562 201.996C78.1004 202.06 78.1595 202.113 78.2285 202.149C78.2975 202.185 78.3742 202.204 78.4522 202.204C78.5301 202.204 78.6068 202.185 78.6758 202.149C78.7448 202.113 78.8039 202.06 78.8481 201.996L83.1832 195.734C83.2333 195.662 83.2628 195.577 83.2682 195.49C83.2737 195.402 83.255 195.314 83.2142 195.236C83.1734 195.158 83.112 195.093 83.0367 195.048C82.9615 195.002 82.8752 194.978 82.7872 194.979H74.1171C74.0294 194.979 73.9434 195.003 73.8684 195.049C73.7934 195.094 73.7323 195.159 73.6916 195.237C73.6509 195.315 73.6321 195.402 73.6373 195.49C73.6425 195.577 73.6715 195.662 73.7212 195.734L78.0562 201.996Z" fill="#484747"/>
<path d="M102.537 111.804C102.752 111.804 102.957 111.889 103.109 112.041C103.261 112.192 103.346 112.398 103.346 112.613V115.85C103.346 116.064 103.261 116.27 103.109 116.422C102.957 116.574 102.752 116.659 102.537 116.659C102.322 116.659 102.117 116.574 101.965 116.422C101.813 116.27 101.728 116.064 101.728 115.85V112.613C101.728 112.398 101.813 112.192 101.965 112.041C102.117 111.889 102.322 111.804 102.537 111.804ZM96.2414 114.409C96.3166 114.334 96.4059 114.274 96.5042 114.233C96.6025 114.193 96.7079 114.172 96.8143 114.172C96.9208 114.172 97.0261 114.193 97.1245 114.233C97.2228 114.274 97.3121 114.334 97.3872 114.409L99.6757 116.699C99.753 116.774 99.8146 116.863 99.857 116.962C99.8994 117.061 99.9218 117.167 99.9227 117.274C99.9236 117.382 99.9032 117.488 99.8625 117.588C99.8218 117.687 99.7617 117.778 99.6857 117.854C99.6097 117.93 99.5194 117.99 99.4199 118.03C99.3205 118.071 99.2139 118.091 99.1065 118.091C98.999 118.09 98.8929 118.067 98.7941 118.025C98.6954 117.982 98.6061 117.921 98.5315 117.844L96.243 115.555C96.0913 115.403 96.0061 115.198 96.0061 114.983C96.0061 114.768 96.0913 114.563 96.243 114.411L96.2414 114.409ZM108.833 114.409C108.908 114.484 108.968 114.574 109.009 114.672C109.049 114.77 109.07 114.876 109.07 114.982C109.07 115.089 109.049 115.194 109.009 115.292C108.968 115.391 108.908 115.48 108.833 115.555L106.541 117.844C106.466 117.921 106.377 117.982 106.278 118.025C106.18 118.067 106.073 118.09 105.966 118.091C105.859 118.091 105.752 118.071 105.653 118.03C105.553 117.99 105.463 117.93 105.387 117.854C105.311 117.778 105.251 117.687 105.21 117.588C105.169 117.488 105.149 117.382 105.15 117.274C105.151 117.167 105.173 117.061 105.215 116.962C105.258 116.863 105.32 116.774 105.397 116.699L107.685 114.411C107.837 114.259 108.043 114.174 108.257 114.174C108.472 114.174 108.678 114.259 108.829 114.411L108.833 114.409ZM93.6357 120.705C93.6357 120.49 93.721 120.284 93.8728 120.133C94.0245 119.981 94.2303 119.896 94.445 119.896H97.6818C97.8964 119.896 98.1022 119.981 98.254 120.133C98.4057 120.284 98.491 120.49 98.491 120.705C98.491 120.92 98.4057 121.125 98.254 121.277C98.1022 121.429 97.8964 121.514 97.6818 121.514H94.445C94.2303 121.514 94.0245 121.429 93.8728 121.277C93.721 121.125 93.6357 120.92 93.6357 120.705ZM102.537 121.566V136.552C102.537 136.713 102.584 136.869 102.673 137.003C102.762 137.136 102.888 137.24 103.036 137.301C103.184 137.363 103.347 137.379 103.505 137.347C103.662 137.316 103.806 137.239 103.919 137.125L108.062 132.982C108.669 132.375 109.492 132.034 110.351 132.034H115.582C115.749 132.034 115.913 131.981 116.05 131.884C116.187 131.787 116.29 131.649 116.345 131.49C116.4 131.332 116.405 131.16 116.358 130.998C116.311 130.837 116.215 130.694 116.083 130.59L103.848 120.93C103.729 120.836 103.585 120.777 103.434 120.76C103.283 120.744 103.13 120.77 102.993 120.837C102.856 120.903 102.741 121.007 102.66 121.136C102.579 121.265 102.537 121.414 102.537 121.566Z" fill="#294988"/>
<path d="M81.5191 94.8312C81.9641 94.8312 82.3908 95.008 82.7055 95.3226C83.0201 95.6373 83.1969 96.064 83.1969 96.509V109.931C83.1969 110.376 83.0201 110.803 82.7055 111.118C82.3908 111.432 81.9641 111.609 81.5191 111.609H65.436C64.5461 111.609 63.6927 111.963 63.0636 112.592L59.708 115.948V96.509C59.708 96.064 59.8848 95.6373 60.1995 95.3226C60.5141 95.008 60.9408 94.8312 61.3858 94.8312H81.5191ZM61.3858 93.1534C60.4959 93.1534 59.6424 93.507 59.0131 94.1363C58.3838 94.7655 58.0303 95.619 58.0303 96.509V117.973C58.0303 118.139 58.0796 118.301 58.1719 118.439C58.2642 118.577 58.3953 118.684 58.5487 118.748C58.7021 118.811 58.8709 118.828 59.0336 118.795C59.1964 118.763 59.3459 118.683 59.4631 118.565L64.2498 113.778C64.5644 113.464 64.991 113.287 65.436 113.287H81.5191C82.4091 113.287 83.2626 112.933 83.8918 112.304C84.5211 111.675 84.8747 110.821 84.8747 109.931V96.509C84.8747 95.619 84.5211 94.7655 83.8918 94.1363C83.2626 93.507 82.4091 93.1534 81.5191 93.1534H61.3858Z" fill="black"/>
<path d="M66.419 103.22C66.419 103.665 66.2423 104.092 65.9276 104.407C65.613 104.721 65.1862 104.898 64.7413 104.898C64.2963 104.898 63.8695 104.721 63.5549 104.407C63.2402 104.092 63.0635 103.665 63.0635 103.22C63.0635 102.775 63.2402 102.349 63.5549 102.034C63.8695 101.719 64.2963 101.542 64.7413 101.542C65.1862 101.542 65.613 101.719 65.9276 102.034C66.2423 102.349 66.419 102.775 66.419 103.22ZM73.1301 103.22C73.1301 103.665 72.9534 104.092 72.6387 104.407C72.3241 104.721 71.8973 104.898 71.4523 104.898C71.0074 104.898 70.5806 104.721 70.266 104.407C69.9513 104.092 69.7746 103.665 69.7746 103.22C69.7746 102.775 69.9513 102.349 70.266 102.034C70.5806 101.719 71.0074 101.542 71.4523 101.542C71.8973 101.542 72.3241 101.719 72.6387 102.034C72.9534 102.349 73.1301 102.775 73.1301 103.22ZM79.8412 103.22C79.8412 103.665 79.6645 104.092 79.3498 104.407C79.0352 104.721 78.6084 104.898 78.1634 104.898C77.7185 104.898 77.2917 104.721 76.9771 104.407C76.6624 104.092 76.4857 103.665 76.4857 103.22C76.4857 102.775 76.6624 102.349 76.9771 102.034C77.2917 101.719 77.7185 101.542 78.1634 101.542C78.6084 101.542 79.0352 101.719 79.3498 102.034C79.6645 102.349 79.8412 102.775 79.8412 103.22Z" fill="black"/>
<g clip-path="url(#clip4_602_1351)">
<path d="M109.202 180.367C108.546 178.142 105.392 178.142 104.736 180.367L104.577 180.907C104.479 181.241 104.307 181.548 104.075 181.806C103.843 182.064 103.556 182.267 103.235 182.4C102.914 182.533 102.568 182.592 102.221 182.574C101.874 182.556 101.536 182.46 101.231 182.293L100.738 182.023C98.6986 180.914 96.4685 183.144 97.5795 185.182L97.8482 185.676C98.5571 186.979 97.8847 188.602 96.4621 189.022L95.9217 189.181C93.6964 189.837 93.6964 192.991 95.9217 193.647L96.4621 193.806C96.7953 193.904 97.1022 194.076 97.3605 194.308C97.6188 194.54 97.8219 194.827 97.9548 195.148C98.0877 195.469 98.1471 195.815 98.1287 196.162C98.1102 196.509 98.0144 196.847 97.8482 197.152L97.578 197.645C96.4685 199.684 98.6986 201.915 100.736 200.803L101.231 200.535C101.536 200.369 101.874 200.273 102.221 200.254C102.568 200.236 102.914 200.295 103.235 200.428C103.556 200.561 103.843 200.764 104.075 201.022C104.307 201.281 104.479 201.588 104.577 201.921L104.736 202.461C105.392 204.687 108.546 204.687 109.202 202.461L109.361 201.921C109.459 201.588 109.631 201.281 109.863 201.022C110.095 200.764 110.382 200.561 110.703 200.428C111.024 200.295 111.37 200.236 111.717 200.254C112.064 200.273 112.402 200.369 112.707 200.535L113.2 200.805C115.239 201.915 117.469 199.684 116.358 197.647L116.089 197.152C115.923 196.847 115.827 196.509 115.809 196.162C115.791 195.815 115.85 195.469 115.983 195.148C116.116 194.827 116.319 194.54 116.577 194.308C116.835 194.076 117.142 193.904 117.476 193.806L118.016 193.647C120.241 192.991 120.241 189.837 118.016 189.181L117.476 189.022C117.142 188.924 116.835 188.752 116.577 188.52C116.319 188.288 116.116 188.001 115.983 187.68C115.85 187.359 115.791 187.013 115.809 186.666C115.827 186.319 115.923 185.981 116.089 185.676L116.36 185.183C117.469 183.144 115.239 180.914 113.201 182.025L112.707 182.293C112.402 182.46 112.064 182.556 111.717 182.574C111.37 182.592 111.024 182.533 110.703 182.4C110.382 182.267 110.095 182.064 109.863 181.806C109.631 181.548 109.459 181.241 109.361 180.907L109.202 180.367ZM106.969 196.071C105.734 196.071 104.549 195.581 103.676 194.707C102.802 193.834 102.312 192.649 102.312 191.414C102.312 190.179 102.802 188.994 103.676 188.121C104.549 187.248 105.734 186.757 106.969 186.757C108.204 186.757 109.388 187.247 110.261 188.12C111.134 188.994 111.625 190.178 111.625 191.413C111.625 192.647 111.134 193.832 110.261 194.705C109.388 195.578 108.204 196.068 106.969 196.068V196.071Z" fill="black"/>
</g>
<g clip-path="url(#clip5_602_1351)">
<path d="M73.7504 132.585C73.094 130.36 69.9404 130.36 69.2839 132.585L69.1249 133.126C69.0269 133.459 68.8555 133.766 68.6233 134.024C68.3911 134.282 68.1041 134.485 67.7832 134.618C67.4624 134.751 67.1158 134.811 66.769 134.792C66.4222 134.774 66.084 134.678 65.779 134.512L65.2863 134.241C63.2469 133.132 61.0168 135.362 62.1279 137.4L62.3965 137.894C63.1054 139.198 62.4331 140.82 61.0105 141.24L60.47 141.399C58.2447 142.055 58.2447 145.209 60.47 145.866L61.0105 146.025C61.3436 146.123 61.6506 146.294 61.9089 146.526C62.1672 146.758 62.3702 147.045 62.5031 147.366C62.636 147.687 62.6954 148.034 62.677 148.38C62.6586 148.727 62.5627 149.066 62.3965 149.37L62.1263 149.863C61.0168 151.903 63.2469 154.133 65.2847 153.022L65.779 152.753C66.084 152.587 66.4222 152.491 66.769 152.472C67.1158 152.454 67.4624 152.513 67.7832 152.646C68.1041 152.779 68.3911 152.982 68.6233 153.241C68.8555 153.499 69.0269 153.806 69.1249 154.139L69.2839 154.679C69.9404 156.905 73.094 156.905 73.7504 154.679L73.9094 154.139C74.0075 153.806 74.1789 153.499 74.4111 153.241C74.6432 152.982 74.9303 152.779 75.2511 152.646C75.572 152.513 75.9185 152.454 76.2653 152.472C76.6121 152.491 76.9504 152.587 77.2553 152.753L77.7481 153.023C79.7874 154.133 82.0175 151.903 80.9065 149.865L80.6378 149.37C80.4716 149.066 80.3758 148.727 80.3574 148.38C80.3389 148.034 80.3983 147.687 80.5312 147.366C80.6641 147.045 80.8672 146.758 81.1255 146.526C81.3838 146.294 81.6907 146.123 82.0239 146.025L82.5643 145.866C84.7897 145.209 84.7897 142.055 82.5643 141.399L82.0239 141.24C81.6907 141.142 81.3838 140.971 81.1255 140.738C80.8672 140.506 80.6641 140.219 80.5312 139.898C80.3983 139.577 80.3389 139.231 80.3574 138.884C80.3758 138.537 80.4716 138.199 80.6378 137.894L80.9081 137.401C82.0175 135.362 79.7874 133.132 77.7497 134.243L77.2553 134.512C76.9504 134.678 76.6121 134.774 76.2653 134.792C75.9185 134.811 75.572 134.751 75.2511 134.618C74.9303 134.485 74.6432 134.282 74.4111 134.024C74.1789 133.766 74.0075 133.459 73.9094 133.126L73.7504 132.585ZM71.5172 148.29C70.282 148.29 69.0974 147.799 68.224 146.925C67.3506 146.052 66.8599 144.867 66.8599 143.632C66.8599 142.397 67.3506 141.212 68.224 140.339C69.0974 139.466 70.282 138.975 71.5172 138.975C72.7519 138.975 73.9361 139.466 74.8093 140.339C75.6824 141.212 76.1729 142.396 76.1729 143.631C76.1729 144.865 75.6824 146.05 74.8093 146.923C73.9361 147.796 72.7519 148.286 71.5172 148.286V148.29Z" fill="#82B3FC"/>
</g>
<g clip-path="url(#clip6_602_1351)">
<path d="M219.408 67.8482C218.752 65.6229 215.598 65.6229 214.942 67.8482L214.783 68.3886C214.685 68.7218 214.513 69.0288 214.281 69.287C214.049 69.5453 213.762 69.7484 213.441 69.8813C213.12 70.0142 212.774 70.0736 212.427 70.0552C212.08 70.0367 211.742 69.9409 211.437 69.7747L210.944 69.5045C208.905 68.395 206.675 70.6251 207.786 72.6628L208.054 73.1572C208.763 74.4606 208.091 76.0835 206.668 76.5031L206.128 76.6621C203.903 77.3185 203.903 80.4722 206.128 81.1286L206.668 81.2876C207.002 81.3857 207.309 81.5571 207.567 81.7892C207.825 82.0214 208.028 82.3084 208.161 82.6293C208.294 82.9501 208.353 83.2967 208.335 83.6435C208.317 83.9903 208.221 84.3286 208.054 84.6335L207.784 85.1263C206.675 87.1656 208.905 89.3957 210.943 88.2846L211.437 88.016C211.742 87.8498 212.08 87.754 212.427 87.7355C212.774 87.7171 213.12 87.7765 213.441 87.9094C213.762 88.0423 214.049 88.2454 214.281 88.5037C214.513 88.7619 214.685 89.0689 214.783 89.4021L214.942 89.9425C215.598 92.1678 218.752 92.1678 219.408 89.9425L219.567 89.4021C219.665 89.0689 219.837 88.7619 220.069 88.5037C220.301 88.2454 220.588 88.0423 220.909 87.9094C221.23 87.7765 221.576 87.7171 221.923 87.7355C222.27 87.754 222.608 87.8498 222.913 88.016L223.406 88.2862C225.445 89.3957 227.675 87.1656 226.564 85.1278L226.296 84.6335C226.13 84.3286 226.034 83.9903 226.015 83.6435C225.997 83.2967 226.056 82.9501 226.189 82.6293C226.322 82.3084 226.525 82.0214 226.783 81.7892C227.042 81.5571 227.349 81.3857 227.682 81.2876L228.222 81.1286C230.448 80.4722 230.448 77.3185 228.222 76.6621L227.682 76.5031C227.349 76.405 227.042 76.2336 226.783 76.0015C226.525 75.7693 226.322 75.4823 226.189 75.1614C226.056 74.8405 225.997 74.494 226.015 74.1472C226.034 73.8004 226.13 73.4621 226.296 73.1572L226.566 72.6644C227.675 70.6251 225.445 68.395 223.408 69.5061L222.913 69.7747C222.608 69.9409 222.27 70.0367 221.923 70.0552C221.576 70.0736 221.23 70.0142 220.909 69.8813C220.588 69.7484 220.301 69.5453 220.069 69.287C219.837 69.0288 219.665 68.7218 219.567 68.3886L219.408 67.8482ZM217.175 83.5526C215.94 83.5526 214.755 83.062 213.882 82.1886C213.009 81.3151 212.518 80.1305 212.518 78.8953C212.518 77.6602 213.009 76.4756 213.882 75.6021C214.755 74.7287 215.94 74.2381 217.175 74.2381C218.41 74.2381 219.594 74.7286 220.467 75.6017C221.34 76.4748 221.831 77.659 221.831 78.8938C221.831 80.1285 221.34 81.3127 220.467 82.1858C219.594 83.059 218.41 83.5495 217.175 83.5495V83.5526Z" fill="black"/>
</g>
<path d="M215.44 149.49L207.156 141.205L198.871 149.49L195.557 147.833L207.156 136.234L218.754 147.833L215.44 149.49Z" fill="#82B3FC"/>
<path d="M215.44 159.509L207.156 151.224L198.871 159.509L195.557 157.852L207.156 146.253L218.754 157.852L215.44 159.509Z" fill="#82B3FC"/>
<path d="M36.5602 181.01L31.0554 186.309L25.5506 181.01L23.3486 182.07L31.0554 189.488L38.7621 182.07L36.5602 181.01Z" fill="#294988"/>
<path d="M36.5602 174.074L31.0554 179.854L25.5506 174.074L23.3486 175.23L31.0554 183.322L38.7621 175.23L36.5602 174.074Z" fill="#294988"/>
<g clip-path="url(#clip7_602_1351)">
<path d="M251.157 207.213C251.157 208.044 250.662 208.84 249.781 209.427C248.901 210.014 247.706 210.344 246.461 210.344C245.215 210.344 244.021 210.014 243.14 209.427C242.259 208.84 241.764 208.044 241.764 207.213C241.764 206.383 242.259 205.587 243.14 204.999C244.021 204.412 245.215 204.082 246.461 204.082C247.706 204.082 248.901 204.412 249.781 204.999C250.662 205.587 251.157 206.383 251.157 207.213Z" fill="#45628E"/>
<path d="M231.433 207.213C231.433 207.213 237.068 200.325 246.461 200.325C255.853 200.325 261.489 207.213 261.489 207.213C261.489 207.213 255.853 214.101 246.461 214.101C237.068 214.101 231.433 207.213 231.433 207.213ZM246.461 211.596C248.205 211.596 249.877 211.135 251.11 210.313C252.343 209.491 253.036 208.376 253.036 207.213C253.036 206.051 252.343 204.936 251.11 204.114C249.877 203.292 248.205 202.83 246.461 202.83C244.717 202.83 243.045 203.292 241.812 204.114C240.579 204.936 239.886 206.051 239.886 207.213C239.886 208.376 240.579 209.491 241.812 210.313C243.045 211.135 244.717 211.596 246.461 211.596Z" fill="#45628E"/>
</g>
<path d="M90.7831 39.3986C81.7529 39.3986 74.4062 46.7452 74.4062 55.7754C74.4062 64.8056 81.7529 72.1523 90.7831 72.1523C99.8133 72.1523 107.16 64.8056 107.16 55.7754C107.16 46.7452 99.8133 39.3986 90.7831 39.3986ZM98.9715 57.4131H92.4208V63.9639H89.1454V57.4131H82.5947V54.1377H89.1454V47.587H92.4208V54.1377H98.9715V57.4131Z" fill="#294988"/>
<path d="M229.255 125.514L231.434 123.335L240.697 132.598L238.517 134.777L229.255 125.514Z" fill="#616161"/>
<path d="M222.184 128.604C228.994 128.604 234.514 123.084 234.514 116.273C234.514 109.463 228.994 103.943 222.184 103.943C215.373 103.943 209.853 109.463 209.853 116.273C209.853 123.084 215.373 128.604 222.184 128.604Z" fill="#616161"/>
<path d="M231.779 128.095L233.957 125.916L240.659 132.618L238.48 134.797L231.779 128.095Z" fill="#37474F"/>
<path d="M222.184 126.292C227.717 126.292 232.202 121.807 232.202 116.273C232.202 110.74 227.717 106.255 222.184 106.255C216.65 106.255 212.165 110.74 212.165 116.273C212.165 121.807 216.65 126.292 222.184 126.292Z" fill="#64B5F6"/>
<path d="M227.501 111.803C226.191 110.262 224.264 109.337 222.184 109.337C220.103 109.337 218.176 110.262 216.866 111.803C216.558 112.112 216.635 112.651 216.943 112.882C217.251 113.191 217.791 113.114 218.022 112.805C219.101 111.572 220.565 110.879 222.184 110.879C223.802 110.879 225.266 111.572 226.345 112.805C226.499 112.959 226.731 113.114 226.962 113.114C227.116 113.114 227.347 113.037 227.424 112.959C227.732 112.651 227.732 112.112 227.501 111.803Z" fill="#BBDEFB"/>
<path d="M141.727 60.2369C141.768 60.1965 141.815 60.1645 141.868 60.1426C141.921 60.1207 141.977 60.1095 142.034 60.1095C142.091 60.1095 142.148 60.1207 142.2 60.1426C142.253 60.1645 142.301 60.1965 142.341 60.2369C142.567 60.464 143.562 61.494 144.503 62.8405C145.43 64.1679 146.369 65.8889 146.369 67.4799C146.369 69.0231 145.869 70.2239 145.055 71.0389C144.244 71.8513 143.154 72.2484 142.034 72.2484C140.915 72.2484 139.824 71.8513 139.014 71.0389C138.199 70.2239 137.699 69.024 137.699 67.4799C137.699 65.8889 138.638 64.1679 139.566 62.8414C140.215 61.9167 140.938 61.0457 141.727 60.2369Z" fill="#484747"/>
<path d="M122.767 82.3636V105.484C122.767 106.506 123.173 107.486 123.895 108.209C124.618 108.931 125.598 109.337 126.62 109.337H147.043C147.349 109.337 147.644 109.215 147.86 108.999C148.077 108.782 148.199 108.488 148.199 108.181C148.199 107.875 148.077 107.581 147.86 107.364C147.644 107.147 147.349 107.025 147.043 107.025H126.62C126.211 107.025 125.819 106.863 125.53 106.574C125.241 106.285 125.079 105.893 125.079 105.484H147.043C147.349 105.484 147.644 105.362 147.86 105.145C148.077 104.929 148.199 104.634 148.199 104.328V82.3636C148.199 81.8576 148.099 81.3565 147.906 80.889C147.712 80.4215 147.428 79.9967 147.07 79.6389C146.712 79.2811 146.288 78.9972 145.82 78.8036C145.353 78.6099 144.852 78.5103 144.346 78.5103H126.62C125.598 78.5103 124.618 78.9162 123.895 79.6389C123.173 80.3615 122.767 81.3417 122.767 82.3636ZM133.556 87.7861C133.549 88.0879 133.424 88.3748 133.208 88.5857C132.992 88.7965 132.702 88.9145 132.4 88.9144C131.244 88.9144 131.244 87.7568 131.244 87.7568V87.7429C131.245 87.6739 131.249 87.605 131.256 87.5364C131.325 86.941 131.548 86.3739 131.904 85.8918C132.604 84.9469 133.861 84.2549 135.888 84.2903C137.352 84.3165 138.652 84.93 139.466 85.9396C140.293 86.9677 140.572 88.3595 140.024 89.7298C139.466 91.1247 138.203 91.6796 137.477 91.9971L137.4 92.0325C136.969 92.2221 136.764 92.3208 136.64 92.4194L136.639 92.421V93.5369C136.639 93.8435 136.517 94.1376 136.301 94.3545C136.084 94.5715 135.79 94.6935 135.484 94.6937C135.177 94.6939 134.883 94.5723 134.666 94.3556C134.449 94.139 134.327 93.845 134.327 93.5384V92.3824C134.327 91.5763 134.715 90.9998 135.195 90.6145C135.58 90.3062 136.065 90.0935 136.406 89.9425L136.465 89.9163C137.3 89.5479 137.698 89.3198 137.878 88.8697C137.984 88.6277 138.02 88.361 137.982 88.0995C137.945 87.8381 137.835 87.5923 137.665 87.39C137.323 86.9661 136.696 86.6162 135.848 86.6023C134.407 86.5777 133.929 87.0416 133.763 87.2682C133.652 87.4179 133.581 87.5927 133.556 87.7769V87.7861ZM137.024 97.7771C137.024 98.1859 136.862 98.578 136.573 98.867C136.284 99.1561 135.892 99.3185 135.483 99.3185C135.074 99.3185 134.682 99.1561 134.393 98.867C134.104 98.578 133.941 98.1859 133.941 97.7771C133.941 97.3684 134.104 96.9763 134.393 96.6872C134.682 96.3982 135.074 96.2358 135.483 96.2358C135.892 96.2358 136.284 96.3982 136.573 96.6872C136.862 96.9763 137.024 97.3684 137.024 97.7771Z" fill="black"/>
<path d="M244.062 84.3871H239.342C238.985 84.3854 238.637 84.5065 238.358 84.7301C238.08 84.9537 237.886 85.2664 237.81 85.6157C236.846 89.9114 236.814 94.3638 237.717 98.6727L237.812 99.1272C237.886 99.48 238.08 99.7966 238.359 100.024C238.639 100.252 238.989 100.376 239.349 100.378H244.062C244.478 100.377 244.877 100.212 245.172 99.9172C245.466 99.6229 245.632 99.2237 245.632 98.8074V85.9573C245.632 85.5409 245.466 85.1418 245.172 84.8474C244.877 84.553 244.478 84.3875 244.062 84.3871ZM243.609 98.3547H239.717L239.698 98.2607C238.879 94.3526 238.882 90.3168 239.708 86.4101H243.609V98.3547ZM267.315 89.104L265.919 85.38C265.808 85.0889 265.612 84.8381 265.357 84.6608C265.101 84.4835 264.797 84.3881 264.486 84.3871H257.045V82.5199L257.65 81.1796C257.953 80.5089 258.12 79.7848 258.141 79.0491C258.162 78.3134 258.038 77.5808 257.775 76.8936C257.511 76.2063 257.114 75.5781 256.607 75.0451C256.099 74.5122 255.491 74.0851 254.817 73.7885C254.449 73.6281 254.033 73.6184 253.657 73.7614C253.282 73.9044 252.977 74.1887 252.809 74.5535L247.732 85.6682V87.2527H249.232L254.434 75.8657C255.168 76.3183 255.712 77.0229 255.965 77.8476C256.217 78.6723 256.161 79.5608 255.806 80.347L255.111 81.8859L255.022 82.3021V85.3986L256.033 86.4101H264.144L265.39 89.7309V90.3171L261.091 97.8712H253.193L247.732 94.6678V97.0133L252.284 99.6837C252.519 99.8215 252.786 99.8941 253.059 99.8942H261.378C261.648 99.8939 261.914 99.8222 262.147 99.6864C262.381 99.5506 262.574 99.3554 262.708 99.1208L267.212 91.2039C267.343 90.9732 267.412 90.7125 267.413 90.4472V89.6413C267.413 89.4578 267.38 89.2758 267.315 89.104Z" fill="black"/>
<g clip-path="url(#clip8_602_1351)">
<path d="M50.3239 79.281C46.2573 79.281 42.925 82.3094 42.925 86.0053C42.925 87.4375 43.4272 88.7679 44.2766 89.8621L49.4209 97.1981C50.1413 98.056 50.6198 97.8932 51.2188 97.153L56.8938 89.1215C57.0084 88.9325 57.0983 88.7316 57.1768 88.5262C57.5271 87.7467 57.722 86.8955 57.722 86.0053C57.722 82.3094 54.3905 79.281 50.3239 79.281ZM50.3307 81.5805C50.7403 81.5805 51.0865 81.7268 51.3693 82.0194C51.6619 82.3022 51.8082 82.6482 51.8082 83.0579C51.8082 83.4674 51.6619 83.8185 51.3693 84.1109C51.0865 84.4035 50.7404 84.5495 50.3307 84.5495C49.9212 84.5495 49.5702 84.4033 49.2778 84.1111C48.9851 83.8185 48.8388 83.4674 48.8388 83.0579C48.8388 82.6484 48.9805 82.3022 49.2633 82.0194C49.5558 81.7268 49.9114 81.5805 50.3307 81.5805ZM51.0503 85.4336H51.3878C51.5828 85.4336 51.7411 85.5577 51.7411 85.711V89.4081C51.7411 89.7375 51.791 89.9591 51.8058 89.9896C51.8447 90.0526 51.885 90.0874 51.9394 90.1128C51.9556 90.1194 52.1493 90.1616 52.4545 90.1616C52.6496 90.1616 52.8076 90.2859 52.8076 90.439V90.6562C52.8076 90.8093 52.6496 90.9336 52.4545 90.9336H48.3004C48.1055 90.9336 47.9471 90.8093 47.9471 90.6562V90.439C47.9471 90.2859 48.1055 90.1616 48.3004 90.1616C48.6204 90.1616 48.8274 90.1148 48.817 90.1194C48.8583 90.1009 48.8995 90.0704 48.9432 89.9911L48.9469 89.9842C48.9644 89.9546 49.0212 89.7345 49.0212 89.4081C49.0212 88.2306 49.0656 87.9727 48.9591 86.9125C48.9326 86.8241 48.8949 86.7944 48.9162 86.8077L48.9052 86.8008C48.9049 86.8006 48.896 86.7901 48.8218 86.7901C48.7416 86.7901 48.6034 86.8103 48.4242 86.863C48.2429 86.9162 48.0411 86.8452 47.971 86.7037L47.8634 86.4866C47.7934 86.3453 47.8811 86.186 48.06 86.1289L50.9174 85.4537C50.9596 85.4404 51.0959 85.4334 51.0504 85.4334L51.0503 85.4336Z" fill="#484747"/>
</g>
<g clip-path="url(#clip9_602_1351)">
<path d="M128.457 13.0389C128.557 13.0389 128.681 13.0886 128.788 13.2376C128.308 12.5504 129.326 12.8485 129.384 12.1945C129.964 11.764 129.757 11.4825 129.923 11.4659L130.105 11.3169C129.749 11.4494 129.625 11.4742 129.525 11.4742H129.36C129.235 11.4742 129.028 11.499 128.54 11.6481C127.422 11.7308 126.619 12.9395 126.238 12.9727C125.849 13.1796 125.866 13.221 125.957 13.221C125.982 13.221 126.015 13.2127 126.048 13.2127C126.081 13.2127 126.106 13.2045 126.131 13.2045C126.222 13.2045 126.197 13.2459 125.667 13.4942C125.791 13.5273 124.74 13.9909 124.732 14.7195C124.699 15.0009 124.815 15.1914 125.005 15.1914C125.171 15.1914 125.378 15.0672 125.601 14.7526C126.346 13.8916 127.919 13.8088 128.598 13.2873C128.176 13.2541 128.259 13.0389 128.457 13.0389ZM124.674 13.3286C124.599 13.3286 124.699 13.2376 124.806 13.1465C124.922 13.0554 125.055 12.9644 125.055 12.9644L125.046 12.9727C125.493 12.7988 125.22 12.7574 125.46 12.6415H125.444C125.394 12.6415 125.485 12.5753 125.568 12.5008C125.651 12.4345 125.725 12.36 125.651 12.36C125.609 12.36 125.502 12.3849 125.32 12.4594C125.378 12.3766 125.601 12.3186 125.916 12.1448C125.46 12.2938 125.104 12.3849 125.063 12.3849C125.03 12.3849 125.22 12.3186 125.791 12.1448C125.816 12.1448 125.841 12.1531 125.858 12.1531C125.916 12.1531 125.94 12.1365 125.932 12.1199C125.924 12.1034 125.891 12.0951 125.833 12.0951C125.013 12.1613 124.401 12.6746 124.583 12.7409C124.69 12.7077 124.765 12.6912 124.815 12.6912C124.922 12.6912 124.873 12.7822 124.657 12.9147C124.757 13.1465 123.002 13.7426 122.803 13.9578C122.902 13.8999 122.968 13.8833 123.002 13.8833C123.134 13.8833 122.96 14.14 122.786 14.2641C122.894 14.3635 122.977 14.3966 123.043 14.3966C123.217 14.3966 123.291 14.1565 123.44 14.082C123.473 14.1482 123.507 14.1814 123.548 14.1814C123.689 14.1814 123.862 13.8336 124.003 13.6515C124.045 13.6929 124.094 13.726 124.161 13.726C124.293 13.726 124.492 13.6184 124.806 13.3121C124.74 13.3204 124.69 13.3286 124.674 13.3286ZM122.77 14.8519C122.472 15.0341 122.314 15.1086 122.248 15.1086C122.124 15.1086 122.29 14.8768 122.439 14.6367C122.588 14.4049 122.72 14.1731 122.53 14.1731C122.439 14.1731 122.273 14.2227 122.008 14.3552C121.288 14.8354 120.071 16.16 119.533 16.16H119.483C120.352 15.5225 120.096 14.2724 121.313 13.9495C122.513 13.2624 123.333 13.4777 124.401 12.6912C124.086 12.8485 123.622 13.0223 123.515 13.0223C123.449 13.0223 123.548 12.9395 123.978 12.7326C123.937 12.7409 123.904 12.7491 123.879 12.7491C123.589 12.7491 125.783 11.9627 125.891 11.9461C124.988 12.0703 123.531 12.8236 123.333 12.8236C123.308 12.8236 123.308 12.8154 123.308 12.7988C123.341 12.774 123.341 12.7574 123.308 12.7574C123.2 12.7574 122.753 12.9064 122.298 13.0554C121.851 13.2045 121.395 13.3618 121.296 13.3618C121.263 13.3618 121.263 13.3452 121.313 13.3121C117.405 15.5308 114.143 19.2728 113.125 23.7102C113.547 24.6788 113.257 26.525 113.953 27.0631C114.748 27.7337 113.274 29.6792 113.663 30.8796C114.06 33.0486 115.774 34.5305 115.956 36.7492C116.271 38.2725 117.422 40.1352 117.902 41.1038C118.266 41.4681 119.268 42.5195 119.442 42.5195C119.508 42.5195 119.466 42.3622 119.202 41.94C119.036 41.4681 118.076 40.2346 118.539 40.2346C118.564 40.2346 118.589 40.2346 118.622 40.2428C118.051 39.6633 119.889 39.8206 118.605 39.0341C118.456 38.852 118.423 38.7941 118.456 38.7941C118.498 38.7941 118.614 38.8603 118.746 38.9265C118.887 38.9927 119.053 39.059 119.185 39.059C119.392 39.059 119.533 38.9182 119.45 38.405C119.483 38.4215 119.516 38.4215 119.541 38.4215C119.756 38.4215 119.682 37.9993 119.698 37.5771C119.715 37.1549 119.822 36.7326 120.402 36.7326C120.468 36.7326 120.543 36.7409 120.617 36.7492C121.958 36.0207 120.791 34.0089 122.331 33.2721C122.273 31.5998 120.029 31.517 119.185 30.8382C119.044 30.921 118.912 30.9458 118.779 30.9458C118.63 30.9458 118.498 30.9127 118.382 30.8713C118.266 30.8382 118.158 30.7968 118.084 30.7968C118.067 30.7968 118.051 30.7968 118.034 30.8051C119.475 30.4242 118.423 28.4208 117.231 28.4208H117.148C117.057 27.5515 116.61 27.8827 116.561 27.1624C116.486 27.2038 116.412 27.2204 116.337 27.2204C116.138 27.2204 115.956 27.0796 115.799 26.9472C115.642 26.8064 115.509 26.674 115.393 26.674C115.302 26.674 115.219 26.765 115.145 27.03C115.228 26.6243 115.203 26.4918 115.12 26.4918C115.037 26.4918 114.888 26.6326 114.723 26.7733C114.565 26.9141 114.383 27.0548 114.243 27.0548H114.201C113.233 26.3677 114.209 25.1507 113.696 24.2152C114.027 23.8592 114.16 23.2549 114.011 23.2549C113.936 23.2549 113.787 23.4039 113.555 23.8095C113.224 22.9651 114.102 21.0527 114.847 20.9451C114.872 20.9451 114.888 20.9368 114.913 20.9368C115.046 20.9368 115.178 21.003 115.294 21.1438C115.36 21.5329 115.195 22.3525 115.261 22.3525C115.294 22.3525 115.36 22.1869 115.526 21.7564C115.741 20.7712 117.248 20.0593 117.405 19.4549C117.413 19.4632 117.413 19.4632 117.422 19.4632C117.595 19.4632 118.713 18.478 119.202 18.3704C119.392 18.18 119.524 18.1138 119.624 18.1138C119.731 18.1138 119.789 18.1965 119.831 18.2711C119.872 18.3538 119.905 18.4283 119.947 18.4283C119.98 18.4283 120.021 18.3787 120.096 18.2379C119.839 17.7329 120.501 17.2528 120.319 17.2528C120.253 17.2528 120.054 17.319 119.649 17.4846C119.582 17.5177 119.549 17.526 119.533 17.526C119.483 17.526 119.682 17.3935 119.971 17.261C120.261 17.1286 120.626 16.9961 120.932 16.9961C121.081 16.9961 121.213 17.0292 121.313 17.112C122.596 16.8057 121.892 16.3835 121.958 16.3835H121.975C122.339 16.1683 122.232 15.3569 122.77 14.8519ZM117.033 18.2379C117.016 18.2379 117.09 18.1303 117.339 17.824C117.852 17.4432 118.266 17.1865 117.794 16.9382C118.001 16.8471 118.2 16.7395 118.39 16.6236C118.382 17.0292 118.043 18.0144 117.86 18.0144C117.819 18.0144 117.778 17.9565 117.761 17.8323C117.869 17.6419 117.877 17.5674 117.836 17.5674C117.769 17.5674 117.579 17.7329 117.397 17.9068C117.215 18.0641 117.049 18.2379 117.033 18.2379ZM117.504 18.4615C117.281 18.4615 117.322 18.3207 118.009 18.18C118.307 18.1386 118.076 18.1552 118.432 18.0724C118.084 18.3538 117.695 18.4615 117.504 18.4615ZM130.378 17.6253C130.477 17.6088 130.552 17.6088 130.61 17.6088C130.85 17.6088 130.742 17.7081 130.601 17.8074C130.461 17.9068 130.287 18.0061 130.386 18.0061C130.444 18.0061 130.601 17.973 130.924 17.882C132.555 17.7661 130.287 16.3835 130.651 15.9199L130.552 15.8868C129.881 16.7395 130.999 16.756 130.378 17.6253ZM129.699 17.6584C129.815 17.6584 129.964 17.526 130.121 17.1534C130.336 16.8968 130.245 16.8637 130.014 16.7395C129.376 16.9051 129.434 17.6584 129.699 17.6584ZM135.411 20.2828C135.387 20.2828 135.37 20.2911 135.353 20.2993C135.42 20.3159 135.486 20.3325 135.552 20.3325C135.486 20.2993 135.444 20.2828 135.411 20.2828ZM146.53 22.3442C146.67 22.6505 146.745 22.7747 146.753 22.7747C146.811 22.7747 145.71 20.0924 145.255 19.6122C142.879 15.7046 138.971 12.716 134.517 11.5984H134.509C134.393 11.5984 134.526 11.6563 134.683 11.7143C134.84 11.7722 135.031 11.8302 135.031 11.8302C135.031 11.8302 134.906 11.7888 134.526 11.6812C134.103 11.557 133.673 11.4659 133.234 11.4328C133.16 11.4576 135.047 12.2027 136.314 12.5918C135.892 12.4594 135.453 12.3435 135.345 12.3435C135.271 12.3435 135.345 12.3931 135.651 12.5256C135.279 12.418 135.122 12.3683 135.105 12.3683C135.08 12.3683 135.602 12.5422 136.09 12.716C136.587 12.8899 137.059 13.0637 136.926 13.0637C136.893 13.0637 136.802 13.0472 136.661 13.0223C137.084 13.2541 137.233 13.3452 137.208 13.3452C137.166 13.3452 136.645 13.0968 136.107 12.8485C135.577 12.6001 135.039 12.3518 134.964 12.3518C134.923 12.3518 135.031 12.4345 135.395 12.6498C135.892 12.865 136.388 13.0803 136.247 13.0803C136.181 13.0803 135.991 13.0389 135.618 12.9313C136.446 13.3535 135.031 13.1879 135.511 13.7591C135.246 13.5108 135.138 13.428 135.113 13.428C135.088 13.428 135.155 13.5273 135.221 13.6267C135.287 13.726 135.337 13.8254 135.279 13.8254H135.262C135.842 14.4546 134.857 13.8916 135.56 14.4546C135.031 14.2145 134.128 13.8171 134.534 13.8171C134.633 13.8171 134.824 13.8419 135.122 13.9082C134.583 13.279 133.06 13.2541 133.027 13.1796C132.646 13.2045 132.638 13.4942 132.704 14.0241C132.696 14.8602 131.876 14.8768 131.984 15.3569C131.984 15.3487 131.992 15.3487 131.992 15.3487C132.009 15.3487 132.017 15.5142 132.067 15.6881C132.125 15.8537 132.224 16.0275 132.439 16.0275C132.555 16.0275 132.704 15.9778 132.886 15.8537C133.143 16.3173 133.375 16.4828 133.557 16.4828C133.83 16.4828 133.996 16.1103 133.979 15.7709C133.681 15.6053 133.292 14.231 133.722 14.231C133.789 14.231 133.872 14.2641 133.979 14.3387C133.309 15.9861 136.628 14.885 134.749 15.6384C135.171 16.1931 134.484 16.1683 134.683 16.8388C134.36 16.9299 134.004 17.0127 133.689 17.0127C133.226 17.0127 132.87 16.814 132.911 16.1186C132.332 16.4249 133.491 17.4597 132.34 17.4597H132.274C131.719 18.478 129.641 18.1303 131.272 19.2066C131.363 19.6784 131.065 19.7612 130.684 19.7612C130.585 19.7612 130.477 19.7529 130.37 19.7447C130.262 19.7364 130.154 19.7364 130.055 19.7364C129.625 19.7364 129.318 19.844 129.583 20.5146C129.393 21.21 129.84 21.5163 130.386 21.5163C131.048 21.5163 131.86 21.0858 131.918 20.3739C132.274 19.8357 132.729 19.6122 133.201 19.6122C133.946 19.6122 134.732 20.1752 135.246 20.8706C135.287 20.9368 135.32 20.9616 135.337 20.9616C135.378 20.9616 135.337 20.7961 135.32 20.6305C135.304 20.498 135.304 20.3656 135.353 20.3242C134.617 20.1172 134.054 19.2231 134.302 19.2231C134.385 19.2231 134.559 19.3225 134.84 19.5874H134.882C135.345 19.5874 135.709 19.9516 135.991 20.3159C136.281 20.6802 136.496 21.0444 136.686 21.0444C136.761 21.0444 136.835 20.9782 136.902 20.8292C136.868 20.7795 136.786 20.6388 136.744 20.498C136.695 20.3242 136.695 20.1503 136.918 20.1503C137.009 20.1503 137.133 20.1834 137.307 20.2497C137.87 20.1007 136.951 18.6353 137.696 18.6353C137.771 18.6353 137.862 18.6519 137.978 18.685C137.969 18.9416 138.085 19.0327 138.193 19.0327C138.408 19.0327 138.623 18.7264 138.102 18.6353C138.301 18.4449 138.417 18.3704 138.499 18.3704C138.789 18.3704 138.557 19.3307 139.559 19.3307C139.898 20.1338 136.612 19.3887 137.663 20.9285C137.903 21.1024 138.201 21.1355 138.491 21.1355C138.582 21.1355 138.665 21.1355 138.748 21.1272C138.83 21.1272 138.913 21.1189 138.988 21.1189C139.501 21.1189 139.865 21.2431 139.642 22.3028C139.369 22.5015 139.062 22.5677 138.748 22.5677C138.466 22.5677 138.185 22.518 137.912 22.4684C137.638 22.4187 137.373 22.369 137.133 22.369C136.761 22.369 136.463 22.4932 136.281 22.9237C135.312 22.5263 134.037 22.5098 134.161 21.3094C132.472 21.5494 130.709 21.4253 129.467 22.4601C129.393 23.9751 126.793 24.4636 127.422 26.1855C126.669 27.7751 128.333 30.002 130.03 30.002C130.088 30.002 130.154 30.002 130.212 29.9938C131.14 29.9855 132.075 29.5715 132.895 29.5715C133.317 29.5715 133.698 29.6792 134.029 30.0103C134.103 30.002 134.17 29.9938 134.227 29.9938C135.494 29.9938 133.822 32.0055 135.337 32.3449C136.711 33.7689 134.492 35.2342 135.577 36.6002C135.693 37.6681 136.223 38.5623 136.223 39.6054C136.363 39.6219 136.496 39.6302 136.637 39.6302C138.383 39.6302 139.476 38.1069 140.503 36.9562C140.188 35.2342 142.945 34.8948 142.001 32.9658C141.562 30.8547 144.079 29.6047 143.938 27.4936C143.963 27.1955 143.881 27.1045 143.756 27.1045C143.632 27.1045 143.45 27.1955 143.276 27.2783C143.094 27.3694 142.895 27.4522 142.738 27.4522C142.531 27.4522 142.374 27.3114 142.357 26.8478C141.14 25.7136 140.586 24.1738 139.451 22.9237C140.925 23.6357 141.761 25.2418 142.44 26.6988C142.498 26.7154 142.556 26.7236 142.622 26.7236C143.823 26.7236 145.495 23.8509 143.674 23.1555C143.574 23.4287 143.442 23.5281 143.284 23.5281C143.011 23.5281 142.697 23.1969 142.473 22.874C142.25 22.5429 142.134 22.2117 142.258 22.2117C142.341 22.2117 142.523 22.3442 142.837 22.6919C143.193 22.9154 143.541 22.9734 143.905 22.9734C144.261 22.9734 144.626 22.9154 145.006 22.8823C145.487 23.0727 145.694 23.6854 145.843 23.6854C145.867 23.6854 145.901 23.6605 145.925 23.6026C146.306 24.5132 146.745 26.1359 147.142 26.5746C146.935 25.1838 146.886 23.7102 146.53 22.3442ZM141.91 20.4318C140.975 20.1917 140.668 19.0327 139.932 18.3621C139.923 18.18 140.196 18.2131 140.13 17.9068C141.124 18.2131 140.801 18.5194 140.71 18.5774C141.074 19.1817 142.092 19.5957 141.91 20.4318ZM129.053 14.1317C128.151 14.3966 128.027 14.1068 128.184 14.6615C128.25 14.7112 128.374 14.7278 128.499 14.7278C128.937 14.736 129.533 14.4794 129.053 14.1317ZM142.308 36.9396C143.491 35.9379 143.64 34.7458 143.698 33.5371C143.169 34.5719 141.596 35.7144 142.308 36.9396ZM136.918 20.7961C136.91 20.8043 136.91 20.8043 136.91 20.8126C136.918 20.8292 136.926 20.8292 136.926 20.8292C136.926 20.8292 136.926 20.8209 136.918 20.7961ZM130.088 7.60803C118.382 7.60803 108.895 17.0955 108.895 28.8016C108.895 40.5078 118.382 49.9952 130.088 49.9952C141.794 49.9952 151.282 40.5078 151.282 28.8016C151.282 17.0955 141.794 7.60803 130.088 7.60803ZM130.088 48.3643C119.284 48.3643 110.525 39.6054 110.525 28.8016C110.525 17.9979 119.284 9.23894 130.088 9.23894C140.892 9.23894 149.651 17.9979 149.651 28.8016C149.651 39.6054 140.892 48.3643 130.088 48.3643Z" fill="#484747"/>
</g>
<path d="M103.8 88.2883H100.115C99.6626 88.2883 99.2966 88.6542 99.2966 89.1071V103.027C99.2966 103.48 99.6626 103.846 100.115 103.846H103.8C104.253 103.846 104.619 103.48 104.619 103.027V89.1071C104.619 88.6542 104.253 88.2883 103.8 88.2883ZM111.682 80.9187H107.997C107.544 80.9187 107.178 81.2846 107.178 81.7375V103.027C107.178 103.48 107.544 103.846 107.997 103.846H111.682C112.135 103.846 112.5 103.48 112.5 103.027V81.7375C112.5 81.2846 112.135 80.9187 111.682 80.9187ZM95.9189 95.6579H92.2341C91.7812 95.6579 91.4153 96.0238 91.4153 96.4767V103.027C91.4153 103.48 91.7812 103.846 92.2341 103.846H95.9189C96.3718 103.846 96.7378 103.48 96.7378 103.027V96.4767C96.7378 96.0238 96.3718 95.6579 95.9189 95.6579Z" fill="#82B3FC"/>
<path d="M145.758 139.249V126.774C145.758 126.459 145.632 126.156 145.41 125.934C145.187 125.711 144.885 125.586 144.569 125.586H127.936C127.621 125.586 127.318 125.711 127.096 125.934C126.873 126.156 126.748 126.459 126.748 126.774V148.16C126.748 148.475 126.873 148.777 127.096 149C127.318 149.223 127.621 149.348 127.936 149.348H134.47M132.094 130.338H140.411M132.094 135.091H140.411M132.094 139.843H135.658" stroke="black" stroke-linecap="round" stroke-linejoin="round"/>
<path d="M145.164 149.348L143.105 147.29L145.164 149.348ZM143.105 147.29C143.387 147.015 143.611 146.687 143.765 146.326C143.919 145.964 143.999 145.575 144.002 145.182C144.004 144.788 143.928 144.399 143.779 144.035C143.63 143.671 143.41 143.341 143.132 143.063C142.853 142.785 142.523 142.564 142.159 142.415C141.795 142.266 141.406 142.19 141.012 142.193C140.619 142.195 140.23 142.276 139.868 142.43C139.507 142.584 139.179 142.808 138.904 143.09C138.352 143.648 138.042 144.402 138.044 145.187C138.046 145.973 138.359 146.726 138.914 147.281C139.47 147.836 140.223 148.149 141.008 148.151C141.794 148.152 142.548 147.843 143.106 147.29H143.105Z" stroke="black" stroke-linecap="round" stroke-linejoin="round"/>
<path d="M157.911 182.774C157.951 182.734 157.999 182.702 158.052 182.68C158.104 182.658 158.161 182.647 158.218 182.647C158.275 182.647 158.331 182.658 158.384 182.68C158.437 182.702 158.485 182.734 158.525 182.774C158.751 183.001 159.746 184.031 160.686 185.378C161.614 186.705 162.553 188.426 162.553 190.017C162.553 191.561 162.053 192.761 161.239 193.576C160.428 194.389 159.337 194.786 158.218 194.786C157.099 194.786 156.008 194.389 155.197 193.576C154.383 192.761 153.883 191.561 153.883 190.017C153.883 188.426 154.822 186.705 155.749 185.379C156.399 184.454 157.122 183.583 157.911 182.774Z" fill="black"/>
<path d="M157.911 202.812C157.951 202.771 157.999 202.739 158.052 202.718C158.104 202.696 158.161 202.684 158.218 202.684C158.275 202.684 158.331 202.696 158.384 202.718C158.437 202.739 158.485 202.771 158.525 202.812C158.751 203.039 159.746 204.069 160.686 205.415C161.614 206.743 162.553 208.464 162.553 210.055C162.553 211.598 162.053 212.799 161.239 213.614C160.428 214.426 159.337 214.823 158.218 214.823C157.099 214.823 156.008 214.426 155.197 213.614C154.383 212.799 153.883 211.599 153.883 210.055C153.883 208.464 154.822 206.743 155.749 205.416C156.399 204.492 157.122 203.621 157.911 202.812Z" fill="black"/>
<path d="M31.0574 191.029L28.1706 196.029L33.9441 196.029L31.0574 191.029ZM30.5574 193.093C30.5574 193.369 30.7812 193.593 31.0574 193.593C31.3335 193.593 31.5574 193.369 31.5574 193.093L30.5574 193.093ZM31.5574 197.222C31.5574 196.946 31.3335 196.722 31.0574 196.722C30.7812 196.722 30.5574 196.946 30.5574 197.222L31.5574 197.222ZM30.5574 201.35C30.5574 201.627 30.7812 201.85 31.0574 201.85C31.3335 201.85 31.5574 201.627 31.5574 201.35L30.5574 201.35ZM31.5574 205.479C31.5574 205.203 31.3335 204.979 31.0574 204.979C30.7812 204.979 30.5574 205.203 30.5574 205.479L31.5574 205.479ZM30.5574 209.608C30.5574 209.884 30.7812 210.108 31.0574 210.108C31.3335 210.108 31.5574 209.884 31.5574 209.608L30.5574 209.608ZM31.5574 213.736C31.5574 213.46 31.3335 213.236 31.0574 213.236C30.7812 213.236 30.5574 213.46 30.5574 213.736L31.5574 213.736ZM30.5574 217.865C30.5574 218.141 30.7812 218.365 31.0574 218.365C31.3335 218.365 31.5574 218.141 31.5574 217.865L30.5574 217.865ZM31.5574 221.994C31.5574 221.717 31.3335 221.494 31.0574 221.494C30.7812 221.494 30.5574 221.717 30.5574 221.994L31.5574 221.994ZM30.5574 226.122C30.5574 226.398 30.7812 226.622 31.0574 226.622C31.3335 226.622 31.5574 226.398 31.5574 226.122L30.5574 226.122ZM31.5574 230.251C31.5574 229.975 31.3335 229.751 31.0574 229.751C30.7812 229.751 30.5574 229.975 30.5574 230.251L31.5574 230.251ZM30.5574 234.379C30.5574 234.656 30.7812 234.879 31.0574 234.879C31.3335 234.879 31.5574 234.656 31.5574 234.379L30.5574 234.379ZM31.5574 238.508C31.5574 238.232 31.3335 238.008 31.0574 238.008C30.7812 238.008 30.5574 238.232 30.5574 238.508L31.5574 238.508ZM30.5574 242.637C30.5574 242.913 30.7812 243.137 31.0574 243.137C31.3335 243.137 31.5574 242.913 31.5574 242.637L30.5574 242.637ZM31.5574 246.765C31.5574 246.489 31.3335 246.265 31.0574 246.265C30.7812 246.265 30.5574 246.489 30.5574 246.765L31.5574 246.765ZM30.5574 197.222L30.5574 201.35L31.5574 201.35L31.5574 197.222L30.5574 197.222ZM30.5574 205.479L30.5574 209.608L31.5574 209.608L31.5574 205.479L30.5574 205.479ZM30.5574 213.736L30.5574 217.865L31.5574 217.865L31.5574 213.736L30.5574 213.736ZM30.5574 221.994L30.5574 226.122L31.5574 226.122L31.5574 221.994L30.5574 221.994ZM30.5574 230.251L30.5574 234.379L31.5574 234.379L31.5574 230.251L30.5574 230.251ZM30.5574 238.508L30.5574 242.637L31.5574 242.637L31.5574 238.508L30.5574 238.508ZM30.5574 246.765L30.5574 248.83L31.5574 248.83L31.5574 246.765L30.5574 246.765Z" fill="black"/>
<path d="M48.783 248.83L51.6697 243.83L45.8962 243.83L48.783 248.83ZM48.783 174.845L45.8962 179.845L51.6697 179.845L48.783 174.845ZM49.283 246.774C49.283 246.498 49.0591 246.274 48.783 246.274C48.5068 246.274 48.283 246.498 48.283 246.774L49.283 246.774ZM48.283 242.664C48.283 242.94 48.5068 243.164 48.783 243.164C49.0591 243.164 49.283 242.94 49.283 242.664L48.283 242.664ZM49.283 238.554C49.283 238.278 49.0591 238.054 48.783 238.054C48.5068 238.054 48.283 238.278 48.283 238.554L49.283 238.554ZM48.283 234.444C48.283 234.72 48.5068 234.944 48.783 234.944C49.0591 234.944 49.283 234.72 49.283 234.444L48.283 234.444ZM49.283 230.333C49.283 230.057 49.0591 229.833 48.783 229.833C48.5068 229.833 48.283 230.057 48.283 230.333L49.283 230.333ZM48.283 226.223C48.283 226.499 48.5068 226.723 48.783 226.723C49.0591 226.723 49.283 226.499 49.283 226.223L48.283 226.223ZM49.283 222.113C49.283 221.837 49.0591 221.613 48.783 221.613C48.5068 221.613 48.283 221.837 48.283 222.113L49.283 222.113ZM48.283 218.003C48.283 218.279 48.5068 218.503 48.783 218.503C49.0591 218.503 49.283 218.279 49.283 218.003L48.283 218.003ZM49.283 213.892C49.283 213.616 49.0591 213.392 48.783 213.392C48.5068 213.392 48.283 213.616 48.283 213.892L49.283 213.892ZM48.283 209.782C48.283 210.058 48.5068 210.282 48.783 210.282C49.0591 210.282 49.283 210.058 49.283 209.782L48.283 209.782ZM49.283 205.672C49.283 205.396 49.0591 205.172 48.783 205.172C48.5068 205.172 48.283 205.396 48.283 205.672L49.283 205.672ZM48.283 201.561C48.283 201.838 48.5068 202.061 48.783 202.061C49.0591 202.061 49.283 201.838 49.283 201.561L48.283 201.561ZM49.283 197.451C49.283 197.175 49.0591 196.951 48.783 196.951C48.5068 196.951 48.283 197.175 48.283 197.451L49.283 197.451ZM48.283 193.341C48.283 193.617 48.5068 193.841 48.783 193.841C49.0591 193.841 49.283 193.617 49.283 193.341L48.283 193.341ZM49.283 189.231C49.283 188.955 49.0591 188.731 48.783 188.731C48.5068 188.731 48.283 188.955 48.283 189.231L49.283 189.231ZM48.283 185.12C48.283 185.397 48.5068 185.62 48.783 185.62C49.0591 185.62 49.283 185.397 49.283 185.12L48.283 185.12ZM49.283 181.01C49.283 180.734 49.0591 180.51 48.783 180.51C48.5068 180.51 48.283 180.734 48.283 181.01L49.283 181.01ZM48.283 176.9C48.283 177.176 48.5068 177.4 48.783 177.4C49.0591 177.4 49.283 177.176 49.283 176.9L48.283 176.9ZM49.283 242.664L49.283 238.554L48.283 238.554L48.283 242.664L49.283 242.664ZM49.283 234.444L49.283 230.333L48.283 230.333L48.283 234.444L49.283 234.444ZM49.283 226.223L49.283 222.113L48.283 222.113L48.283 226.223L49.283 226.223ZM49.283 218.003L49.283 213.892L48.283 213.892L48.283 218.003L49.283 218.003ZM49.283 209.782L49.283 205.672L48.283 205.672L48.283 209.782L49.283 209.782ZM49.283 201.561L49.283 197.451L48.283 197.451L48.283 201.561L49.283 201.561ZM49.283 193.341L49.283 189.231L48.283 189.231L48.283 193.341L49.283 193.341ZM49.283 185.12L49.283 181.01L48.283 181.01L48.283 185.12L49.283 185.12Z" fill="black"/>
<path d="M62.6541 183.322L59.7673 188.322L65.5408 188.322L62.6541 183.322ZM62.1541 189.102L62.1541 192.955L63.1541 192.955L63.1541 189.102L62.1541 189.102ZM62.1541 196.809L62.1541 200.662L63.1541 200.662L63.1541 196.809L62.1541 196.809ZM62.1541 204.516L62.1541 208.369L63.1541 208.369L63.1541 204.516L62.1541 204.516ZM62.1541 212.222L62.1541 216.076L63.1541 216.076L63.1541 212.222L62.1541 212.222ZM62.1541 219.929L62.1541 223.782L63.1541 223.782L63.1541 219.929L62.1541 219.929ZM62.1541 227.636L62.1541 231.489L63.1541 231.489L63.1541 227.636L62.1541 227.636ZM62.1541 235.343L62.1541 239.196L63.1541 239.196L63.1541 235.343L62.1541 235.343ZM62.1541 243.049L62.1541 244.976L63.1541 244.976L63.1541 243.049L62.1541 243.049Z" fill="black"/>
<path d="M78.0688 234.187L80.9556 229.187L75.1821 229.187L78.0688 234.187ZM77.5688 206.731C77.5688 207.008 77.7927 207.231 78.0688 207.231C78.345 207.231 78.5688 207.008 78.5688 206.731L77.5688 206.731ZM78.5688 210.392C78.5688 210.116 78.345 209.892 78.0688 209.892C77.7927 209.892 77.5688 210.116 77.5688 210.392L78.5688 210.392ZM77.5688 214.053C77.5688 214.329 77.7927 214.553 78.0688 214.553C78.345 214.553 78.5688 214.329 78.5688 214.053L77.5688 214.053ZM78.5688 217.714C78.5688 217.437 78.345 217.214 78.0688 217.214C77.7927 217.214 77.5688 217.437 77.5688 217.714L78.5688 217.714ZM77.5688 221.374C77.5688 221.65 77.7927 221.874 78.0688 221.874C78.345 221.874 78.5688 221.65 78.5688 221.374L77.5688 221.374ZM78.5688 225.035C78.5688 224.759 78.345 224.535 78.0688 224.535C77.7927 224.535 77.5688 224.759 77.5688 225.035L78.5688 225.035ZM77.5688 228.696C77.5688 228.972 77.7927 229.196 78.0688 229.196C78.345 229.196 78.5688 228.972 78.5688 228.696L77.5688 228.696ZM78.5688 232.356C78.5688 232.08 78.345 231.856 78.0688 231.856C77.7927 231.856 77.5688 232.08 77.5688 232.356L78.5688 232.356ZM77.5688 204.901L77.5688 206.731L78.5688 206.731L78.5688 204.901L77.5688 204.901ZM77.5688 210.392L77.5688 214.053L78.5688 214.053L78.5688 210.392L77.5688 210.392ZM77.5688 217.714L77.5688 221.374L78.5688 221.374L78.5688 217.714L77.5688 217.714ZM77.5688 225.035L77.5688 228.696L78.5688 228.696L78.5688 225.035L77.5688 225.035Z" fill="black"/>
<line x1="137.91" y1="175.345" x2="137.91" y2="217.502" stroke="black" stroke-linecap="round" stroke-linejoin="round" stroke-dasharray="4 4"/>
<line x1="171.59" y1="256.807" x2="171.59" y2="175.345" stroke="black" stroke-linecap="round" stroke-linejoin="round" stroke-dasharray="4 4"/>
<line x1="217.061" y1="237.54" x2="217.061" y2="175.345" stroke="black" stroke-linecap="round" stroke-linejoin="round" stroke-dasharray="4 4"/>
<path d="M244.534 198.736L247.421 193.736L241.648 193.736L244.534 198.736ZM245.034 196.809C245.034 196.533 244.811 196.309 244.534 196.309C244.258 196.309 244.034 196.533 244.034 196.809L245.034 196.809ZM244.034 192.956C244.034 193.232 244.258 193.456 244.534 193.456C244.811 193.456 245.034 193.232 245.034 192.956L244.034 192.956ZM245.034 189.102C245.034 188.826 244.811 188.602 244.534 188.602C244.258 188.602 244.034 188.826 244.034 189.102L245.034 189.102ZM244.034 185.249C244.034 185.525 244.258 185.749 244.534 185.749C244.811 185.749 245.034 185.525 245.034 185.249L244.034 185.249ZM245.034 181.395C245.034 181.119 244.811 180.895 244.534 180.895C244.258 180.895 244.034 181.119 244.034 181.395L245.034 181.395ZM244.034 177.542C244.034 177.818 244.258 178.042 244.534 178.042C244.811 178.042 245.034 177.818 245.034 177.542L244.034 177.542ZM245.034 192.956L245.034 189.102L244.034 189.102L244.034 192.956L245.034 192.956ZM245.034 185.249L245.034 181.395L244.034 181.395L244.034 185.249L245.034 185.249ZM245.034 177.542L245.034 175.615L244.034 175.615L244.034 177.542L245.034 177.542Z" fill="black"/>
<path d="M137.41 268.096L134.523 273.096H140.297L137.41 268.096ZM136.91 297.382C136.91 297.658 137.134 297.882 137.41 297.882C137.686 297.882 137.91 297.658 137.91 297.382H136.91ZM136.91 271.757C136.91 272.033 137.134 272.257 137.41 272.257C137.686 272.257 137.91 272.033 137.91 271.757H136.91ZM137.91 279.078C137.91 278.802 137.686 278.578 137.41 278.578C137.134 278.578 136.91 278.802 136.91 279.078H137.91ZM136.91 286.4C136.91 286.676 137.134 286.9 137.41 286.9C137.686 286.9 137.91 286.676 137.91 286.4H136.91ZM137.91 293.721C137.91 293.445 137.686 293.221 137.41 293.221C137.134 293.221 136.91 293.445 136.91 293.721H137.91ZM136.91 279.078V286.4H137.91V279.078H136.91ZM136.91 293.721V297.382H137.91V293.721H136.91Z" fill="black"/>
<g clip-path="url(#clip10_602_1351)">
<path d="M279.214 289.175L279.214 247.576C279.068 245.954 278.172 244.445 276.719 243.38C275.266 242.316 273.375 241.781 271.459 241.893L271.483 241.893L204.486 241.893C202.578 241.785 200.698 242.317 199.251 243.376C197.803 244.434 196.907 245.933 196.755 247.547L196.755 289.172C196.902 290.794 197.799 292.301 199.252 293.364C200.705 294.427 202.595 294.96 204.51 294.847L204.486 294.847L271.483 294.847C273.388 294.95 275.266 294.415 276.712 293.358C278.157 292.301 279.056 290.805 279.214 289.193L279.217 289.169L279.214 289.175ZM201.905 268.376C201.906 267.219 202.449 266.11 203.415 265.293C204.381 264.475 205.691 264.017 207.056 264.017C208.421 264.018 209.73 264.478 210.694 265.297C211.659 266.115 212.2 267.225 212.199 268.382C212.198 269.538 211.655 270.647 210.689 271.465C209.723 272.282 208.414 272.741 207.049 272.74C205.684 272.739 204.375 272.279 203.41 271.461C202.446 270.642 201.904 269.533 201.905 268.376L201.905 268.364L201.905 268.376ZM219.298 291.03C218.789 291.027 218.301 290.854 217.941 290.549C217.581 290.244 217.377 289.831 217.374 289.399L217.374 247.352C217.377 246.921 217.581 246.508 217.941 246.203C218.301 245.898 218.789 245.725 219.298 245.722L269.548 245.722C270.058 245.725 270.545 245.898 270.905 246.203C271.265 246.508 271.469 246.921 271.472 247.352L271.472 289.388C271.469 289.819 271.265 290.232 270.905 290.537C270.545 290.842 270.058 291.015 269.548 291.018L219.298 291.03Z" fill="black"/>
<path d="M262.632 279.173C262.588 278.73 262.632 278.283 262.763 277.858C262.894 277.432 263.109 277.038 263.395 276.697C263.681 276.356 264.033 276.076 264.429 275.873C264.825 275.67 265.258 275.549 265.701 275.516C266.145 275.483 266.591 275.539 267.013 275.681C267.434 275.823 267.823 276.049 268.157 276.344C268.49 276.638 268.761 276.997 268.953 277.398C269.145 277.8 269.255 278.235 269.276 278.68C269.328 279.553 269.035 280.413 268.458 281.071C267.882 281.73 267.07 282.136 266.197 282.201C265.325 282.266 264.461 281.985 263.794 281.418C263.127 280.852 262.709 280.046 262.631 279.174L262.632 279.173ZM254.247 279.577C254.134 278.056 254.322 276.527 254.8 275.079C255.278 273.63 256.036 272.289 257.032 271.134C258.028 269.978 259.242 269.03 260.604 268.344C261.967 267.657 263.451 267.246 264.973 267.133C266.415 267.028 267.911 267.21 269.301 267.637C269.58 267.723 269.839 267.862 270.064 268.048C270.288 268.234 270.474 268.462 270.611 268.72C270.747 268.978 270.832 269.26 270.859 269.55C270.887 269.84 270.857 270.133 270.771 270.412C270.685 270.691 270.546 270.95 270.36 271.174C270.174 271.399 269.946 271.585 269.688 271.721C269.43 271.858 269.148 271.942 268.858 271.97C268.568 271.997 268.275 271.967 267.996 271.882C267.125 271.611 266.213 271.503 265.303 271.562C263.404 271.703 261.64 272.592 260.397 274.034C259.154 275.476 258.535 277.352 258.676 279.251C258.749 280.147 258.989 281.022 259.384 281.83C259.514 282.093 259.59 282.38 259.609 282.673C259.627 282.966 259.588 283.26 259.492 283.538C259.396 283.816 259.246 284.072 259.05 284.291C258.855 284.51 258.617 284.688 258.353 284.815C258.088 284.942 257.8 285.015 257.507 285.03C257.213 285.045 256.92 285.002 256.643 284.903C256.367 284.803 256.113 284.65 255.896 284.452C255.679 284.254 255.504 284.015 255.38 283.748C254.746 282.441 254.361 281.026 254.247 279.577ZM246.252 278.683C246.077 276.32 246.368 273.945 247.111 271.695C247.853 269.444 249.032 267.362 250.579 265.567C252.126 263.772 254.011 262.299 256.127 261.233C258.244 260.167 260.549 259.528 262.913 259.352C264.822 259.222 266.74 259.388 268.599 259.845C268.882 259.914 269.149 260.038 269.384 260.211C269.619 260.383 269.818 260.6 269.97 260.849C270.121 261.098 270.222 261.374 270.267 261.662C270.312 261.95 270.299 262.244 270.23 262.528C270.161 262.811 270.037 263.078 269.865 263.313C269.693 263.548 269.476 263.748 269.227 263.899C268.978 264.051 268.701 264.151 268.413 264.196C268.125 264.241 267.831 264.228 267.548 264.159C266.14 263.812 264.688 263.684 263.241 263.78C261.097 263.938 259.022 264.603 257.184 265.718C255.347 266.834 253.8 268.369 252.67 270.198C251.541 272.027 250.86 274.098 250.686 276.24C250.511 278.383 250.846 280.536 251.664 282.524C251.785 282.795 251.852 283.088 251.858 283.385C251.864 283.682 251.811 283.978 251.701 284.254C251.591 284.53 251.427 284.781 251.218 284.993C251.009 285.204 250.76 285.372 250.485 285.485C250.21 285.599 249.916 285.656 249.618 285.653C249.321 285.65 249.027 285.588 248.755 285.47C248.482 285.351 248.236 285.179 248.031 284.964C247.826 284.749 247.666 284.495 247.561 284.217C246.833 282.453 246.391 280.585 246.252 278.683Z" fill="#82B3FC"/>
</g>
<g clip-path="url(#clip11_602_1351)">
<path d="M147.3 221.342H127.519C126.77 221.342 126.051 221.64 125.521 222.17C124.991 222.7 124.694 223.419 124.694 224.168V258.078C124.694 258.827 124.991 259.546 125.521 260.076C126.051 260.606 126.77 260.904 127.519 260.904H147.3C148.05 260.904 148.768 260.606 149.298 260.076C149.828 259.546 150.126 258.827 150.126 258.078V224.168C150.126 223.419 149.828 222.7 149.298 222.17C148.768 221.64 148.05 221.342 147.3 221.342ZM127.519 224.168H147.3V249.6H127.519V224.168ZM127.519 258.078V252.426H147.3V258.078H127.519Z" fill="black"/>
<path d="M135.997 253.839H138.823V256.665H135.997V253.839Z" fill="black"/>
<path d="M136.341 241.061C136.483 240.912 136.653 240.792 136.842 240.71C137.031 240.627 137.234 240.583 137.44 240.581C137.646 240.578 137.85 240.616 138.041 240.694C138.232 240.772 138.405 240.887 138.551 241.032C138.697 241.178 138.812 241.351 138.889 241.542C138.967 241.733 139.005 241.937 139.003 242.143C139 242.349 138.956 242.552 138.873 242.741C138.791 242.93 138.671 243.1 138.522 243.242C138.231 243.524 137.841 243.681 137.436 243.678C137.031 243.675 136.643 243.513 136.357 243.226C136.07 242.94 135.908 242.552 135.905 242.147C135.902 241.742 136.058 241.352 136.34 241.061H136.341ZM133.666 238.244C134.165 237.744 134.758 237.348 135.41 237.078C136.062 236.808 136.761 236.669 137.468 236.669C138.174 236.669 138.873 236.808 139.525 237.078C140.178 237.348 140.77 237.744 141.27 238.244C141.742 238.717 142.131 239.297 142.401 239.914C142.455 240.037 142.484 240.17 142.487 240.305C142.49 240.44 142.466 240.574 142.417 240.7C142.368 240.826 142.294 240.94 142.201 241.038C142.108 241.135 141.996 241.213 141.872 241.267C141.749 241.322 141.616 241.351 141.481 241.354C141.346 241.356 141.212 241.332 141.086 241.283C140.96 241.234 140.845 241.161 140.748 241.067C140.651 240.974 140.573 240.862 140.518 240.739C140.35 240.352 140.112 239.999 139.817 239.698C139.194 239.075 138.349 238.725 137.468 238.725C136.587 238.725 135.742 239.075 135.119 239.698C134.826 239.994 134.592 240.343 134.428 240.725C134.375 240.851 134.298 240.964 134.2 241.059C134.103 241.154 133.988 241.229 133.862 241.279C133.735 241.33 133.6 241.354 133.464 241.352C133.328 241.35 133.194 241.32 133.07 241.266C132.945 241.211 132.833 241.133 132.739 241.034C132.645 240.936 132.571 240.82 132.523 240.693C132.474 240.566 132.451 240.431 132.455 240.295C132.459 240.159 132.489 240.025 132.545 239.901C132.812 239.284 133.192 238.722 133.666 238.244ZM131.563 235.17C132.339 234.395 133.259 233.779 134.273 233.36C135.286 232.94 136.372 232.724 137.469 232.724C138.566 232.724 139.652 232.94 140.665 233.36C141.679 233.779 142.599 234.395 143.375 235.17C143.998 235.8 144.519 236.523 144.92 237.313C144.982 237.433 145.019 237.564 145.03 237.699C145.041 237.833 145.025 237.968 144.983 238.097C144.942 238.225 144.875 238.344 144.788 238.447C144.7 238.549 144.593 238.634 144.473 238.695C144.353 238.757 144.222 238.794 144.087 238.805C143.953 238.815 143.817 238.799 143.689 238.758C143.561 238.716 143.442 238.65 143.339 238.562C143.236 238.475 143.152 238.368 143.09 238.248C142.787 237.65 142.393 237.102 141.922 236.623C141.219 235.92 140.358 235.393 139.412 235.086C138.466 234.778 137.46 234.7 136.477 234.857C135.495 235.013 134.563 235.4 133.759 235.986C132.955 236.573 132.302 237.341 131.852 238.228C131.794 238.353 131.711 238.465 131.609 238.557C131.506 238.649 131.387 238.719 131.257 238.764C131.127 238.809 130.989 238.827 130.852 238.818C130.714 238.809 130.58 238.772 130.457 238.71C130.335 238.648 130.226 238.562 130.137 238.457C130.048 238.352 129.981 238.23 129.94 238.099C129.899 237.967 129.885 237.829 129.899 237.692C129.912 237.555 129.953 237.422 130.019 237.301C130.417 236.513 130.938 235.794 131.563 235.17Z" fill="#82B3FC"/>
<g clip-path="url(#clip12_602_1351)">
<path d="M158.366 240.092C158.392 240.053 158.428 240.022 158.469 240C158.511 239.978 158.557 239.967 158.604 239.967C158.65 239.967 158.696 239.978 158.738 240C158.779 240.022 158.815 240.053 158.841 240.092L161.442 243.849C161.472 243.892 161.49 243.943 161.493 243.995C161.496 244.048 161.485 244.101 161.461 244.147C161.436 244.194 161.399 244.233 161.354 244.26C161.309 244.288 161.257 244.302 161.205 244.302H156.002C155.95 244.302 155.898 244.287 155.853 244.26C155.808 244.233 155.772 244.193 155.747 244.147C155.723 244.1 155.711 244.048 155.715 243.995C155.718 243.943 155.735 243.892 155.765 243.849L158.366 240.092Z" fill="black"/>
</g>
<g clip-path="url(#clip13_602_1351)">
<path d="M158.366 233.926C158.392 233.888 158.428 233.856 158.469 233.834C158.511 233.813 158.557 233.801 158.604 233.801C158.65 233.801 158.696 233.813 158.738 233.834C158.779 233.856 158.815 233.888 158.841 233.926L161.442 237.683C161.472 237.726 161.49 237.777 161.493 237.83C161.496 237.883 161.485 237.935 161.461 237.982C161.436 238.029 161.399 238.068 161.354 238.095C161.309 238.122 161.257 238.137 161.205 238.137H156.002C155.95 238.136 155.898 238.122 155.853 238.094C155.808 238.067 155.772 238.028 155.747 237.981C155.723 237.935 155.711 237.882 155.715 237.83C155.718 237.777 155.735 237.727 155.765 237.683L158.366 233.926Z" fill="black"/>
</g>
<g clip-path="url(#clip14_602_1351)">
<path d="M158.366 227.761C158.392 227.722 158.428 227.691 158.469 227.669C158.511 227.647 158.557 227.636 158.604 227.636C158.65 227.636 158.696 227.647 158.738 227.669C158.779 227.691 158.815 227.722 158.841 227.761L161.442 231.518C161.472 231.561 161.49 231.612 161.493 231.664C161.496 231.717 161.485 231.77 161.461 231.816C161.436 231.863 161.399 231.902 161.354 231.93C161.309 231.957 161.257 231.971 161.205 231.971H156.002C155.95 231.971 155.898 231.956 155.853 231.929C155.808 231.902 155.772 231.863 155.747 231.816C155.723 231.769 155.711 231.717 155.715 231.664C155.718 231.612 155.735 231.561 155.765 231.518L158.366 227.761Z" fill="black"/>
</g>
</g>
<g clip-path="url(#clip15_602_1351)">
<path d="M191.02 270.553H153.931C152.468 270.553 151.282 269.367 151.282 267.904V262.605C151.282 261.142 152.468 259.956 153.931 259.956H191.02C192.483 259.956 193.669 261.142 193.669 262.605V267.904C193.669 269.367 192.483 270.553 191.02 270.553ZM187.046 263.268C185.949 263.268 185.059 264.157 185.059 265.255C185.059 266.352 185.949 267.241 187.046 267.241C188.143 267.241 189.033 266.352 189.033 265.255C189.033 264.157 188.143 263.268 187.046 263.268ZM181.748 263.268C180.65 263.268 179.761 264.157 179.761 265.255C179.761 266.352 180.65 267.241 181.748 267.241C182.845 267.241 183.734 266.352 183.734 265.255C183.734 264.157 182.845 263.268 181.748 263.268ZM191.02 283.799H153.931C152.468 283.799 151.282 282.613 151.282 281.15V275.851C151.282 274.388 152.468 273.202 153.931 273.202H191.02C192.483 273.202 193.669 274.388 193.669 275.851V281.15C193.669 282.613 192.483 283.799 191.02 283.799ZM187.046 276.514C185.949 276.514 185.059 277.403 185.059 278.501C185.059 279.598 185.949 280.487 187.046 280.487C188.143 280.487 189.033 279.598 189.033 278.501C189.033 277.403 188.143 276.514 187.046 276.514ZM181.748 276.514C180.65 276.514 179.761 277.403 179.761 278.501C179.761 279.598 180.65 280.487 181.748 280.487C182.845 280.487 183.734 279.598 183.734 278.501C183.734 277.403 182.845 276.514 181.748 276.514ZM191.02 297.045H153.931C152.468 297.045 151.282 295.859 151.282 294.396V289.097C151.282 287.634 152.468 286.448 153.931 286.448H191.02C192.483 286.448 193.669 287.634 193.669 289.097V294.396C193.669 295.859 192.483 297.045 191.02 297.045ZM187.046 289.76C185.949 289.76 185.059 290.649 185.059 291.747C185.059 292.844 185.949 293.733 187.046 293.733C188.143 293.733 189.033 292.844 189.033 291.747C189.033 290.649 188.143 289.76 187.046 289.76ZM181.748 289.76C180.65 289.76 179.761 290.649 179.761 291.747C179.761 292.844 180.65 293.733 181.748 293.733C182.845 293.733 183.734 292.844 183.734 291.747C183.734 290.649 182.845 289.76 181.748 289.76Z" fill="black"/>
</g>
<path d="M81.632 257.114C82.424 257.114 83.1836 257.429 83.7436 257.989C84.3037 258.549 84.6183 259.309 84.6183 260.101V304.896H12.9455V260.101C12.9455 259.309 13.2601 258.549 13.8202 257.989C14.3802 257.429 15.1398 257.114 15.9318 257.114H81.632ZM15.9318 251.142C13.5557 251.142 11.277 252.086 9.5968 253.766C7.91664 255.446 6.97274 257.725 6.97274 260.101V310.869H90.591V260.101C90.591 257.725 89.6471 255.446 87.967 253.766C86.2868 252.086 84.008 251.142 81.632 251.142H15.9318ZM1 313.855H96.5638C96.5638 316.231 95.6199 318.51 93.9397 320.19C92.2596 321.871 89.9808 322.814 87.6047 322.814H9.95911C7.583 322.814 5.30422 321.871 3.62406 320.19C1.9439 318.51 1 316.231 1 313.855H1Z" fill="black"/>
</g>
<defs>
<clipPath id="clip0_602_1351">
<rect width="17.1154" height="19.7486" fill="white" transform="translate(157.639 46.5597)"/>
</clipPath>
<clipPath id="clip1_602_1351">
<rect width="23.1006" height="23.1006" fill="white" transform="translate(167.467 29.6388) rotate(-29.1187)"/>
</clipPath>
<clipPath id="clip2_602_1351">
<rect width="26.203" height="26.203" fill="white" transform="translate(246.075 124.751)"/>
</clipPath>
<clipPath id="clip3_602_1351">
<rect width="24.6616" height="21.5789" fill="white" transform="translate(14.1011 136.311)"/>
</clipPath>
<clipPath id="clip4_602_1351">
<rect width="25.4323" height="25.4323" fill="white" transform="translate(94.2527 178.698)"/>
</clipPath>
<clipPath id="clip5_602_1351">
<rect width="25.4323" height="25.4323" fill="white" transform="translate(58.801 130.916)"/>
</clipPath>
<clipPath id="clip6_602_1351">
<rect width="25.4323" height="25.4323" fill="white" transform="translate(204.459 66.1792)"/>
</clipPath>
<clipPath id="clip7_602_1351">
<rect width="30.0564" height="20.0376" fill="white" transform="translate(231.433 197.194)"/>
</clipPath>
<clipPath id="clip8_602_1351">
<rect width="18.4962" height="18.4962" fill="white" transform="translate(41.0754 79.281)"/>
</clipPath>
<clipPath id="clip9_602_1351">
<rect width="42.3872" height="42.3872" fill="white" transform="translate(108.895 7.60803)"/>
</clipPath>
<clipPath id="clip10_602_1351">
<rect width="52.406" height="82.4623" fill="white" transform="translate(279.214 241.893) rotate(90)"/>
</clipPath>
<clipPath id="clip11_602_1351">
<rect width="50.8646" height="50.8646" fill="white" transform="translate(111.978 215.691)"/>
</clipPath>
<clipPath id="clip12_602_1351">
<rect width="6.93608" height="6.93608" fill="white" transform="matrix(1 0 0 -1 155.135 245.747)"/>
</clipPath>
<clipPath id="clip13_602_1351">
<rect width="6.93608" height="6.93608" fill="white" transform="matrix(1 0 0 -1 155.135 239.582)"/>
</clipPath>
<clipPath id="clip14_602_1351">
<rect width="6.93608" height="6.93608" fill="white" transform="matrix(1 0 0 -1 155.135 233.416)"/>
</clipPath>
<clipPath id="clip15_602_1351">
<rect width="42.3872" height="42.3872" fill="white" transform="translate(151.282 257.307)"/>
</clipPath>
</defs>
</svg>
