<svg width="411" height="411" viewBox="0 0 411 411" fill="none" xmlns="http://www.w3.org/2000/svg">
<path d="M182.513 129.607C184.102 125.458 188.243 122.87 192.679 123.255C197.114 123.641 200.777 126.908 201.671 131.273C205.185 148.448 212.319 183.317 212.319 183.317C212.28 183.74 214.93 188.322 216.393 190.685C217.612 192.656 219.768 193.853 222.08 193.844C224.391 193.835 226.525 192.62 227.707 190.639L230.62 185.762C231.881 183.65 234.197 182.398 236.661 182.496C239.126 182.595 241.348 184.028 242.461 186.235L247.242 195.724L250.133 200.053C251.158 201.588 252.965 202.408 254.787 202.166C256.61 201.923 258.13 200.662 258.702 198.916L260.688 192.856C261.759 189.589 264.857 187.428 268.298 187.549C271.74 187.669 274.703 190.042 275.578 193.378L290.659 250.889L240.244 221.795L164.015 177.937L182.513 129.607Z" fill="#1A296C" fill-opacity="0.28"/>
<path d="M193.2 123.031C194.788 118.882 198.929 116.294 203.365 116.68C207.8 117.065 211.463 120.332 212.357 124.697C215.871 141.872 223.005 176.741 223.005 176.741C222.966 177.164 225.616 181.746 227.079 184.109C228.298 186.08 230.454 187.277 232.766 187.268C235.077 187.259 237.211 186.044 238.393 184.063L241.306 179.186C242.567 177.074 244.883 175.822 247.347 175.92C249.812 176.019 252.034 177.452 253.147 179.659L257.928 189.148L260.819 193.477C261.844 195.012 263.651 195.832 265.473 195.59C267.296 195.348 268.816 194.086 269.388 192.34L271.374 186.28C272.445 183.013 275.543 180.852 278.985 180.973C282.426 181.093 285.389 183.466 286.264 186.802L301.345 244.313L250.93 215.219L174.701 171.361L193.2 123.031Z" fill="#1A296C" fill-opacity="0.28"/>
<path d="M160.562 163.943L150.538 169.556L307.072 260.177L317.344 253.98L160.562 163.943Z" stroke="black" stroke-width="2" stroke-linecap="round"/>
<path d="M311.729 257.367L328.824 266.589L178.204 353.63L106.028 312.3L123.27 301.875L156.609 321.122L209.079 291.449L120.865 241.729L69.1387 271.401L123.27 301.875" stroke="black" stroke-width="2" stroke-linecap="round"/>
<path d="M106.427 293.053L71.9434 312.3L47.4839 297.679" stroke="black" stroke-width="2" stroke-linecap="round"/>
<path d="M33.7347 277.464C45.1027 277.464 54.3288 282.723 54.3288 289.204C54.3288 295.685 45.1027 300.945 33.7347 300.945C22.3668 300.945 13.1406 295.685 13.1406 289.204C13.1406 282.723 22.3668 277.464 33.7347 277.464Z" stroke="#272727" stroke-width="2" stroke-linecap="round"/>
<path d="M51.512 234.421C51.1814 234.601 50.9737 234.946 50.9688 235.322C50.964 235.698 51.1627 236.048 51.4885 236.236L71.2292 247.651C72.5105 248.392 74.0899 248.392 75.3712 247.651L94.7162 236.465C95.1224 236.23 95.3701 235.795 95.364 235.325C95.3579 234.856 95.099 234.427 94.687 234.203L75.4183 223.716C74.0977 222.998 72.5028 222.998 71.1822 223.716L51.512 234.421Z" stroke="black" stroke-width="2" stroke-linecap="round"/>
<path d="M153.128 240.353L181.245 224.374L106.843 182.122L79.3784 197.947" stroke="black" stroke-width="2" stroke-linecap="round"/>
<path d="M114.893 269.443L132.95 298.488C134.377 300.581 136.22 300.701 137.194 300.614C138.168 300.528 139.954 299.992 140.796 297.651L144.187 288.568L157.656 296.629C159.934 297.986 163.376 297.681 165.383 295.945L165.991 295.419C167.938 293.735 167.712 291.158 165.502 289.843L151.973 281.834L163.789 277.765C166.901 276.687 167.24 275.335 167.178 274.632C167.117 273.929 166.551 272.704 163.421 272.084L120.367 264.709C117.903 264.219 116.377 264.732 115.57 265.228C114.081 266.163 113.771 267.843 114.893 269.443Z" fill="#B3B5B3"/>
<path d="M136.744 296.971L118.527 267.61L162.109 275.034C162.109 275.034 147.632 280.094 147.064 280.333C146.496 280.572 146.083 281.081 146.063 281.602C146.039 282.077 146.34 282.522 146.758 282.816L162.704 292.263C163.188 292.551 163.241 293.16 162.815 293.528L162.207 294.054C161.781 294.422 160.937 294.497 160.454 294.209L144.503 284.715C144.02 284.428 143.358 284.345 142.648 284.455C142.003 284.559 141.322 284.997 141.111 285.583C140.836 286.174 136.744 296.971 136.744 296.971Z" fill="white"/>
<path d="M122.642 140.619C122.949 141.033 123.197 141.491 123.367 141.96C123.802 143.134 123.802 144.33 123.802 145.486C123.802 147.884 123.894 149.079 125.972 150.023C126.371 150.205 126.695 150.705 126.695 151.141C126.695 151.577 126.371 151.783 125.972 151.601C124.391 150.883 123.32 149.79 122.789 148.354C122.355 147.179 122.355 145.984 122.355 144.828C122.355 142.43 122.263 141.235 120.185 140.291C119.785 140.109 119.461 139.609 119.461 139.173C119.461 138.737 119.785 138.531 120.185 138.712C122.263 139.657 122.355 138.546 122.355 136.148C122.355 134.992 122.355 133.797 122.789 133.017C123.32 132.063 124.391 131.944 125.972 132.663C126.371 132.844 126.695 133.345 126.695 133.78C126.695 134.216 126.371 134.422 125.972 134.241C123.894 133.296 123.802 134.407 123.802 136.805C123.802 137.961 123.802 139.157 123.367 139.936C123.197 140.25 122.949 140.483 122.642 140.619ZM140.439 147.919C138.361 146.974 138.269 145.78 138.269 143.381C138.269 142.226 138.269 141.03 137.835 139.856C137.303 138.419 136.233 137.327 134.652 136.608C134.252 136.427 133.929 136.633 133.929 137.068C133.929 137.504 134.252 138.005 134.652 138.186C136.73 139.131 136.822 140.326 136.822 142.724C136.822 143.88 136.822 145.075 137.256 146.249C137.427 146.718 137.674 147.177 137.982 147.591C137.674 147.726 137.427 147.959 137.256 148.273C136.822 149.053 136.822 150.248 136.822 151.404C136.822 153.802 136.73 154.913 134.652 153.969C134.252 153.787 133.929 153.993 133.929 154.429C133.929 154.865 134.252 155.365 134.652 155.547C136.233 156.266 137.303 156.146 137.835 155.193C138.269 154.413 138.269 153.218 138.269 152.062C138.269 149.663 138.361 148.553 140.439 149.497C140.838 149.679 141.162 149.473 141.162 149.037C141.162 148.601 140.838 148.1 140.439 147.919Z" fill="#323F79"/>
<path d="M62.7114 221.506C63.0466 221.977 63.3169 222.48 63.5028 222.98C63.9764 224.233 63.9764 225.428 63.9764 226.584C63.9764 228.983 64.077 230.194 66.3438 231.516C66.7796 231.771 67.1329 232.33 67.1329 232.766C67.1329 233.202 66.7796 233.349 66.3438 233.095C64.6194 232.089 63.4512 230.801 62.8718 229.268C62.3982 228.015 62.3982 226.82 62.3982 225.664C62.3982 223.265 62.2976 222.054 60.0308 220.732C59.595 220.477 59.2417 219.918 59.2417 219.482C59.2417 219.046 59.595 218.899 60.0308 219.153C62.2976 220.476 62.3982 219.382 62.3982 216.983C62.3982 215.827 62.3982 214.632 62.8718 213.932C63.4512 213.074 64.6194 213.15 66.3438 214.156C66.7796 214.41 67.1329 214.969 67.1329 215.405C67.1329 215.841 66.7796 215.988 66.3438 215.734C64.077 214.412 63.9764 215.506 63.9764 217.904C63.9764 219.06 63.9764 220.255 63.5028 220.956C63.3169 221.239 63.0466 221.427 62.7114 221.506ZM82.1262 232.042C79.8594 230.72 79.7588 229.509 79.7588 227.11C79.7588 225.954 79.7588 224.759 79.2852 223.506C78.7058 221.973 77.5376 220.685 75.8132 219.68C75.3774 219.425 75.0241 219.573 75.0241 220.008C75.0241 220.444 75.3774 221.004 75.8132 221.258C78.08 222.58 78.1806 223.791 78.1806 226.19C78.1806 227.346 78.1806 228.541 78.6542 229.794C78.8401 230.294 79.1104 230.797 79.4456 231.268C79.1104 231.347 78.8401 231.535 78.6542 231.818C78.1806 232.519 78.1806 233.714 78.1806 234.87C78.1806 237.268 78.08 238.362 75.8132 237.04C75.3774 236.786 75.0241 236.933 75.0241 237.369C75.0241 237.805 75.3774 238.364 75.8132 238.618C77.5376 239.624 78.7058 239.7 79.2852 238.843C79.7588 238.142 79.7588 236.947 79.7588 235.791C79.7588 233.392 79.8594 232.298 82.1262 233.621C82.562 233.875 82.9153 233.728 82.9153 233.292C82.9153 232.856 82.562 232.297 82.1262 232.042Z" fill="#323F79"/>
<path d="M312.37 223.36C312.566 223.632 312.723 223.923 312.832 224.214C313.108 224.941 313.108 225.639 313.108 226.313C313.108 227.712 313.167 228.418 314.489 229.174C314.743 229.319 314.949 229.643 314.949 229.897C314.949 230.151 314.743 230.24 314.489 230.094C313.483 229.519 312.802 228.777 312.464 227.886C312.187 227.159 312.187 226.461 312.187 225.787C312.187 224.388 312.129 223.682 310.807 222.926C310.552 222.781 310.346 222.457 310.346 222.203C310.346 221.949 310.552 221.86 310.807 222.006C312.129 222.761 312.187 222.122 312.187 220.723C312.187 220.049 312.187 219.352 312.464 218.94C312.802 218.436 313.483 218.472 314.489 219.047C314.743 219.192 314.949 219.516 314.949 219.77C314.949 220.024 314.743 220.112 314.489 219.967C313.167 219.212 313.108 219.851 313.108 221.25C313.108 221.924 313.108 222.621 312.832 223.033C312.723 223.2 312.566 223.311 312.37 223.36ZM323.695 229.371C322.373 228.615 322.315 227.909 322.315 226.51C322.315 225.836 322.315 225.139 322.038 224.411C321.7 223.521 321.019 222.778 320.013 222.203C319.759 222.058 319.553 222.146 319.553 222.4C319.553 222.655 319.759 222.978 320.013 223.124C321.335 223.879 321.394 224.585 321.394 225.984C321.394 226.659 321.394 227.356 321.67 228.084C321.779 228.374 321.936 228.666 322.132 228.938C321.936 228.986 321.779 229.098 321.67 229.264C321.394 229.676 321.394 230.373 321.394 231.048C321.394 232.447 321.335 233.086 320.013 232.33C319.759 232.185 319.553 232.273 319.553 232.527C319.553 232.782 319.759 233.105 320.013 233.251C321.019 233.826 321.7 233.861 322.038 233.357C322.315 232.945 322.315 232.248 322.315 231.574C322.315 230.175 322.373 229.536 323.695 230.292C323.95 230.437 324.156 230.348 324.156 230.094C324.156 229.84 323.95 229.516 323.695 229.371Z" fill="#323F79"/>
<path d="M184.714 262.342C182.887 261.291 181.937 259.19 182.353 257.124L186.003 239.001C186.159 238.231 186.674 237.582 187.389 237.256C188.103 236.929 188.931 236.966 189.615 237.353L238.189 264.901C240.093 265.98 241.131 268.123 240.799 270.286L237.929 288.985C237.802 289.811 237.276 290.521 236.523 290.883C235.77 291.245 234.886 291.213 234.162 290.796L184.714 262.342Z" stroke="black" stroke-linecap="round"/>
<path d="M190.295 231.385C188.468 230.334 187.518 228.234 187.934 226.168L191.585 208.045C191.74 207.274 192.255 206.625 192.97 206.299C193.684 205.973 194.512 206.009 195.196 206.397L243.77 233.944C245.674 235.024 246.712 237.167 246.38 239.33L243.51 258.028C243.383 258.854 242.857 259.565 242.104 259.927C241.351 260.289 240.467 260.256 239.743 259.839L190.295 231.385Z" stroke="black" stroke-linecap="round"/>
<path d="M200.565 216.473C201.072 215.215 202.33 214.423 203.653 214.528C204.976 214.633 206.046 215.611 206.279 216.927C207.197 222.106 209.061 232.622 209.061 232.622C209.046 232.75 209.803 234.127 210.222 234.837C210.571 235.43 211.206 235.786 211.897 235.777C212.589 235.768 213.236 235.396 213.605 234.794L214.513 233.313C214.907 232.672 215.609 232.288 216.345 232.311C217.081 232.335 217.734 232.762 218.049 233.426L219.406 236.28L220.237 237.58C220.531 238.041 221.065 238.284 221.612 238.207C222.158 238.129 222.623 237.744 222.807 237.215L223.448 235.379C223.793 234.389 224.736 233.728 225.764 233.756C226.792 233.784 227.66 234.493 227.895 235.498L231.959 252.833L217.112 244.174L194.661 231.121L200.565 216.473Z" fill="#16697E" fill-opacity="0.28"/>
<path d="M194.98 247.737C195.419 246.548 196.611 245.822 197.904 245.956C199.198 246.09 200.284 247.052 200.569 248.317C201.69 253.293 203.967 263.395 203.967 263.395C203.958 263.517 204.756 264.853 205.196 265.542C205.562 266.118 206.197 266.475 206.87 266.484C207.543 266.493 208.158 266.153 208.491 265.588L209.311 264.195C209.667 263.592 210.334 263.242 211.052 263.283C211.77 263.324 212.426 263.749 212.762 264.392L214.209 267.156L215.076 268.421C215.383 268.869 215.914 269.115 216.443 269.054C216.973 268.994 217.408 268.638 217.565 268.136L218.109 266.398C218.402 265.46 219.292 264.852 220.295 264.905C221.298 264.957 222.174 265.658 222.448 266.625L227.168 283.304L212.32 274.646L189.869 261.593L194.98 247.737Z" fill="black" fill-opacity="0.23"/>
<path d="M281.352 274.535C281.448 274.781 281.61 275.025 281.776 275.191C281.869 275.284 281.963 275.352 282.047 275.383C282.281 275.467 282.349 275.224 282.2 274.841L281.039 271.862L282.2 271.206C282.349 271.122 282.281 270.742 282.047 270.358C281.812 269.975 281.502 269.732 281.352 269.817L280.018 270.571C279.912 270.63 279.912 270.842 280.018 271.112L281.352 274.535Z" fill="black"/>
<path d="M286.761 280.097C286.845 280.235 286.939 280.354 287.031 280.447C287.197 280.613 287.36 280.693 287.456 280.639L288.79 279.885C288.896 279.825 288.896 279.614 288.79 279.343L287.456 275.921C287.306 275.537 286.995 275.157 286.761 275.073C286.527 274.989 286.459 275.231 286.608 275.615L287.769 278.593L286.608 279.249C286.458 279.334 286.527 279.713 286.761 280.097Z" fill="black"/>
<path d="M282.662 277.097C282.732 277.201 282.806 277.291 282.879 277.364C283.067 277.551 283.247 277.626 283.333 277.532L286.383 274.222C286.503 274.092 286.397 273.686 286.147 273.315C285.896 272.945 285.596 272.75 285.476 272.88L282.426 276.19C282.306 276.32 282.412 276.726 282.662 277.097Z" fill="black"/>
<path d="M29.8611 285.884C29.9571 286.082 30.1195 286.245 30.2855 286.328C30.3782 286.374 30.4721 286.396 30.5559 286.384C30.79 286.351 30.8585 286.075 30.7089 285.766L29.5478 283.368L30.709 282.131C30.8586 281.972 30.7901 281.627 30.556 281.36C30.3217 281.093 30.0109 281.006 29.8612 281.166L28.5269 282.587C28.4214 282.699 28.4214 282.91 28.5269 283.128L29.8611 285.884Z" fill="black"/>
<path d="M35.2703 288.741C35.3543 288.837 35.448 288.909 35.5407 288.956C35.7066 289.039 35.8691 289.038 35.9651 288.936L37.2993 287.515C37.4048 287.402 37.4048 287.191 37.2993 286.973L35.9652 284.218C35.8156 283.909 35.5044 283.685 35.2704 283.717C35.0363 283.75 34.9678 284.027 35.1174 284.335L36.2786 286.733L35.1173 287.97C34.9677 288.129 35.0362 288.475 35.2703 288.741Z" fill="black"/>
<path d="M31.1714 287.791C31.2416 287.859 31.3156 287.912 31.3886 287.949C31.576 288.042 31.756 288.027 31.8425 287.89L34.8919 283.056C35.0121 282.865 34.9064 282.512 34.6559 282.267C34.4053 282.021 34.1048 281.977 33.9848 282.167L30.9353 287.001C30.8152 287.192 30.9208 287.545 31.1714 287.791Z" fill="black"/>
<path opacity="0.78" d="M253.358 224.344L275.534 237.22V310.186L253.358 297.31V224.344Z" fill="#1A296C" fill-opacity="0.28"/>
<path opacity="0.78" d="M253.339 224.459L231.164 237.336V310.301L253.339 297.425V224.459Z" fill="#1A296C" fill-opacity="0.28"/>
<path opacity="0.78" d="M231.082 237.562L253.257 250.438V323.404L231.082 310.527V237.562Z" fill="#1A296C" fill-opacity="0.28"/>
<path opacity="0.78" d="M275.534 237.611L253.358 250.488V323.453L275.534 310.577V237.611Z" fill="#1A296C" fill-opacity="0.28"/>
<path d="M149.432 171.643L91.4806 140.736C90.7996 140.372 90.2476 140.704 90.2476 141.475V188.821C90.2476 189.593 90.7996 190.513 91.4806 190.876L149.432 221.783C150.112 222.146 150.665 221.815 150.665 221.043V173.698C150.665 172.926 150.112 172.006 149.432 171.643ZM148.199 173.78V182.531L92.7136 152.939V144.188L148.199 173.78ZM92.7136 188.738V155.734L148.199 185.326V218.331L92.7136 188.739V188.738Z" fill="black"/>
<path d="M98.545 153.071L99.2762 153.461C99.9572 153.824 100.509 153.493 100.509 152.721C100.509 151.95 99.9572 151.029 99.2762 150.666L98.545 150.276C97.8641 149.913 97.312 150.244 97.312 151.016C97.312 151.788 97.864 152.708 98.545 153.071Z" fill="black"/>
<path d="M103.901 155.928L104.631 156.317C105.312 156.68 105.864 156.349 105.864 155.577C105.864 154.806 105.312 153.886 104.631 153.522L103.901 153.133C103.221 152.77 102.668 153.101 102.668 153.873C102.668 154.645 103.221 155.565 103.901 155.928Z" fill="black"/>
<path d="M109.257 158.784L109.987 159.174C110.668 159.537 111.22 159.206 111.22 158.434C111.22 157.662 110.668 156.742 109.987 156.379L109.257 155.989C108.576 155.626 108.024 155.958 108.024 156.729C108.024 157.501 108.576 158.421 109.257 158.784Z" fill="black"/>
<path d="M103.172 166.195L98.5465 163.728C97.8656 163.365 97.3135 163.696 97.3135 164.468C97.3135 165.24 97.8656 166.16 98.5465 166.523L103.172 168.99C103.853 169.353 104.405 169.022 104.405 168.25C104.405 167.479 103.853 166.558 103.172 166.195Z" fill="black"/>
<path d="M142.367 187.099L111.205 170.48C110.524 170.116 109.972 170.448 109.972 171.219C109.972 171.991 110.524 172.911 111.205 173.274L142.367 189.894C143.048 190.257 143.6 189.926 143.6 189.154C143.6 188.382 143.048 187.462 142.367 187.099Z" fill="black"/>
<path d="M103.172 172.955L98.5465 170.488C97.8656 170.125 97.3135 170.456 97.3135 171.228C97.3135 172 97.8656 172.92 98.5465 173.283L103.172 175.75C103.853 176.113 104.405 175.782 104.405 175.01C104.405 174.239 103.853 173.318 103.172 172.955Z" fill="black"/>
<path d="M142.367 193.859L133.237 188.99C132.557 188.627 132.004 188.958 132.004 189.73C132.004 190.502 132.557 191.422 133.237 191.785L142.367 196.654C143.048 197.017 143.6 196.686 143.6 195.914C143.6 195.142 143.048 194.222 142.367 193.859Z" fill="black"/>
<path d="M129.342 189.707C130.023 190.071 130.575 189.739 130.575 188.968C130.575 188.196 130.023 187.276 129.342 186.913L121.186 182.563C120.505 182.2 119.953 182.531 119.953 183.303C119.953 184.074 120.505 184.994 121.186 185.358L129.342 189.707Z" fill="black"/>
<path d="M111.205 180.034L115.952 182.566C116.633 182.929 117.185 182.598 117.185 181.827C117.185 181.055 116.633 180.135 115.952 179.772L111.205 177.24C110.524 176.877 109.972 177.208 109.972 177.979C109.972 178.751 110.524 179.671 111.205 180.034Z" fill="black"/>
<path d="M103.172 179.715L98.5465 177.248C97.8656 176.885 97.3135 177.216 97.3135 177.988C97.3135 178.759 97.8656 179.68 98.5465 180.043L103.172 182.51C103.853 182.873 104.405 182.542 104.405 181.77C104.405 180.998 103.853 180.078 103.172 179.715Z" fill="black"/>
<path d="M142.367 200.619L111.205 183.999C110.524 183.636 109.972 183.968 109.972 184.739C109.972 185.511 110.524 186.431 111.205 186.794L142.367 203.414C143.048 203.777 143.6 203.446 143.6 202.674C143.6 201.902 143.048 200.982 142.367 200.619Z" fill="black"/>
<path d="M103.172 186.475L98.5465 184.008C97.8656 183.645 97.3135 183.976 97.3135 184.748C97.3135 185.52 97.8656 186.44 98.5465 186.803L103.172 189.27C103.853 189.633 104.405 189.302 104.405 188.53C104.405 187.759 103.853 186.838 103.172 186.475Z" fill="black"/>
<path d="M142.367 207.379L133.237 202.51C132.557 202.147 132.004 202.478 132.004 203.25C132.004 204.022 132.557 204.942 133.237 205.305L142.367 210.174C143.048 210.537 143.6 210.206 143.6 209.434C143.6 208.662 143.048 207.742 142.367 207.379Z" fill="black"/>
<path d="M129.342 200.433L121.186 196.083C120.505 195.72 119.953 196.051 119.953 196.823C119.953 197.594 120.505 198.515 121.186 198.878L129.342 203.228C130.023 203.591 130.575 203.259 130.575 202.488C130.575 201.716 130.023 200.796 129.342 200.433Z" fill="black"/>
<path d="M115.952 193.291L111.205 190.76C110.524 190.396 109.972 190.728 109.972 191.499C109.972 192.271 110.524 193.191 111.205 193.554L115.952 196.086C116.633 196.449 117.185 196.118 117.185 195.346C117.185 194.575 116.633 193.655 115.952 193.291Z" fill="black"/>
</svg>
