<svg width="1441" height="873" viewBox="0 0 1441 873" fill="none" xmlns="http://www.w3.org/2000/svg">
<g opacity="0.02">
<path d="M172.567 737.308L121.886 773.845L178.798 748.518L172.567 737.308Z" fill="#030303"/>
<path d="M159.689 237.83L132.687 180.533L164.258 228.28H261.466L294.699 184.685L266.866 237.83H159.689Z" fill="black"/>
<path d="M191.26 669.216L164.674 611.089L195.83 659.251H292.622L327.517 611.089L300.099 669.216H191.26Z" fill="black"/>
<path d="M123.548 716.548L110.67 703.677L123.548 690.806L136.426 703.677L123.548 716.548Z" fill="black"/>
<path d="M1179.95 675.859L1145.47 727.551L1173.72 666.725H1276.74H1279.23L1309.97 726.097L1276.74 675.859H1179.95Z" fill="black"/>
<path d="M1322.44 642.644L1344.45 620.638L1366.47 642.644L1344.45 664.649L1322.44 642.644Z" fill="black"/>
<path d="M1247.66 235.754L1277.99 293.466L1242.26 246.134H1145.05L1113.9 290.975L1139.24 235.754H1247.66Z" fill="black"/>
<path d="M1269.68 164.341L1319.94 127.804L1261.37 153.13L1269.68 164.341Z" fill="black"/>
<path d="M1299.17 596.972L1354.42 558.359L1292.11 586.592L1299.17 596.972Z" fill="black"/>
<path d="M142.241 306.337L92.3914 342.459L148.057 316.717L142.241 306.337Z" fill="black"/>
<path d="M121.886 773.845L121.009 772.628L122.496 775.215L121.886 773.845ZM172.567 737.308L173.878 736.579L173.058 735.104L171.689 736.091L172.567 737.308ZM178.798 748.518L179.408 749.888L180.905 749.222L180.109 747.789L178.798 748.518ZM132.687 77.9804H134.187V77.1165L133.44 76.683L132.687 77.9804ZM132.687 180.533H131.187V180.869L131.33 181.173L132.687 180.533ZM266.866 237.83V239.33H267.774L268.195 238.526L266.866 237.83ZM72.8669 457.467H71.3669V458.329L72.1111 458.763L72.8669 457.467ZM164.674 511.027H166.174V510.166L165.43 509.732L164.674 511.027ZM164.674 611.089H163.174V611.416L163.31 611.713L164.674 611.089ZM300.099 669.216V670.716H301.05L301.456 669.856L300.099 669.216ZM395.645 470.753L395.035 469.383L394.074 469.811L394.149 470.86L395.645 470.753ZM110.67 703.677L109.609 702.616L108.548 703.677L109.609 704.738L110.67 703.677ZM123.548 716.548L122.487 717.609L123.548 718.669L124.608 717.609L123.548 716.548ZM136.426 703.677L137.486 704.738L138.547 703.677L137.486 702.616L136.426 703.677ZM123.548 690.806L124.608 689.745L123.548 688.685L122.487 689.745L123.548 690.806ZM164.258 228.28L163.007 229.108L163.452 229.78H164.258V228.28ZM261.466 228.28V229.78H262.208L262.659 229.19L261.466 228.28ZM195.83 659.251L194.571 660.066L195.014 660.751H195.83V659.251ZM292.622 659.251V660.751H293.387L293.837 660.131L292.622 659.251ZM498.253 600.294L497.884 601.748L498.992 602.029L499.557 601.034L498.253 600.294ZM1119.3 599.463L1120.6 600.211L1121.03 599.459L1120.6 598.708L1119.3 599.463ZM1067.79 511.027L1069.08 510.272L1068.65 509.527H1067.79V511.027ZM1309.97 726.097H1311.47V725.732L1311.31 725.408L1309.97 726.097ZM1309.97 828.235H1308.47V829.075L1309.19 829.514L1309.97 828.235ZM1179.95 675.859V674.359H1179.15L1178.7 675.027L1179.95 675.859ZM1322.44 642.644L1321.38 641.583L1320.32 642.644L1321.38 643.705L1322.44 642.644ZM1344.45 664.649L1343.39 665.71L1344.45 666.77L1345.51 665.71L1344.45 664.649ZM1366.47 642.644L1367.53 643.704L1368.59 642.644L1367.53 641.583L1366.47 642.644ZM1277.99 395.603H1276.49V396.466L1277.23 396.9L1277.99 395.603ZM1277.99 293.466H1279.49V293.096L1279.32 292.768L1277.99 293.466ZM1139.24 235.754V234.254H1138.28L1137.88 235.128L1139.24 235.754ZM1113.9 290.975L1112.54 290.349L1115.13 291.831L1113.9 290.975ZM1084.82 168.077L1086.12 168.818L1086.55 168.076L1086.12 167.334L1084.82 168.077ZM1319.94 127.804L1320.83 129.017L1319.35 126.427L1319.94 127.804ZM1269.68 164.341L1268.47 165.234L1269.36 166.428L1270.56 165.554L1269.68 164.341ZM1261.37 153.13L1260.78 151.754L1259.04 152.504L1260.17 154.024L1261.37 153.13ZM1354.42 558.359L1355.28 559.589L1353.81 556.993L1354.42 558.359ZM1299.17 596.972L1297.93 597.816L1298.79 599.072L1300.03 598.202L1299.17 596.972ZM1292.11 586.592L1291.49 585.226L1289.87 585.962L1290.87 587.436L1292.11 586.592ZM362.412 38.537L361.815 37.1607L360.841 37.5827L360.915 38.6417L362.412 38.537ZM619.554 257.344V258.844H620.406L620.842 258.113L619.554 257.344ZM1145.05 246.134V244.634H1144.27L1143.82 245.278L1145.05 246.134ZM1242.26 246.134L1243.46 245.23L1243.01 244.634H1242.26V246.134ZM1173.72 666.725V665.225H1172.76L1172.36 666.093L1173.72 666.725ZM1279.23 666.725L1280.57 666.035L1280.15 665.225H1279.23V666.725ZM92.3914 342.459L91.5113 341.244L93.021 343.82L92.3914 342.459ZM142.241 306.337L143.55 305.604L142.726 304.133L141.361 305.122L142.241 306.337ZM148.057 316.717L148.687 318.078L150.158 317.398L149.366 315.983L148.057 316.717ZM122.763 775.061L173.444 738.524L171.689 736.091L121.009 772.628L122.763 775.061ZM171.256 738.036L177.487 749.247L180.109 747.789L173.878 736.579L171.256 738.036ZM178.188 747.147L121.276 772.474L122.496 775.215L179.408 749.888L178.188 747.147ZM59.6517 37.3433L131.934 79.2779L133.44 76.683L61.1572 34.7484L59.6517 37.3433ZM131.187 77.9804V180.533H134.187V77.9804H131.187ZM133.357 181.875L196.501 150.32L195.159 147.637L132.016 179.191L133.357 181.875ZM131.33 181.173L158.332 238.469L161.046 237.19L134.044 179.894L131.33 181.173ZM158.189 237.83V282.671H161.189V237.83H158.189ZM159.689 239.33H266.866V236.33H159.689V239.33ZM268.195 238.526L296.028 185.381L293.37 183.989L265.537 237.134L268.195 238.526ZM295.43 183.375L231.456 147.669L229.994 150.288L293.968 185.995L295.43 183.375ZM295.409 186.006L350.244 156.528L348.824 153.885L293.989 183.364L295.409 186.006ZM6.88012 310.948L55.0683 339.596L56.6014 337.017L8.41318 308.369L6.88012 310.948ZM0.245195 323.41L48.018 351.228L49.5276 348.636L1.7548 320.818L0.245195 323.41ZM71.3669 376.505V457.467H74.3669V376.505H71.3669ZM72.1111 458.763L163.918 512.323L165.43 509.732L73.6228 456.172L72.1111 458.763ZM163.174 511.027V611.089H166.174V511.027H163.174ZM165.305 612.449L229.695 582.555L228.432 579.834L164.042 609.728L165.305 612.449ZM163.31 611.713L189.896 669.84L192.624 668.592L166.038 610.465L163.31 611.713ZM191.26 670.716H300.099V667.716H191.26V670.716ZM301.456 669.856L328.873 611.729L326.16 610.449L298.743 668.576L301.456 669.856ZM328.199 609.753L269.625 579.859L268.261 582.531L326.835 612.425L328.199 609.753ZM328.162 612.443L382.166 586.701L380.875 583.993L326.871 609.735L328.162 612.443ZM402.957 552.025L397.141 470.647L394.149 470.86L399.965 552.238L402.957 552.025ZM396.255 472.124L468.122 440.154L466.902 437.413L395.035 469.383L396.255 472.124ZM473.115 451.538L419.111 476.45L420.367 479.174L474.371 454.262L473.115 451.538ZM189.76 669.216V717.794H192.76V669.216H189.76ZM35.966 742.338L83.3234 770.156L84.8429 767.569L37.4855 739.751L35.966 742.338ZM30.1559 753.967L75.8516 780.539L77.3597 777.946L31.664 751.373L30.1559 753.967ZM101.692 809.136V868.509H104.692V809.136H101.692ZM112.094 763.52L124.972 724.492L122.123 723.551L109.245 762.58L112.094 763.52ZM109.609 704.738L122.487 717.609L124.608 715.487L111.73 702.616L109.609 704.738ZM124.608 717.609L137.486 704.738L135.365 702.616L122.487 715.487L124.608 717.609ZM137.486 702.616L124.608 689.745L122.487 691.867L135.365 704.738L137.486 702.616ZM122.487 689.745L109.609 702.616L111.73 704.738L124.608 691.867L122.487 689.745ZM131.436 181.361L163.007 229.108L165.51 227.453L133.938 179.706L131.436 181.361ZM164.258 229.78H261.466V226.78H164.258V229.78ZM262.659 229.19L295.892 185.595L293.506 183.776L260.273 227.371L262.659 229.19ZM524.37 520.658L494.46 572.557L497.06 574.055L526.97 522.156L524.37 520.658ZM163.414 611.904L194.571 660.066L197.089 658.437L165.933 610.274L163.414 611.904ZM195.83 660.751H292.622V657.751H195.83V660.751ZM293.837 660.131L328.731 611.969L326.302 610.209L291.407 658.371L293.837 660.131ZM572.197 675.698H631.601V672.698H572.197V675.698ZM935.755 588.973L964.834 535.828L962.202 534.388L933.123 587.533L935.755 588.973ZM1062.33 535.86L1093.08 589.004L1095.67 587.502L1064.93 534.357L1062.33 535.86ZM419.37 581.818L497.884 601.748L498.622 598.84L420.108 578.911L419.37 581.818ZM499.557 601.034L550.238 511.768L547.629 510.287L496.948 599.553L499.557 601.034ZM550.127 510.119L504.016 449.501L501.628 451.317L547.739 511.935L550.127 510.119ZM548.933 512.527H652.372V509.527H548.933V512.527ZM653.668 511.782L693.548 443.275L690.955 441.766L651.075 510.273L653.668 511.782ZM651.072 511.775L690.951 581.112L693.552 579.617L653.672 510.279L651.072 511.775ZM538.203 668.083L500.4 598.745L497.766 600.181L535.569 669.519L538.203 668.083ZM565.135 691.476H652.787V688.476H565.135V691.476ZM654.075 690.745L693.539 624.73L690.964 623.19L651.5 689.206L654.075 690.745ZM651.486 690.721L690.95 759.643L693.553 758.152L654.089 689.23L651.486 690.721ZM741.686 781.573H790.705V778.573H741.686V781.573ZM828.093 781.573H881.266V778.573H828.093V781.573ZM922.865 762.961L963.991 690.718L961.384 689.234L920.258 761.477L922.865 762.961ZM963.993 689.236L926.605 623.221L923.995 624.699L961.382 690.715L963.993 689.236ZM937.285 700.452L908.622 751.52L911.238 752.989L939.901 701.92L937.285 700.452ZM962.687 691.476H1047.02V688.476H962.687V691.476ZM1080.72 669.549L1120.6 600.211L1118 598.716L1078.12 668.053L1080.72 669.549ZM1120.6 598.708L1069.08 510.272L1066.49 511.782L1118 600.218L1120.6 598.708ZM1067.79 509.527H962.687V512.527H1067.79V509.527ZM961.403 510.252L920.277 578.343L922.845 579.894L963.971 511.803L961.403 510.252ZM963.984 510.274L926.597 445.919L924.003 447.426L961.39 511.781L963.984 510.274ZM872.958 419.845H824.354V422.845H872.958V419.845ZM786.551 419.845H732.132V422.845H786.551V419.845ZM707.149 445.931L677.654 497.83L680.263 499.313L709.757 447.413L707.149 445.931ZM729.224 603.039H779.074V600.039H729.224V603.039ZM828.093 600.963H886.666V597.963H828.093V600.963ZM1243.75 760.245L1310.64 727.444L1309.31 724.751L1242.43 757.551L1243.75 760.245ZM1308.47 726.097V828.235H1311.47V726.097H1308.47ZM1309.19 829.514L1378.98 872.279L1380.55 869.721L1310.76 826.956L1309.19 829.514ZM1078.78 697.559L1144.83 728.906L1146.11 726.196L1080.06 694.848L1078.78 697.559ZM1144.83 728.906L1210.88 760.253L1212.16 757.543L1146.11 726.196L1144.83 728.906ZM1146.72 728.383L1181.2 676.691L1178.7 675.027L1144.22 726.718L1146.72 728.383ZM1179.95 677.359H1276.74V674.359H1179.95V677.359ZM1275.49 676.687L1308.72 726.925L1311.23 725.27L1277.99 675.031L1275.49 676.687ZM1278.24 675.859V666.725H1275.24V675.859H1278.24ZM1278.24 666.725V623.96H1275.24V666.725H1278.24ZM1367.14 532.202V472.829H1364.14V532.202H1367.14ZM1355.47 575.396L1343.01 620.237L1345.9 621.04L1358.36 576.199L1355.47 575.396ZM1343.39 619.577L1321.38 641.583L1323.5 643.705L1345.51 621.699L1343.39 619.577ZM1321.38 643.705L1343.39 665.71L1345.51 663.588L1323.5 641.583L1321.38 643.705ZM1345.51 665.71L1367.53 643.704L1365.41 641.583L1343.39 663.588L1345.51 665.71ZM1367.53 641.583L1345.51 619.577L1343.39 621.699L1365.41 643.704L1367.53 641.583ZM1349.36 435.411L1278.74 394.307L1277.23 396.9L1347.85 438.004L1349.36 435.411ZM1279.49 395.603V293.466H1276.49V395.603H1279.49ZM1277.34 292.114L1212.53 323.253L1213.83 325.957L1278.64 294.818L1277.34 292.114ZM1279.32 292.768L1248.99 235.056L1246.33 236.452L1276.66 294.164L1279.32 292.768ZM1247.66 234.254H1139.24V237.254H1247.66V234.254ZM1137.88 235.128L1112.54 290.349L1115.26 291.6L1140.6 236.38L1137.88 235.128ZM1249.16 235.754V193.404H1246.16V235.754H1249.16ZM1177.28 323.255L1048.5 260.976L1047.19 263.677L1175.97 325.956L1177.28 323.255ZM1045.83 239.816L1086.12 168.818L1083.52 167.337L1043.22 238.335L1045.83 239.816ZM1086.12 167.334L1035.44 78.4828L1032.84 79.9692L1083.52 168.821L1086.12 167.334ZM1034.14 77.726H929.454V80.726H1034.14V77.726ZM928.147 78.4899L889.098 147.827L891.712 149.299L930.761 79.9621L928.147 78.4899ZM930.763 78.4933L891.714 8.74075L889.096 10.2062L928.145 79.9587L930.763 78.4933ZM1035.43 79.9843L1079.47 4.8343L1076.88 3.31764L1032.84 78.4677L1035.43 79.9843ZM909.148 66.8438L878.822 14.9446L876.232 16.4581L906.557 68.3573L909.148 66.8438ZM1016.69 256.259H929.454V259.259H1016.69V256.259ZM930.755 257.013L891.706 188.921L889.104 190.414L928.153 258.505L930.755 257.013ZM928.138 257.04L889.089 328.453L891.721 329.892L930.77 258.479L928.138 257.04ZM878.825 319.96L909.15 267.646L906.555 266.141L876.229 318.456L878.825 319.96ZM1324.74 142.327L1312.27 184.677L1315.15 185.524L1327.62 143.174L1324.74 142.327ZM1352.43 136.99L1401.86 165.638L1403.36 163.043L1353.93 134.394L1352.43 136.99ZM1359.89 125.774L1408.5 154.423L1410.02 151.838L1361.42 123.19L1359.89 125.774ZM1336.4 97.9097V38.1218H1333.4V97.9097H1336.4ZM1319.06 126.59L1268.8 163.127L1270.56 165.554L1320.83 129.017L1319.06 126.59ZM1270.88 163.448L1262.58 152.237L1260.17 154.024L1268.47 165.234L1270.88 163.448ZM1261.97 154.507L1320.54 129.18L1319.35 126.427L1260.78 151.754L1261.97 154.507ZM1353.57 557.13L1298.31 595.743L1300.03 598.202L1355.28 559.589L1353.57 557.13ZM1300.41 596.129L1293.35 585.749L1290.87 587.436L1297.93 597.816L1300.41 596.129ZM1292.73 587.959L1355.04 559.726L1353.81 556.993L1291.49 585.226L1292.73 587.959ZM1381.92 569.622L1431.36 598.27L1432.86 595.674L1383.42 567.026L1381.92 569.622ZM1389.39 558.825L1439.24 587.888L1440.76 585.297L1390.91 556.233L1389.39 558.825ZM369.683 117.06C369.699 117.126 369.695 117.133 369.676 116.972C369.661 116.85 369.642 116.678 369.62 116.453C369.575 116.005 369.518 115.376 369.451 114.581C369.315 112.993 369.137 110.764 368.927 108.042C368.507 102.598 367.96 95.195 367.366 87.0267C366.179 70.6907 364.808 51.3026 363.908 38.4324L360.915 38.6417C361.815 51.5134 363.186 70.9044 364.374 87.2442C364.968 95.4137 365.516 102.822 365.936 108.273C366.146 110.997 366.325 113.236 366.461 114.836C366.53 115.635 366.588 116.281 366.635 116.75C366.658 116.984 366.679 117.181 366.698 117.335C366.712 117.45 366.735 117.639 366.772 117.788L369.683 117.06ZM363.008 39.9134L447.337 3.37637L446.145 0.623633L361.815 37.1607L363.008 39.9134ZM466.342 17.8863L515.361 78.9197L517.7 77.0411L468.681 16.0077L466.342 17.8863ZM515.235 77.2254L463.723 165.662L466.316 167.172L517.827 78.7354L515.235 77.2254ZM465.383 164.961L385.623 145.032L384.896 147.943L464.656 167.872L465.383 164.961ZM463.718 167.163L504.429 238.161L507.031 236.669L466.321 165.67L463.718 167.163ZM516.531 79.4804H619.554V76.4804H516.531V79.4804ZM620.842 78.749L661.968 9.82691L659.392 8.28967L618.266 77.2118L620.842 78.749ZM618.256 78.7323L659.382 149.73L661.978 148.227L620.852 77.2286L618.256 78.7323ZM649.1 155.7L618.775 103.385L616.179 104.89L646.505 157.204L649.1 155.7ZM518.15 103.37L486.994 155.684L489.571 157.22L520.728 104.905L518.15 103.37ZM531.486 258.844H619.554V255.844H531.486V258.844ZM620.842 258.113L661.968 189.19L659.392 187.653L618.266 256.575L620.842 258.113ZM598.783 241.312H538.548V244.312H598.783V241.312ZM695.575 169.577H750.41V166.577H695.575V169.577ZM791.952 169.577H859.249V166.577H791.952V169.577ZM1029.52 104.89L1059.84 157.204L1062.44 155.7L1032.11 103.385L1029.52 104.89ZM1115.13 291.831L1146.29 246.99L1143.82 245.278L1112.67 290.119L1115.13 291.831ZM1145.05 247.634H1242.26V244.634H1145.05V247.634ZM1241.06 247.037L1276.79 294.37L1279.19 292.562L1243.46 245.23L1241.06 247.037ZM1146.83 728.182L1175.08 667.357L1172.36 666.093L1144.11 726.919L1146.83 728.182ZM1173.72 668.225H1276.74V665.225H1173.72V668.225ZM1276.74 668.225H1279.23V665.225H1276.74V668.225ZM1277.9 667.414L1308.64 726.787L1311.31 725.408L1280.57 666.035L1277.9 667.414ZM93.2716 343.673L143.121 307.551L141.361 305.122L91.5113 341.244L93.2716 343.673ZM140.933 307.07L146.749 317.45L149.366 315.983L143.55 305.604L140.933 307.07ZM147.428 315.355L91.7619 341.097L93.021 343.82L148.687 318.078L147.428 315.355ZM80.9631 332.465L93.0101 287.209L90.1111 286.437L78.064 331.693L80.9631 332.465Z" fill="black"/>
</g>
</svg>
