<svg width="313" height="166" viewBox="0 0 313 166" fill="none" xmlns="http://www.w3.org/2000/svg">
<g clip-path="url(#clip0_458_1080)">
<path opacity="0.1" d="M289.002 131.265C288.653 132.013 288.305 132.752 287.959 133.481C287.418 134.614 286.884 135.724 286.357 136.812C286.122 137.294 285.888 137.768 285.659 138.241C283.074 143.504 280.661 148.159 278.611 151.987C276.751 155.456 273.989 158.362 270.614 160.402C267.24 162.441 263.377 163.539 259.431 163.58L213.848 164.074H213.367L209.459 164.116L206.117 164.152L195.867 164.263H195.452L190.234 164.32H190.075L157.913 164.667L129.204 164.967L125.865 165.003L105.125 165.227H105.101L91.6499 165.371H91.5056L48.9736 165.829L36.25 165.967C33.5348 165.998 30.831 165.612 28.2335 164.823C23.7135 163.462 19.6512 160.899 16.4839 157.409C11.0193 151.409 7.03664 144.409 4.36148 136.812C3.97473 135.716 3.61404 134.606 3.27939 133.481C-5.98148 102.283 5.30831 62.0332 25.6275 35.098C26.4792 33.9717 27.3448 32.8733 28.2245 31.8029L28.2456 31.779C34.4946 24.1345 41.5012 17.7482 48.9646 13.2071C62.1901 5.14626 76.8434 2.87569 91.2562 9.64246C103.451 15.3698 114.837 18.0627 125.874 18.7936C126.989 18.8655 128.104 18.9194 129.213 18.9524C154.531 19.7462 178.259 10.6549 206.123 4.7868C207.232 4.55316 208.344 4.3225 209.465 4.10384C229.343 0.161796 251.393 -1.91706 277.616 2.45333C280.34 2.89686 283.028 3.53759 285.659 4.37043C286.816 4.74187 287.93 5.14127 289.002 5.56862C301.518 10.6429 308.344 20.0188 311.245 31.767C311.519 32.8574 311.757 33.9667 311.957 35.095C317.1 63.3542 302.038 103.44 289.002 131.265Z" fill="#7366D9"/>
<g opacity="0.1">
<path opacity="0.1" d="M48.9645 13.207V165.862L36.241 166C33.5257 166.031 30.8219 165.645 28.2245 164.856V31.7789H28.2455C34.4946 24.1255 41.5011 17.7392 48.9645 13.207Z" fill="#7366D9"/>
<path opacity="0.1" d="M311.972 35.0979H25.6274C26.4791 33.9716 27.3448 32.8733 28.2245 31.8029V31.7789H311.26C311.534 32.8633 311.772 33.9696 311.972 35.0979Z" fill="#7366D9"/>
<path opacity="0.1" d="M289.002 5.57162V133.478H287.959C287.418 134.611 286.884 135.721 286.357 136.809C286.122 137.291 285.888 137.765 285.659 138.238V4.36145C286.815 4.73289 287.93 5.13628 289.002 5.57162Z" fill="#7366D9"/>
<path opacity="0.1" d="M209.465 4.09485V164.128L206.123 164.164V4.77782C207.232 4.54417 208.344 4.31352 209.465 4.09485Z" fill="#7366D9"/>
<path opacity="0.1" d="M129.213 18.9434V164.997L125.874 165.033V18.7847C126.989 18.8566 128.104 18.8985 129.213 18.9434Z" fill="#7366D9"/>
<path opacity="0.1" d="M287.959 133.481C287.418 134.613 286.884 135.724 286.357 136.812H4.36138C3.97464 135.716 3.61394 134.606 3.2793 133.481H287.959Z" fill="#7366D9"/>
</g>
<path d="M69.3138 79.6287H63.6028V96.9005H69.3138V79.6287Z" fill="#3F3D56"/>
<path d="M223.009 78.73H217.298V97.0024H223.009V78.73Z" fill="#3F3D56"/>
<path d="M259.431 159.853V163.747L213.767 164.167L213.28 164.176L195.924 164.334L195.509 164.34L190.234 164.385H190.078L157.922 164.682L105.137 165.17H105.092L91.671 165.296L91.5267 165.299L31.8916 165.844V161.351L45.9137 152.964L74.048 152.73L74.6491 152.727L74.8475 152.724L75.4487 152.715L88.9567 152.604L89.5609 152.601L89.7533 152.598L90.3544 152.595L94.6858 152.559L94.8 152.556L105.486 152.466H105.573L188.954 151.765L190.995 151.751H191.199L192.756 151.736L204.073 151.643L204.674 151.634L205.23 151.628H205.519L209.038 151.601L209.736 151.592L210.671 151.586L213.601 151.559L218.251 151.52L218.852 151.514L219.898 151.508H220.094L242.55 151.316L259.431 159.853Z" fill="#65617D"/>
<path opacity="0.2" d="M259.431 159.853V163.747L213.767 164.167L213.28 164.176L195.924 164.334L195.509 164.34L190.234 164.385H190.078L157.922 164.682L105.137 165.17H105.092L91.671 165.296L91.5267 165.299L31.8916 165.844V161.351L45.9137 152.964L74.048 152.73L74.6491 152.727L74.8475 152.724L75.4487 152.715L88.9567 152.604L89.5609 152.601L89.7533 152.598L90.3544 152.595L94.6858 152.559L94.8 152.556L105.486 152.466H105.573L188.954 151.765L190.995 151.751H191.199L192.756 151.736L204.073 151.643L204.674 151.634L205.23 151.628H205.519L209.038 151.601L209.736 151.592L210.671 151.586L213.601 151.559L218.251 151.52L218.852 151.514L219.898 151.508H220.094L242.55 151.316L259.431 159.853Z" fill="black"/>
<path d="M89.0017 144.879V152.215C89.0019 152.562 88.9031 152.903 88.7169 153.196C88.5307 153.49 88.2646 153.725 87.9497 153.874C87.7152 153.988 87.4588 154.049 87.1982 154.054L76.708 154.276C76.4278 154.282 76.15 154.224 75.8964 154.105C75.5759 153.959 75.3044 153.723 75.1142 153.428C74.9239 153.132 74.823 152.788 74.8234 152.436V144.879H89.0017Z" fill="#3F3D56"/>
<path opacity="0.1" d="M89.0017 144.879V152.215C89.0019 152.562 88.9031 152.903 88.7169 153.196C88.5307 153.49 88.2646 153.725 87.9497 153.874C87.7152 153.988 87.4588 154.049 87.1982 154.054L76.708 154.276C76.4278 154.282 76.15 154.224 75.8964 154.105C75.5759 153.959 75.3044 153.723 75.1142 153.428C74.9239 153.132 74.823 152.788 74.8234 152.436V144.879H89.0017Z" fill="black"/>
<path d="M89.6029 144.879V152.215C89.6031 152.562 89.5043 152.903 89.3181 153.196C89.1319 153.49 88.8658 153.725 88.5509 153.874C88.3164 153.988 88.06 154.049 87.7994 154.054L77.3092 154.276C77.029 154.282 76.7512 154.224 76.4976 154.105C76.1771 153.959 75.9056 153.723 75.7154 153.428C75.5251 153.132 75.4242 152.788 75.4246 152.436V144.879H89.6029Z" fill="#3F3D56"/>
<path d="M218.852 144.879H204.674V154.315H218.852V144.879Z" fill="#3F3D56"/>
<path opacity="0.1" d="M218.852 144.879H204.674V154.315H218.852V144.879Z" fill="black"/>
<path d="M218.251 144.879H204.073V154.315H218.251V144.879Z" fill="#3F3D56"/>
<path opacity="0.1" d="M69.3138 79.6256V81.342L63.6028 81.1952V79.6256H69.3138Z" fill="black"/>
<path d="M106.904 31.2728L100.042 80.3985C99.9986 80.7123 99.8406 80.9991 99.5983 81.2041C99.356 81.4091 99.0463 81.5179 98.7286 81.5098L43.7825 80.0899L42.7395 80.063C42.5579 80.0587 42.3793 80.0163 42.2152 79.9386C42.0512 79.8609 41.9054 79.7495 41.7874 79.6119C41.6694 79.4742 41.5819 79.3134 41.5305 79.1397C41.4791 78.9661 41.465 78.7836 41.4891 78.6042L49.193 27.178C49.2426 26.8594 49.4104 26.571 49.663 26.3697C49.9157 26.1684 50.2349 26.0688 50.5576 26.0906L105.702 29.811C105.88 29.8212 106.054 29.8682 106.213 29.9488C106.371 30.0294 106.512 30.1419 106.625 30.2792C106.738 30.4166 106.821 30.5758 106.869 30.7468C106.917 30.9178 106.929 31.0969 106.904 31.2728Z" fill="#65617D"/>
<path d="M52.881 29.7031L47.0708 75.0336L97.5682 76.6302L103.778 32.8963L52.881 29.7031Z" fill="#496EA6"/>
<path d="M175.521 29.0022H117.205C116.32 29.0022 115.603 29.717 115.603 30.5988V79.3261C115.603 80.2079 116.32 80.9227 117.205 80.9227H175.521C176.406 80.9227 177.123 80.2079 177.123 79.3261V30.5988C177.123 29.717 176.406 29.0022 175.521 29.0022Z" fill="#65617D"/>
<path d="M174.415 32.4978H118.507V75.7314H174.415V32.4978Z" fill="#496EA6"/>
<path opacity="0.1" d="M223.009 78.7269V79.8622L217.298 79.979V78.7269H223.009Z" fill="black"/>
<path d="M248.778 77.7684C248.786 77.8926 248.769 78.017 248.728 78.1344C248.686 78.2517 248.622 78.3595 248.537 78.4513C248.453 78.5431 248.351 78.6169 248.238 78.6684C248.124 78.7199 248.001 78.748 247.876 78.751L191.608 79.9102C191.374 79.915 191.147 79.8315 190.973 79.6765C190.798 79.5215 190.689 79.3064 190.667 79.0745L185.831 28.9662C185.819 28.8419 185.832 28.7165 185.87 28.5975C185.908 28.4786 185.97 28.3686 186.053 28.2742C186.135 28.1798 186.235 28.103 186.348 28.0484C186.46 27.9939 186.583 27.9627 186.708 27.9568L242.55 25.1889L243.151 25.159C243.39 25.1464 243.625 25.2269 243.805 25.3834C243.986 25.5399 244.098 25.7601 244.119 25.9977L248.778 77.7684Z" fill="#65617D"/>
<path d="M189.044 30.9013L240.043 28.4031L244.351 73.9342L193.754 75.1324L189.044 30.9013Z" fill="#496EA6"/>
<path opacity="0.1" d="M248.778 77.7684C248.786 77.8926 248.769 78.017 248.728 78.1344C248.686 78.2517 248.622 78.3595 248.537 78.4513C248.453 78.5431 248.351 78.6169 248.238 78.6684C248.124 78.7199 248.001 78.748 247.876 78.751L242.55 25.1889L243.151 25.159C243.39 25.1464 243.625 25.2269 243.805 25.3834C243.986 25.5399 244.098 25.7601 244.119 25.9977L248.778 77.7684Z" fill="black"/>
<path opacity="0.1" d="M50.5666 26.0875L43.7825 80.0899L42.7395 80.0629C42.5579 80.0586 42.3793 80.0163 42.2152 79.9385C42.0512 79.8608 41.9054 79.7495 41.7874 79.6118C41.6694 79.4742 41.5819 79.3133 41.5305 79.1397C41.4791 78.966 41.465 78.7836 41.4891 78.6041L49.193 27.1779C49.2421 26.8571 49.4108 26.5667 49.6655 26.3645C49.9201 26.1624 50.242 26.0635 50.5666 26.0875Z" fill="black"/>
<path opacity="0.1" d="M69.3138 91.7842H63.6028V96.9004H69.3138V91.7842Z" fill="black"/>
<path opacity="0.1" d="M89.6029 144.876V146.365L75.4246 146.742V144.876H89.6029Z" fill="black"/>
<path d="M114.626 93.5665V143.95C114.623 144.258 114.5 144.552 114.285 144.773C114.07 144.993 113.777 145.122 113.469 145.134L55.8628 146.661H55.8478C55.5341 146.657 55.2344 146.531 55.0126 146.31C54.7908 146.089 54.6644 145.791 54.6605 145.478V93.5665C54.6644 93.2539 54.7908 92.9552 55.0126 92.7341C55.2344 92.5131 55.5341 92.3872 55.8478 92.3833H113.439C113.753 92.3872 114.052 92.5131 114.274 92.7341C114.496 92.9552 114.622 93.2539 114.626 93.5665Z" fill="#65617D"/>
<path opacity="0.1" d="M55.8628 92.3833V146.661H55.8478C55.5341 146.657 55.2344 146.531 55.0126 146.31C54.7908 146.089 54.6644 145.791 54.6605 145.478V93.5665C54.6644 93.2539 54.7908 92.9552 55.0126 92.7341C55.2344 92.5131 55.5341 92.3872 55.8478 92.3833H55.8628Z" fill="black"/>
<path d="M58.4929 95.6005H111.846V140.008L58.4929 141.207V95.6005Z" fill="#D4DFEC"/>
<path opacity="0.1" d="M223.009 91.7842H217.298V97.0023H223.009V91.7842Z" fill="black"/>
<path opacity="0.1" d="M218.251 144.876V146.796L204.073 146.419V144.876H218.251Z" fill="black"/>
<path d="M236.962 93.5665V145.478C236.958 145.793 236.83 146.094 236.605 146.316C236.38 146.537 236.076 146.661 235.76 146.661L178.142 145.134C177.833 145.122 177.541 144.993 177.326 144.773C177.11 144.552 176.988 144.258 176.984 143.95V93.5665C176.988 93.2539 177.115 92.9552 177.337 92.7341C177.558 92.5131 177.858 92.3872 178.172 92.3833H235.763C236.079 92.3841 236.381 92.5086 236.606 92.73C236.83 92.9514 236.958 93.2518 236.962 93.5665Z" fill="#65617D"/>
<path opacity="0.1" d="M236.962 93.5665V145.478C236.958 145.793 236.83 146.094 236.605 146.316C236.38 146.537 236.076 146.661 235.76 146.661V92.3833C236.076 92.3833 236.38 92.5075 236.605 92.7289C236.83 92.9504 236.958 93.2513 236.962 93.5665Z" fill="black"/>
<path d="M233.13 95.6005H179.777V140.008L233.13 141.207V95.6005Z" fill="#D4DFEC"/>
<path d="M175.494 93.5665V143.95C175.49 144.258 175.368 144.552 175.152 144.773C174.937 144.993 174.645 145.122 174.336 145.134L116.73 146.661C116.414 146.661 116.11 146.537 115.885 146.316C115.66 146.094 115.532 145.793 115.528 145.478V93.5665C115.532 93.2539 115.658 92.9552 115.88 92.7341C116.102 92.5131 116.402 92.3872 116.715 92.3833H174.306C174.62 92.3872 174.92 92.5131 175.142 92.7341C175.363 92.9552 175.49 93.2539 175.494 93.5665Z" fill="#65617D"/>
<path d="M119.36 95.6005H172.713V140.008L119.36 141.207V95.6005Z" fill="#D4DFEC"/>
<path opacity="0.1" d="M259.431 159.853V163.747L213.767 164.167L213.28 164.176L195.924 164.334L195.509 164.34L190.234 164.385H190.078L157.922 164.682L105.137 165.17H105.092L91.671 165.296L91.5267 165.299L31.8916 165.844V161.351L92.7621 160.953H92.9063L105.227 160.869H105.284L190.372 160.309H190.46L190.511 160.306H190.652L192.092 160.297H192.531L214.921 160.147L216.243 160.141L216.538 160.138L259.431 159.853Z" fill="black"/>
<path d="M146.461 96.9004C154.982 96.9004 161.889 90.0165 161.889 81.5247C161.889 73.0329 154.982 66.1489 146.461 66.1489C137.94 66.1489 131.032 73.0329 131.032 81.5247C131.032 90.0165 137.94 96.9004 146.461 96.9004Z" fill="#FBBEBE"/>
<path d="M161.892 112.977C161.892 112.977 131.985 116.572 134.84 112.977C135.874 111.677 136.16 107.825 136.103 103.437C136.085 102.104 136.036 100.723 135.967 99.3478C135.637 92.7577 134.84 86.3175 134.84 86.3175C134.84 86.3175 160.991 74.036 157.985 83.7713C156.782 87.7044 157.176 93.228 158.09 98.4132C158.358 99.9259 158.667 101.409 158.992 102.817C159.784 106.251 160.752 109.642 161.892 112.977Z" fill="#FBBEBE"/>
<path opacity="0.1" d="M161.892 112.977C161.892 112.977 131.985 116.572 134.84 112.977C135.874 111.677 136.16 107.825 136.103 103.437C140.662 101.496 146.464 102.942 146.464 102.942C152.571 101.729 156.488 101.966 158.992 102.817C159.784 106.251 160.752 109.642 161.892 112.977Z" fill="black"/>
<path d="M105.125 165.509V165.257L157.913 164.685L190.075 164.385H190.165L190.132 164.829L190.177 164.385H190.234V164.335L190.646 160.306L190.802 158.781L190.85 158.305L190.892 157.906L192.75 151.733L194.608 145.568L196.171 140.377L198.557 132.445C198.557 132.445 197.205 129.299 196.453 128.401C195.702 127.502 194.95 121.362 194.95 121.362C194.95 121.362 188.536 115.272 185.731 114.571C184.556 114.271 182.236 113.873 179.771 113.373C178.848 113.187 177.901 112.989 176.991 112.773C176.477 112.657 175.972 112.534 175.488 112.411C174.546 112.177 173.618 111.891 172.707 111.554C172.23 111.382 171.776 111.151 171.355 110.868C169.145 109.254 163.609 109.071 163.395 109.071C163.395 109.064 163.395 109.057 163.395 109.05V109.023C163.403 108.897 163.403 108.771 163.395 108.646C163.395 108.526 163.395 108.385 163.368 108.226C163.368 108.178 163.368 108.128 163.347 108.077C163.332 107.969 163.314 107.855 163.287 107.735C163.278 107.682 163.266 107.629 163.251 107.576C163.164 107.215 163.038 106.865 162.875 106.531C162.854 106.483 162.827 106.432 162.803 106.384C162.656 106.107 162.485 105.844 162.292 105.596C162.253 105.545 162.211 105.491 162.166 105.441C161.92 105.151 161.646 104.886 161.348 104.65C161.267 104.587 161.183 104.521 161.096 104.461C161.047 104.422 160.996 104.386 160.943 104.353L160.675 104.179L160.426 104.036C160.206 103.916 159.975 103.799 159.722 103.688C159.644 103.652 159.56 103.619 159.476 103.586C159.392 103.553 159.259 103.503 159.148 103.461H159.13L158.905 103.371C158.733 103.314 158.559 103.263 158.376 103.212L158.096 103.14L157.796 103.071L157.495 103.008C157.194 102.948 156.873 102.894 156.536 102.852L156.193 102.811L155.842 102.775L155.478 102.745L154.961 102.715L154.36 102.694C151.709 102.693 149.065 102.974 146.473 103.529C144.672 103.13 142.828 102.961 140.984 103.026H140.723L140.422 103.044H140.23L139.842 103.08C139.713 103.08 139.58 103.107 139.451 103.125C139.322 103.143 139.187 103.158 139.057 103.179L138.859 103.212C138.664 103.245 138.465 103.281 138.258 103.323C138.192 103.335 138.126 103.35 138.059 103.368C137.798 103.425 137.536 103.494 137.278 103.571C137.149 103.607 137.019 103.649 136.89 103.694C136.824 103.712 136.761 103.736 136.698 103.76L136.505 103.829L136.316 103.904L136.091 103.994C135.976 104.042 135.865 104.093 135.754 104.147C135.691 104.173 135.628 104.203 135.568 104.236C135.508 104.269 135.444 104.296 135.387 104.329C134.708 104.679 134.08 105.121 133.521 105.641L133.367 105.788L133.217 105.941C133.166 105.992 133.118 106.046 133.07 106.1C132.874 106.313 132.691 106.538 132.523 106.774C132.475 106.836 132.43 106.899 132.385 106.965C132.194 107.246 132.021 107.538 131.868 107.84C131.828 107.912 131.792 107.987 131.756 108.059C131.511 108.565 131.31 109.091 131.155 109.631C131.099 109.831 131.048 110.031 131.002 110.23C131.002 110.23 124.639 113.028 119.36 115.053C117.957 115.592 116.634 116.08 115.528 116.449C115.206 116.557 114.906 116.656 114.626 116.748C114.02 116.967 113.389 117.112 112.748 117.18C112.445 117.185 112.144 117.213 111.846 117.264C109.42 117.656 105.263 119.361 104.809 121.071C104.772 121.208 104.762 121.35 104.779 121.49C104.779 121.49 104.779 121.511 104.779 121.523C105.08 123.62 102.976 123.321 102.976 123.321C102.976 123.321 102.224 128.862 101.172 130.36C100.412 131.438 99.8918 133.844 99.8257 135.659C99.7879 136.224 99.8324 136.792 99.9579 137.345C99.9579 137.36 99.9579 137.375 99.9579 137.387C100.078 137.789 99.7896 138.885 99.2997 140.29C98.7676 141.833 97.9921 143.75 97.2467 145.559C96.1225 148.291 95.0645 150.771 94.9984 151.316C94.9713 151.559 94.8932 151.993 94.7849 152.553C94.3461 154.836 93.3722 159.182 92.8913 160.941C92.5336 162.253 92.0136 164.05 91.6559 165.284C91.6559 165.32 91.6349 165.356 91.6259 165.389L105.101 165.257V165.509H105.143H105.125Z" fill="#496EA6"/>
<path opacity="0.1" d="M110.042 130.201C110.042 130.201 127.175 139.038 133.337 137.989L110.042 130.201Z" fill="black"/>
<path opacity="0.1" d="M144.91 126.607C144.91 126.607 161.592 131.998 167.153 132.747C172.713 133.496 144.91 126.607 144.91 126.607Z" fill="black"/>
<path opacity="0.1" d="M163.413 109.257C154.697 110.856 138.285 110.512 131.191 110.269C133.791 100.983 146.47 104.141 146.47 104.141C162.163 101.019 163.365 107.495 163.413 109.257Z" fill="black"/>
<path d="M163.413 108.658C154.697 110.257 138.285 109.913 131.191 109.67C133.791 100.384 146.47 103.541 146.47 103.541C162.163 100.42 163.365 106.896 163.413 108.658Z" fill="#496EA6"/>
<path d="M209.685 149.597C209.685 149.597 219.952 148.024 220.154 152.517C220.355 157.011 214.918 160.15 214.918 160.15L209.685 149.597Z" fill="#FBBEBE"/>
<path opacity="0.1" d="M158.09 98.4132C157.648 98.6099 157.197 98.7838 156.737 98.9344C153.497 100.049 150.23 101.172 146.818 101.579C143.407 101.987 139.827 101.627 136.851 99.9319C136.539 99.756 136.237 99.5609 135.949 99.3478C135.619 92.7577 134.822 86.3175 134.822 86.3175C134.822 86.3175 160.973 74.036 157.967 83.7713C156.771 87.7044 157.176 93.228 158.09 98.4132Z" fill="black"/>
<path d="M142.228 57.4921C141.799 57.605 141.35 57.6164 140.916 57.5254C140.481 57.4343 140.075 57.2434 139.728 56.9678L140.353 57.8335C139.984 57.8759 139.611 57.8375 139.259 57.7211C138.907 57.6047 138.585 57.4131 138.315 57.1596C138.258 57.9345 138.29 58.7134 138.411 59.481C137.377 59.5308 136.358 59.2122 135.538 58.5824C135.522 58.8526 135.589 59.1213 135.731 59.3521C135.873 59.583 136.082 59.7649 136.331 59.8735C135.292 59.7497 134.243 60.007 133.38 60.5974C132.517 61.1877 131.9 62.0707 131.642 63.0816L133.211 63.2254C131.978 63.4878 130.871 64.1608 130.073 65.1335C129.592 65.7326 129.225 66.4994 129.436 67.2303C129.646 67.9612 130.662 68.4285 131.215 67.9073C130.428 68.8431 129.857 69.939 129.54 71.1183C129.223 72.2976 129.169 73.5317 129.382 74.734C129.524 75.2463 129.571 75.7804 129.52 76.3096C129.421 76.8039 129.108 77.2322 128.952 77.7145C128.651 78.5892 128.937 79.5387 129.204 80.4104L130.614 85.0294C131.125 86.6979 131.633 88.3694 132.3 89.9839C132.773 91.0047 133.175 92.0566 133.503 93.1322C133.881 94.582 133.896 96.1696 134.705 97.4367C135.259 98.234 136 98.8848 136.863 99.3328C139.836 101.028 143.428 101.388 146.83 100.98C150.233 100.573 153.497 99.4496 156.734 98.3353C157.454 98.1194 158.144 97.8177 158.79 97.4367C161.03 95.9749 161.529 92.9854 161.947 90.3524C162.412 87.4168 163.035 84.4872 164.138 81.7254C164.793 80.0809 165.641 78.4124 165.496 76.6511C165.313 74.3116 163.455 72.4155 162.996 70.115C162.842 69.346 162.849 68.5536 163.017 67.7875C163.159 67.331 163.239 66.8574 163.254 66.3796C163.203 65.4151 162.409 64.6722 161.664 64.0521C160.047 62.7062 158.378 61.4341 156.656 60.2359C156.569 59.6368 157.387 59.3792 157.756 58.9059C158.279 58.2379 157.738 57.1775 156.945 56.866C156.151 56.5545 155.262 56.7582 154.435 56.9648C154.489 56.5432 154.405 56.1155 154.195 55.7453C153.985 55.3752 153.662 55.0823 153.271 54.9104C152.881 54.7384 152.446 54.6965 152.03 54.7909C151.614 54.8852 151.24 55.1109 150.963 55.4342C150.744 54.9325 150.393 54.4989 149.948 54.1785C149.503 53.8581 148.979 53.6628 148.432 53.6129C146.44 53.4572 146.401 54.9759 145.126 55.8116C143.852 56.6473 142.8 55.545 141.82 54.7422C141.64 55.196 141.583 55.689 141.654 56.1717C141.726 56.6544 141.924 57.1098 142.228 57.4921Z" fill="#3F3D56"/>
<path d="M217.298 158.583C217.298 158.583 217.031 159.218 216.538 160.138C215.792 161.553 214.884 162.877 213.833 164.083L213.751 164.17H213.265L195.909 164.328H195.494L195.443 164.269L192.077 160.288L190.808 158.787L190.757 158.724L190.649 158.598L190.589 158.526L190.511 158.433L188.043 155.516L188.945 151.771L190.481 145.463L190.52 145.31L190.82 144.112L191.034 143.213L191.749 140.284L194.202 130.204L198.56 132.451L203.156 140.538L205.624 144.882H206.976C207.232 144.882 207.818 145.373 208.407 145.939C208.618 146.14 208.828 146.353 209.008 146.538C209.543 147.09 209.967 147.563 209.967 147.563C209.967 147.563 212.158 147.611 212.748 149.33C212.778 149.413 212.803 149.498 212.823 149.585C213.018 150.261 213.273 150.918 213.583 151.55C213.971 152.392 214.458 153.347 214.951 154.303C215.868 156.055 216.799 157.723 217.142 158.329L217.184 158.403L217.298 158.583Z" fill="#496EA6"/>
<path opacity="0.1" d="M191.478 145.059L191.448 145.487V145.517L191.397 146.206L190.998 151.751L190.514 158.43L190.375 160.312L190.075 164.338V164.388L157.913 164.688L105.134 165.257V165.509H105.092V165.257V165.173L105.227 160.872L105.486 152.466L105.708 145.34L105.729 144.63C105.742 144.202 105.843 143.78 106.025 143.392C106.207 143.004 106.466 142.656 106.788 142.371C107.109 142.086 107.485 141.869 107.893 141.734C108.301 141.599 108.733 141.547 109.162 141.584C110.58 141.704 112.423 141.851 114.626 142.006L115.528 142.072C128.251 142.953 151.766 144.091 175.494 142.671C175.993 142.644 176.495 142.614 176.997 142.578C180.676 142.348 184.352 142.051 187.992 141.68C188.452 141.632 188.917 141.685 189.354 141.835C189.792 141.986 190.191 142.23 190.523 142.551C190.856 142.871 191.113 143.261 191.278 143.691C191.443 144.122 191.512 144.584 191.478 145.044V145.059Z" fill="black"/>
<path d="M105.125 165.509V165.257L157.913 164.685L190.075 164.385H190.165V164.335L190.466 160.309L190.595 158.511L191.088 151.739L191.476 146.377V146.245C191.493 145.998 191.482 145.749 191.442 145.505C191.444 145.495 191.444 145.485 191.442 145.475C191.36 144.97 191.153 144.492 190.841 144.085C190.51 143.662 190.077 143.33 189.581 143.121C189.086 142.911 188.545 142.831 188.01 142.887C184.37 143.258 180.694 143.555 177.015 143.786C176.513 143.822 176.011 143.851 175.512 143.878C151.784 145.283 128.27 144.145 115.546 143.279L114.644 143.213C112.441 143.058 110.598 142.914 109.18 142.791C108.399 142.725 107.622 142.95 106.998 143.422C106.374 143.894 105.948 144.579 105.801 145.346C105.771 145.508 105.753 145.673 105.747 145.838L105.543 152.475L105.263 160.884L105.131 165.185V165.269V165.521L105.125 165.509Z" fill="#3F3D56"/>
<path opacity="0.1" d="M191.569 147.159L191.199 151.751L190.649 158.595L190.511 160.309L190.21 164.146L190.192 164.338V164.388L190.147 164.832L190.18 164.388H190.093L157.931 164.688L105.134 165.257V165.173L105.281 160.872L105.582 152.466L105.774 146.88C105.784 146.562 105.873 146.252 106.033 145.977C106.194 145.702 106.421 145.472 106.694 145.307C107.034 145.099 107.432 145.005 107.83 145.038C108.461 145.089 109.237 145.149 110.142 145.214C111.611 145.322 113.424 145.448 115.534 145.58C119.442 145.826 124.344 146.089 129.962 146.305C145.592 146.904 166.693 147.105 186.735 145.355C187.637 145.277 188.569 145.19 189.48 145.104C189.84 145.068 190.203 145.136 190.526 145.301C190.617 145.347 190.704 145.401 190.784 145.463C191.046 145.652 191.253 145.906 191.385 146.2C191.416 146.258 191.441 146.32 191.46 146.383C191.551 146.631 191.588 146.895 191.569 147.159Z" fill="black"/>
<path opacity="0.1" d="M89.6029 151.259V152.215C89.6031 152.562 89.5043 152.903 89.3181 153.196C89.1319 153.49 88.8658 153.725 88.5509 153.874L76.4976 154.105C76.1771 153.959 75.9056 153.723 75.7154 153.428C75.5251 153.132 75.4242 152.788 75.4246 152.436V151.538L89.6029 151.259Z" fill="black"/>
<path d="M89.7532 154.438L74.0479 154.737V152.14L89.7532 151.84V154.438Z" fill="#3F3D56"/>
<path opacity="0.1" d="M89.7532 154.438L74.0479 154.737V152.14L89.7532 151.84V154.438Z" fill="black"/>
<path d="M90.3544 154.438L74.649 154.737V152.14L90.3544 151.84V154.438Z" fill="#3F3D56"/>
<g opacity="0.1">
<path opacity="0.1" d="M142.352 56.5095C142.058 56.1292 141.863 55.6827 141.783 55.2095C141.711 55.6721 141.754 56.1455 141.91 56.5874C142.059 56.5737 142.207 56.5476 142.352 56.5095Z" fill="black"/>
<path opacity="0.1" d="M138.535 58.4985C138.478 58.1312 138.441 57.7613 138.423 57.3901C138.423 57.7586 138.423 58.13 138.423 58.5015L138.535 58.4985Z" fill="black"/>
<path opacity="0.1" d="M163.032 68.4943C163.048 68.2275 163.084 67.9622 163.14 67.7005C163.282 67.2449 163.363 66.7725 163.38 66.2957C163.373 66.1886 163.357 66.0824 163.332 65.9781C163.281 66.2537 163.2 66.5293 163.14 66.8019C163.02 67.3576 162.983 67.928 163.032 68.4943Z" fill="black"/>
<path opacity="0.1" d="M156.78 59.2384L157.107 59.4751C157.383 59.276 157.642 59.0535 157.88 58.8101C157.993 58.6542 158.063 58.4714 158.083 58.2801C158.103 58.0888 158.072 57.8955 157.994 57.7197C157.964 57.7881 157.926 57.8525 157.88 57.9114C157.51 58.3847 156.692 58.6453 156.78 59.2384Z" fill="black"/>
<path opacity="0.1" d="M132.081 62.12C131.971 62.3385 131.884 62.5672 131.819 62.803C132.29 62.5414 132.796 62.3506 133.322 62.2368L132.081 62.12Z" fill="black"/>
<path opacity="0.1" d="M136.226 58.861C136.028 58.7526 135.839 58.6294 135.661 58.4926C135.653 58.6111 135.662 58.73 135.688 58.846C135.867 58.8375 136.047 58.8425 136.226 58.861Z" fill="black"/>
<path opacity="0.1" d="M165.614 76.5103C165.49 77.9631 164.811 79.3619 164.261 80.7399C163.158 83.5017 162.536 86.4313 162.07 89.3698C161.652 92.0028 161.168 94.9923 158.914 96.4511C158.269 96.8346 157.58 97.1365 156.861 97.3497C153.62 98.4671 150.353 99.5874 146.942 99.9948C143.53 100.402 139.95 100.046 136.974 98.3502C136.111 97.9016 135.371 97.2509 134.816 96.4541C134.014 95.187 133.999 93.5994 133.614 92.1496C133.286 91.0731 132.884 90.0202 132.411 88.9984C131.747 87.3868 131.236 85.7034 130.728 84.0469C130.257 82.5072 129.787 80.9665 129.318 79.4249C129.164 78.9611 129.049 78.4851 128.976 78.002C128.859 78.7688 129.087 79.5716 129.318 80.3235C129.787 81.8672 130.257 83.4078 130.728 84.9455C131.236 86.614 131.747 88.2854 132.411 89.897C132.884 90.9188 133.286 91.9717 133.614 93.0483C133.993 94.4981 134.008 96.0857 134.816 97.3527C135.371 98.1496 136.111 98.8002 136.974 99.2489C139.95 100.944 143.539 101.301 146.942 100.893C150.344 100.486 153.608 99.3657 156.861 98.2484C157.58 98.0351 158.269 97.7332 158.914 97.3497C161.153 95.891 161.652 92.9015 162.07 90.2685C162.536 87.3299 163.158 84.4003 164.261 81.6385C164.916 79.997 165.764 78.3285 165.62 76.5642C165.62 76.5462 165.614 76.5282 165.614 76.5103Z" fill="black"/>
<path opacity="0.1" d="M129.638 75.351C129.638 75.351 129.638 75.3301 129.638 75.3181C129.692 74.7899 129.645 74.2562 129.499 73.7455C129.439 73.4168 129.4 73.0846 129.382 72.751C129.347 73.3844 129.386 74.0197 129.499 74.6441C129.547 74.8778 129.602 75.1144 129.638 75.351Z" fill="black"/>
<path opacity="0.1" d="M130.554 68.0241C130.785 67.6371 131.047 67.2694 131.338 66.9248C130.788 67.449 129.772 66.9817 129.559 66.2538C129.48 66.5482 129.48 66.858 129.559 67.1524C129.633 67.3722 129.764 67.5686 129.939 67.7217C130.113 67.8748 130.326 67.9791 130.554 68.0241Z" fill="black"/>
</g>
<path opacity="0.1" d="M205.627 144.879C205.627 144.879 206.58 148.324 205.627 151.319C204.674 154.315 205.627 144.879 205.627 144.879Z" fill="black"/>
<path opacity="0.1" d="M209.685 148.393C209.685 148.393 210.084 152.766 209.183 153.542C208.281 154.318 209.685 148.393 209.685 148.393Z" fill="black"/>
<path d="M59.8124 102.703L90.3543 102.403" stroke="#7366D9" stroke-width="2" stroke-miterlimit="10"/>
<path d="M59.8124 106.438L90.3543 106.141" stroke="#7366D9" stroke-width="2" stroke-miterlimit="10"/>
<path d="M59.8124 110.176L90.3543 109.877" stroke="#7366D9" stroke-width="2" stroke-miterlimit="10"/>
</g>
<defs>
<clipPath id="clip0_458_1080">
<rect width="313" height="166" fill="white"/>
</clipPath>
</defs>
</svg>
