<?xml version="1.0" encoding="utf-8"?>
<svg xmlns="http://www.w3.org/2000/svg" xmlns:xlink="http://www.w3.org/1999/xlink" width="622.187" height="567.682" viewBox="0 0 622.187 567.682">
    <defs>
        <linearGradient id="a" y1=".5" x2="1" y2=".5" gradientUnits="objectBoundingBox">
            <stop offset="0" stop-color="#213871"/>
            <stop offset="1" stop-color="#0e1d42"/>
        </linearGradient>
        <linearGradient id="e" x1=".744" y1=".934" x2=".031" y2=".083" xlink:href="#a"/>
        <linearGradient id="f" x1=".5" x2=".5" y2="1" gradientUnits="objectBoundingBox">
            <stop offset="0" stop-color="#1d3267"/>
            <stop offset="1" stop-color="#2751bc"/>
        </linearGradient>
        <linearGradient id="g" x1=".158" x2=".947" y2=".932" gradientUnits="objectBoundingBox">
            <stop offset="0" stop-color="#3670f2"/>
            <stop offset=".128" stop-color="#315cdd"/>
            <stop offset=".356" stop-color="#2b3ebf"/>
            <stop offset=".581" stop-color="#2729aa"/>
            <stop offset=".798" stop-color="#241d9d"/>
            <stop offset="1" stop-color="#241999"/>
        </linearGradient>
        <linearGradient id="h" x1="-.117" y1="2.199" x2=".534" y2="2.266" xlink:href="#a"/>
        <linearGradient id="b" x1="-49.073" y1=".5" x2="-48.074" y2=".5" gradientUnits="objectBoundingBox">
            <stop offset="0" stop-color="#f2c194"/>
            <stop offset=".38" stop-color="#f7cea1"/>
            <stop offset="1" stop-color="#ffe0b3"/>
        </linearGradient>
        <linearGradient id="i" x1="-59.722" y1=".5" x2="-58.722" y2=".5" xlink:href="#b"/>
        <linearGradient id="j" x1="-60.153" y1=".5" x2="-59.153" y2=".5" gradientUnits="objectBoundingBox">
            <stop offset="0" stop-color="#ffebcf"/>
            <stop offset=".358" stop-color="#fbdebd"/>
            <stop offset="1" stop-color="#f2c194"/>
        </linearGradient>
        <linearGradient id="c" x1="-18.077" y1=".082" x2="-17.243" y2=".955" gradientUnits="objectBoundingBox">
            <stop offset="0" stop-color="#5c69b5"/>
            <stop offset=".061" stop-color="#5663af"/>
            <stop offset=".453" stop-color="#35448f"/>
            <stop offset=".78" stop-color="#21307c"/>
            <stop offset="1" stop-color="#1a2a75"/>
        </linearGradient>
        <linearGradient id="d" x1="-32.196" y1=".329" x2="-31.674" y2=".642" gradientUnits="objectBoundingBox">
            <stop offset="0" stop-color="#ffbf85"/>
            <stop offset=".707" stop-color="#ffd5a4"/>
            <stop offset="1" stop-color="#ffe0b3"/>
        </linearGradient>
        <linearGradient id="k" x1="-23.131" y1=".15" x2="-22.435" y2=".763" xlink:href="#c"/>
        <linearGradient id="l" x1="-.06" y1="-.316" x2=".467" y2=".488" gradientUnits="objectBoundingBox">
            <stop offset="0" stop-color="#ffbf85"/>
            <stop offset=".496" stop-color="#ffd2a4"/>
            <stop offset="1" stop-color="#ffe9c9"/>
        </linearGradient>
        <linearGradient id="m" y1=".5" x2="1" y2=".5" gradientUnits="objectBoundingBox">
            <stop offset="0" stop-color="#ffe9c9"/>
            <stop offset=".504" stop-color="#ffd2a4"/>
            <stop offset="1" stop-color="#ffbf85"/>
        </linearGradient>
        <linearGradient id="n" x1=".424" y1=".173" x2=".57" y2=".807" xlink:href="#c"/>
        <linearGradient id="o" x1=".226" y1="1.72" x2=".374" y2="2.258" xlink:href="#c"/>
        <linearGradient id="p" x1=".045" y1=".154" x2="1.012" y2=".877" xlink:href="#c"/>
        <linearGradient id="q" x1="132.595" y1="-20.265" x2="133.625" y2="-20.265" gradientUnits="objectBoundingBox">
            <stop offset="0" stop-color="#ffcd70"/>
            <stop offset=".61" stop-color="#ffcb8f"/>
            <stop offset="1" stop-color="#ffcba6"/>
        </linearGradient>
        <linearGradient id="r" x1=".066" y1=".646" x2="1" y2=".394" xlink:href="#d"/>
        <linearGradient id="s" x1="1" y1=".5" x2="0" y2=".5" xlink:href="#c"/>
    </defs>
    <g data-name=":: img-obj-banner-homepage-r1">
        <g data-name="shield">
            <g data-name="Group 39" style="isolation:isolate">
                <path data-name="Path 89" d="M426.752 84.593a2.586 2.586 0 00-2.348-.2c-1.1.45-3.3 1.329-7.858 3.124a10.7 10.7 0 01-7.267-1.163l17.86 10.94a10.7 10.7 0 007.267 1.161c8.623-3.395 8.828-3.516 9.036-3.641z" transform="translate(-257.922 -60.479)" fill="url(#a)"/>
                <path data-name="Path 90" d="M335.807 162.259l.04-7.9-20.247-11.766-.177 7.154c.184 64.933 24.12 94.109 39.787 107.272 15.233 12.8 27.226 15.822 27.226 15.822-24.757-14.387-46.444-45.647-46.629-110.582z" transform="translate(-315.423 -24.705)" fill="url(#e)"/>
                <path data-name="Path 91" d="M446.489 69.646a1.62 1.62 0 00-1.632.16l-111.6 62.718 19.024 11.369 110.1-63.563a1.618 1.618 0 011.63-.161z" transform="translate(-304.498 -69.491)" fill="url(#a)"/>
                <path data-name="Path 92" d="M360.674 125.894a14.606 14.606 0 01.458-3.388 11.394 11.394 0 01.5-1.037 4.665 4.665 0 011.5-1.522l-19.024-11.369a3.846 3.846 0 00-2.045 2.664c-2.556 24.411-13.685 44.774-26.535 52.192L335.78 175.2a40.335 40.335 0 0012.946-12.066c7.635-10.734 10.687-24.347 11.948-37.24z" transform="translate(-315.356 -45.545)" fill="url(#a)"/>
            </g>
            <path data-name="Path 93" d="M484.163 103.471c8.623-3.395 8.828-3.516 9.036-3.641l.145 7.794c.252 88.849-55.288 180.848-75.167 216.6-.131.239-.266.473-.4.7-34.925-.568-89.418-18.784-89.712-121.875l.04-7.9c21.674-12.514 24.306-42.6 25.114-51.652a5.039 5.039 0 012.243-3.6l110.092-63.565c1.2-.7 2.193-.2 2.288 1.092.106 1.527.124 1.758.142 2l.065.8c.023.276.047.542.071.814.045.481.09.948.144 1.432.039.35.071.635.1.926.058.469.111.885.171 1.308.1.76.226 1.526.364 2.3.221 1.237.487 2.487.811 3.722a29.648 29.648 0 002.124 5.8c2.358 4.645 6.144 7.924 12.329 6.945z" transform="translate(-307.679 -65.493)" fill="url(#a)"/>
            <path data-name="Path 94" d="M105.423 251.084l-.95-.069c-34.5-2.54-75.677-24.291-75.925-113.484l.018-3.438.6-.443c13.482-10.1 21.645-27.718 24.259-52.364l.081-.756.66-.382 99-57.164.432 2.006c.166.766.344 1.53.542 2.293a37.777 37.777 0 002.741 7.429c4.032 7.968 10.7 12.071 18.974 11.553l1.63-.106-.037 1.634c-1.841 78.747-47.547 159.847-69.511 198.823zM31.55 135.59l-.01 1.945c.242 86.069 39.168 107.644 72.208 110.421l1.569-2.785c21.711-38.523 66.7-118.354 69.092-195.865h-.044c-8.678 0-15.836-4.7-20.16-13.246a40.866 40.866 0 01-2.967-8.025l-.11-.426L56.311 82.36c-2.75 24.755-11.079 42.657-24.761 53.23z" fill="#fff"/>
        </g>
        <g data-name="Group 40">
            <path data-name="Path 95" d="M123.897 155.879l-41.81 24.138c-5.181 2.991-9.381.566-9.381-5.415v-39.455c0-5.981 4.2-13.256 9.379-16.246l41.81-24.138c5.181-2.991 9.381-.566 9.381 5.415v39.455c-.003 5.981-4.203 13.255-9.379 16.246z" fill="#2245d1"/>
            <path data-name="Path 96" d="M128.87 158.612L87.06 182.75c-5.18 2.99-9.379.566-9.379-5.415V137.88c0-5.983 4.2-13.256 9.381-16.246l41.81-24.14c5.18-2.99 9.379-.566 9.379 5.415v39.455c0 5.982-4.199 13.257-9.381 16.248z" fill="#b5f7ff"/>
        </g>
        <g data-name="Group 41">
            <path data-name="Path 97" d="M408.2 182.617l-34.166 19.726c-3.277 1.89-5.931.358-5.931-3.425v-32.746a13.11 13.11 0 015.933-10.274l34.164-19.726c3.275-1.89 5.931-.358 5.931 3.425v32.746a13.11 13.11 0 01-5.931 10.274z" transform="translate(-283.151 -29.135)" fill="url(#f)"/>
            <path data-name="Path 98" d="M392.275 151.976c0-4.082-3.064-5.569-6.681-3.006a13.7 13.7 0 00-5.235 8.968c-.364 3.485 1.258 5.444 3.667 5.194l-.889 11.272c-.077.972.556 1.411 1.363.943l3.582-2.067a2.979 2.979 0 001.364-2.519l-.889-10.247a13.334 13.334 0 003.718-8.538z" transform="translate(-275.672 -21.574)" fill="url(#g)"/>
        </g>
        <g data-name="Group 42">
            <path data-name="Path 99" d="M120.902 95.83v2.825l-7.6 4.386v-2.825c0-6.636-5.088-9.086-11.345-5.473s-11.34 11.934-11.34 18.571v2.824l-7.6 4.388v-2.825c0-11.472 8.492-25.7 18.936-31.732s18.949-1.611 18.949 9.861z" fill="#2245d1"/>
            <path data-name="Path 100" d="M124.701 98.479v2.824l-7.6 4.386v-2.824c0-6.638-5.09-9.087-11.347-5.473s-11.339 11.934-11.339 18.57v2.825l-7.6 4.386v-2.823c0-11.471 8.491-25.7 18.936-31.731s18.95-1.612 18.95 9.86z" fill="#b5f7ff"/>
        </g>
        <g data-name="Group 69">
            <g data-name="Group 68">
                <g data-name="Group 48">
                    <g data-name="Group 47" fill-rule="evenodd">
                        <path data-name="Path 112" d="M58.08 387.739a10.378 10.378 0 010-2.579v-14.082l4.483 6.836c.182-.121.314-.281.508-.393l297.468-171.745a41.159 41.159 0 0141.158 0L617.03 330.103c.132.076.221.187.348.268l4.809-6.584v17.871l-.429.227a10.125 10.125 0 01-4.728 6.081L319.567 519.712a41.156 41.156 0 01-41.156 0L63.076 395.389a10.1 10.1 0 01-4.94-7.188l-.056-.021z" fill="#a1f7ff"/>
                        <path data-name="Path 113" d="M653.958 190.741L356.495 362.485a10.314 10.314 0 000 17.863l215.334 124.328a41.156 41.156 0 0041.156 0L910.449 332.93a10.313 10.313 0 000-17.863L695.116 190.741a41.159 41.159 0 00-41.158 0z" transform="translate(-293.419 1.414)" fill="url(#h)"/>
                    </g>
                    <path data-name="Path 114" d="M307.01 482.413a35.914 35.914 0 01-17.973-4.8l-179.436-103.6a10.237 10.237 0 010-17.731l247.877-143.116a36.037 36.037 0 0135.941 0l179.438 103.6a10.235 10.235 0 010 17.731L324.98 477.612a35.939 35.939 0 01-17.97 4.801zm52.111-266.405L111.244 359.124a6.954 6.954 0 000 12.043l179.438 103.599a32.766 32.766 0 0032.655 0l247.877-143.112a6.954 6.954 0 000-12.045l-179.438-103.6a32.766 32.766 0 00-32.655 0z" fill="#a1f7ff"/>
                </g>
                <path data-name="Path 115" d="M209.889 216.637l141.6-82.186a5.711 5.711 0 015.541-.106l4.236 2.245-4.091 121.642c4.877-1.39 9.212.21 13.716 2.811l99.26 57.31a4.753 4.753 0 010 8.234l-137.123 79.168a18.967 18.967 0 01-18.971 0L209.815 345.57a4.307 4.307 0 01-2.155-3.725l-.161-121.06a4.782 4.782 0 012.39-4.148z" fill="#193399" fill-rule="evenodd"/>
                <path data-name="Path 116" d="M351.915 254.763l-137.12 79.166a4.754 4.754 0 000 8.234l99.262 57.31a18.967 18.967 0 0018.971 0l137.12-79.168a4.754 4.754 0 000-8.234l-99.26-57.31a18.978 18.978 0 00-18.973.002z" fill="#e0efff" fill-rule="evenodd"/>
                <path data-name="Path 117" d="M212.42 337.397l150.33-82.365V139.044a2.791 2.791 0 00-4.183-2.419l-143.759 82.763a4.782 4.782 0 00-2.39 4.141z" fill="#e8f3ff" fill-rule="evenodd"/>
                <g data-name="Group 56">
                    <g data-name="Group 54" fill="#9ec6ff" fill-rule="evenodd">
                        <g data-name="Group 53">
                            <g data-name="Group 49">
                                <path data-name="Path 118" d="M366.531 281.764l7.105-4.1-7.105-4.1-7.1 4.1z"/>
                                <path data-name="Path 119" d="M354.441 288.745l7.105-4.1-7.105-4.1-7.1 4.1z"/>
                                <path data-name="Path 120" d="M342.352 295.724l7.105-4.1-7.105-4.1-7.105 4.1z"/>
                                <path data-name="Path 121" d="M330.263 302.704l7.1-4.1-7.1-4.1-7.105 4.1z"/>
                                <path data-name="Path 122" d="M318.174 309.684l7.105-4.1-7.105-4.1-7.105 4.1z"/>
                                <path data-name="Path 123" d="M306.084 316.664l7.105-4.1-7.105-4.1-7.105 4.1z"/>
                                <path data-name="Path 124" d="M293.994 323.645l7.105-4.1-7.105-4.1-7.1 4.1z"/>
                                <path data-name="Path 125" d="M281.906 330.624l7.1-4.1-7.1-4.1-7.105 4.1z"/>
                                <path data-name="Path 126" d="M269.817 337.604l7.1-4.1-7.1-4.1-7.105 4.1z"/>
                                <path data-name="Path 127" d="M257.727 344.583l7.105-4.1-7.105-4.1-7.105 4.1z"/>
                            </g>
                            <g data-name="Group 50">
                                <path data-name="Path 128" d="M378.049 288.383l7.105-4.1-7.105-4.1-7.105 4.1z"/>
                                <path data-name="Path 129" d="M365.959 295.363l7.105-4.1-7.105-4.1-7.1 4.1z"/>
                                <path data-name="Path 130" d="M353.87 302.344l7.105-4.1-7.105-4.1-7.1 4.1z"/>
                                <path data-name="Path 131" d="M341.781 309.323l7.1-4.1-7.1-4.1-7.105 4.1z"/>
                                <path data-name="Path 132" d="M329.692 316.303l7.1-4.1-7.1-4.1-7.105 4.1z"/>
                                <path data-name="Path 133" d="M317.603 323.283l7.105-4.1-7.105-4.1-7.105 4.1z"/>
                                <path data-name="Path 134" d="M305.513 330.259l7.105-4.1-7.105-4.1-7.1 4.1z"/>
                                <path data-name="Path 135" d="M293.423 337.243l7.105-4.1-7.105-4.1-7.105 4.1z"/>
                                <path data-name="Path 136" d="M281.335 344.223l7.1-4.1-7.1-4.1-7.105 4.1z"/>
                                <path data-name="Path 137" d="M269.245 351.203l7.1-4.1-7.1-4.1-7.105 4.1z"/>
                            </g>
                            <g data-name="Group 51">
                                <path data-name="Path 138" d="M389.488 295.049l7.105-4.1-7.105-4.1-7.105 4.1z"/>
                                <path data-name="Path 139" d="M377.398 302.034l7.105-4.1-7.105-4.1-7.105 4.1z"/>
                                <path data-name="Path 140" d="M365.309 309.009l7.105-4.1-7.105-4.1-7.1 4.1z"/>
                                <path data-name="Path 141" d="M353.22 315.989l7.1-4.1-7.1-4.1-7.105 4.1z"/>
                                <path data-name="Path 142" d="M341.131 322.97l7.1-4.1-7.1-4.1-7.105 4.1z"/>
                                <path data-name="Path 143" d="M329.041 329.948l7.105-4.1-7.105-4.1-7.105 4.1z"/>
                                <path data-name="Path 144" d="M316.952 336.929l7.105-4.1-7.105-4.1-7.1 4.1z"/>
                                <path data-name="Path 145" d="M304.862 343.909l7.105-4.1-7.105-4.1-7.1 4.1z"/>
                                <path data-name="Path 146" d="M292.774 350.889l7.1-4.1-7.1-4.1-7.105 4.1z"/>
                                <path data-name="Path 147" d="M280.684 357.869l7.1-4.1-7.1-4.1-7.105 4.1z"/>
                            </g>
                            <g data-name="Group 52">
                                <path data-name="Path 148" d="M401.031 301.654l7.105-4.1-7.105-4.1-7.105 4.1z"/>
                                <path data-name="Path 149" d="M340.585 336.553l43.373-25.042-7.105-4.1-43.373 25.042z"/>
                                <path data-name="Path 150" d="M316.406 350.513l19.194-11.082-7.1-4.1-19.199 11.08z"/>
                                <path data-name="Path 151" d="M304.317 357.493l7.105-4.1-7.105-4.1-7.1 4.1z"/>
                                <path data-name="Path 152" d="M292.228 364.473l7.105-4.1-7.105-4.1-7.1 4.1z"/>
                            </g>
                        </g>
                        <path data-name="Path 153" d="M363.445 368.613l52.6-30.372a1.933 1.933 0 000-3.346l-24.838-14.34a7.377 7.377 0 00-7.376 0l-52.6 30.369a1.932 1.932 0 000 3.346l24.838 14.34a7.374 7.374 0 007.376.003z"/>
                    </g>
                    <g data-name="Group 55">
                        <path data-name="Path 154" d="M248.262 321.911a1.012 1.012 0 00.5-.131l90.334-49.871a1.045 1.045 0 10-1.01-1.83l-90.323 49.871a1.045 1.045 0 00.5 1.961z" fill="#71aafa"/>
                    </g>
                </g>
                <g data-name="Group 66">
                    <path data-name="Path 155" d="M224.057 322.889l127.793-69.97a2.533 2.533 0 001.314-2.219V153a2.529 2.529 0 00-3.79-2.193l-126.708 72.8a4.1 4.1 0 00-2.05 3.549v93.692a2.324 2.324 0 003.441 2.041z" fill="#1a2e61" fill-rule="evenodd"/>
                    <g data-name="Group 65">
                        <g data-name="Group 63">
                            <g data-name="Group 59" fill="#ffedba">
                                <g data-name="Group 57">
                                    <path data-name="Path 156" d="M228.689 240.022l.961-.555v-3.564l-.763.44v-.4a5.075 5.075 0 00.889-.869l.413-.239v4.322l.868-.5v.516l-2.367 1.364z"/>
                                    <path data-name="Path 157" d="M231.727 236.346c0-1.622.5-2.787 1.345-3.272s1.339.1 1.34 1.721-.5 2.817-1.339 3.3-1.346-.126-1.346-1.749zm2.161-1.248c0-1.418-.331-1.8-.816-1.524s-.821 1.05-.821 2.469.329 1.835.822 1.55.815-1.076.815-2.495z"/>
                                    <path data-name="Path 158" d="M236.307 233.701c0-1.622.5-2.787 1.345-3.272s1.339.1 1.34 1.721-.5 2.817-1.339 3.3-1.346-.126-1.346-1.749zm2.161-1.248c0-1.418-.329-1.8-.816-1.524s-.821 1.05-.821 2.469.331 1.835.822 1.55.815-1.076.815-2.495z"/>
                                    <path data-name="Path 159" d="M239.574 231.815c0-1.622.5-2.787 1.345-3.272s1.34.1 1.34 1.722-.5 2.817-1.339 3.3-1.346-.128-1.346-1.75zm2.161-1.247c0-1.419-.329-1.8-.816-1.524s-.821 1.05-.819 2.467.329 1.835.821 1.551.814-1.076.814-2.491z"/>
                                    <path data-name="Path 160" d="M243.069 231.717l.961-.553V227.6l-.763.44v-.4a4.937 4.937 0 00.885-.869l.414-.239v4.324l.866-.5v.514l-2.364 1.366z"/>
                                    <path data-name="Path 161" d="M247.42 227.286c0-1.622.5-2.787 1.345-3.272s1.34.1 1.342 1.721-.5 2.817-1.34 3.3-1.347-.126-1.347-1.749zm2.161-1.248c0-1.418-.329-1.8-.816-1.524s-.821 1.05-.819 2.469.329 1.834.821 1.55.814-1.076.814-2.495z"/>
                                    <path data-name="Path 162" d="M250.689 225.399c0-1.622.5-2.787 1.343-3.272s1.34.1 1.342 1.721-.5 2.817-1.34 3.3-1.345-.126-1.345-1.749zm2.161-1.248c0-1.418-.331-1.8-.818-1.524s-.821 1.05-.819 2.469.331 1.835.821 1.55.816-1.076.816-2.495z"/>
                                    <path data-name="Path 163" d="M254.183 225.299l.96-.553v-3.564l-.763.44v-.4a4.949 4.949 0 00.887-.868l.414-.239v4.322l.866-.5v.516l-2.364 1.364z"/>
                                    <path data-name="Path 164" d="M258.534 220.869c0-1.622.5-2.787 1.345-3.272s1.339.1 1.34 1.721-.5 2.817-1.338 3.3-1.347-.126-1.347-1.749zm2.161-1.248c0-1.418-.331-1.8-.816-1.524s-.822 1.05-.821 2.469.331 1.835.823 1.55.814-1.076.814-2.495z"/>
                                    <path data-name="Path 165" d="M262.032 220.77l.958-.555v-3.564l-.761.44v-.4a5.059 5.059 0 00.887-.869l.413-.239v4.324l.868-.5v.516l-2.364 1.366z"/>
                                    <path data-name="Path 166" d="M265.067 217.098c0-1.622.5-2.787 1.345-3.272s1.34.1 1.342 1.721-.506 2.817-1.34 3.3-1.347-.127-1.347-1.749zm2.161-1.248c0-1.418-.331-1.8-.816-1.524s-.821 1.051-.819 2.469.327 1.835.821 1.55.814-1.077.814-2.496z"/>
                                    <path data-name="Path 167" d="M268.562 216.998l.961-.553v-3.564l-.763.44v-.4a5 5 0 00.887-.868l.414-.239v4.322l.868-.5v.516l-2.366 1.364z"/>
                                    <path data-name="Path 168" d="M272.914 212.567c0-1.622.5-2.787 1.343-3.272s1.34.1 1.342 1.721-.5 2.817-1.34 3.3-1.345-.126-1.345-1.749zm2.161-1.248c0-1.418-.331-1.8-.818-1.524s-.821 1.05-.819 2.469.329 1.835.821 1.55.816-1.076.816-2.495z"/>
                                    <path data-name="Path 169" d="M276.411 212.468l.96-.555v-3.564l-.763.44v-.4a4.952 4.952 0 00.887-.869l.414-.239v4.324l.866-.5v.516l-2.364 1.366z"/>
                                </g>
                                <g data-name="Group 58">
                                    <path data-name="Path 170" d="M229.099 249.884l.961-.553v-3.561l-.764.442v-.4a5.072 5.072 0 00.889-.869l.413-.239v4.322l.868-.5v.516l-2.366 1.364z"/>
                                    <path data-name="Path 171" d="M232.136 246.212c0-1.624.5-2.788 1.347-3.272s1.339.1 1.339 1.721-.5 2.817-1.339 3.3-1.347-.129-1.347-1.749zm2.161-1.248c0-1.419-.327-1.8-.814-1.524s-.821 1.05-.821 2.469.329 1.834.821 1.55.814-1.078.814-2.496z"/>
                                    <path data-name="Path 172" d="M236.716 243.565c0-1.621.506-2.785 1.348-3.272s1.339.1 1.339 1.722-.506 2.817-1.339 3.3-1.348-.126-1.348-1.75zm2.161-1.245c0-1.419-.327-1.806-.813-1.524s-.822 1.048-.822 2.467.329 1.835.822 1.551.813-1.079.813-2.494z"/>
                                    <path data-name="Path 173" d="M239.983 241.68c0-1.622.506-2.787 1.347-3.272s1.34.1 1.34 1.722-.506 2.816-1.34 3.3-1.347-.128-1.347-1.75zm2.161-1.247c0-1.419-.327-1.8-.814-1.526s-.821 1.05-.821 2.469.329 1.835.821 1.551.818-1.076.818-2.493z"/>
                                    <path data-name="Path 174" d="M243.476 241.582l.959-.553v-3.564l-.763.44v-.4a5.073 5.073 0 00.889-.869l.411-.239v4.319l.869-.5v.514l-2.366 1.366z"/>
                                    <path data-name="Path 175" d="M247.829 237.152c0-1.622.506-2.787 1.347-3.272s1.34.1 1.34 1.721-.506 2.817-1.34 3.3-1.347-.127-1.347-1.749zm2.161-1.248c0-1.418-.329-1.8-.814-1.524s-.821 1.05-.821 2.469.327 1.834.821 1.55.815-1.077.815-2.496z"/>
                                    <path data-name="Path 176" d="M251.097 235.265c0-1.622.5-2.787 1.345-3.272s1.34.1 1.34 1.721-.5 2.817-1.34 3.3-1.345-.127-1.345-1.749zm2.161-1.248c0-1.418-.329-1.8-.816-1.524s-.821 1.05-.821 2.469.331 1.835.821 1.55.816-1.077.816-2.496z"/>
                                    <path data-name="Path 177" d="M254.593 235.164l.958-.553v-3.564l-.763.44v-.4a4.962 4.962 0 00.889-.868l.413-.239v4.322l.868-.5v.514l-2.364 1.366z"/>
                                    <path data-name="Path 178" d="M258.943 230.734c0-1.622.506-2.787 1.348-3.272s1.338.1 1.338 1.721-.506 2.817-1.338 3.3-1.348-.123-1.348-1.749zm2.161-1.248c0-1.418-.327-1.8-.813-1.524s-.822 1.05-.822 2.469.329 1.835.822 1.55.813-1.076.813-2.495z"/>
                                    <path data-name="Path 179" d="M262.441 230.635l.96-.555v-3.564l-.763.44v-.4a5.06 5.06 0 00.887-.869l.413-.239v4.324l.868-.5v.516l-2.364 1.366z"/>
                                    <path data-name="Path 180" d="M265.477 226.962c0-1.622.5-2.787 1.345-3.272s1.34.1 1.34 1.721-.5 2.817-1.34 3.3-1.345-.126-1.345-1.749zm2.159-1.248c0-1.418-.327-1.8-.814-1.524s-.821 1.051-.821 2.469.329 1.835.821 1.55.811-1.076.811-2.495z"/>
                                    <path data-name="Path 181" d="M268.97 226.863l.961-.553v-3.564l-.763.44v-.4a5.073 5.073 0 00.889-.868l.413-.239v4.322l.868-.5v.516l-2.367 1.364z"/>
                                    <path data-name="Path 182" d="M273.323 222.433c0-1.622.506-2.787 1.347-3.272s1.34.1 1.34 1.721-.506 2.817-1.34 3.3-1.347-.127-1.347-1.749zm2.161-1.248c0-1.418-.329-1.8-.814-1.524s-.821 1.05-.821 2.469.329 1.835.821 1.55.814-1.074.814-2.496z"/>
                                    <path data-name="Path 183" d="M276.821 222.333l.958-.555v-3.564l-.761.44v-.4a5.118 5.118 0 00.887-.869l.413-.239v4.324l.868-.5v.516l-2.364 1.366z"/>
                                </g>
                            </g>
                            <g data-name="Group 62" fill="#b8fffe">
                                <g data-name="Group 60">
                                    <path data-name="Path 184" d="M294.197 202.611l.96-.555v-3.564l-.761.44v-.4a5.1 5.1 0 00.885-.869l.414-.239v4.322l.866-.5v.516l-2.364 1.364z"/>
                                    <path data-name="Path 185" d="M297.232 198.939c0-1.622.5-2.787 1.345-3.272s1.34.1 1.342 1.721-.506 2.817-1.34 3.3-1.347-.126-1.347-1.749zm2.161-1.248c0-1.418-.329-1.8-.816-1.524s-.821 1.05-.819 2.469.329 1.834.821 1.55.818-1.076.818-2.495z"/>
                                    <path data-name="Path 186" d="M301.814 196.294c0-1.622.5-2.787 1.345-3.272s1.34.1 1.342 1.721-.508 2.817-1.34 3.3-1.347-.126-1.347-1.749zm2.159-1.248c0-1.418-.329-1.8-.814-1.524s-.821 1.05-.819 2.469.327 1.835.821 1.55.812-1.076.812-2.495z"/>
                                    <path data-name="Path 187" d="M305.079 194.408c0-1.622.5-2.787 1.345-3.272s1.34.1 1.342 1.722-.506 2.816-1.34 3.3-1.347-.127-1.347-1.75zm2.159-1.247c0-1.419-.329-1.806-.814-1.526s-.821 1.051-.819 2.469.327 1.835.821 1.551.814-1.076.814-2.495z"/>
                                    <path data-name="Path 188" d="M308.575 194.31l.961-.555v-3.564l-.764.44v-.4a5.075 5.075 0 00.889-.869l.413-.239v4.322l.868-.5v.516l-2.366 1.364z"/>
                                    <path data-name="Path 189" d="M312.928 189.878c0-1.622.5-2.785 1.343-3.27s1.34.1 1.342 1.721-.506 2.817-1.34 3.3-1.345-.129-1.345-1.751zm2.159-1.247c0-1.418-.331-1.8-.816-1.524s-.821 1.05-.819 2.469.329 1.834.821 1.55.814-1.077.814-2.495z"/>
                                    <path data-name="Path 190" d="M316.194 187.993c0-1.622.5-2.787 1.345-3.272s1.34.1 1.342 1.721-.506 2.817-1.34 3.3-1.347-.127-1.347-1.749zm2.161-1.248c0-1.418-.329-1.8-.816-1.524s-.821 1.05-.819 2.469.329 1.835.821 1.55.814-1.077.814-2.496z"/>
                                    <path data-name="Path 191" d="M319.69 187.893l.959-.553v-3.564l-.763.44v-.4a5 5 0 00.887-.868l.413-.24v4.324l.868-.5v.514l-2.364 1.366z"/>
                                    <path data-name="Path 192" d="M324.041 183.462c0-1.622.5-2.787 1.345-3.272s1.339.1 1.34 1.721-.506 2.817-1.339 3.3-1.346-.126-1.346-1.749zm2.159-1.248c0-1.418-.329-1.8-.814-1.524s-.821 1.05-.819 2.469.327 1.835.821 1.55.812-1.076.812-2.495z"/>
                                    <path data-name="Path 193" d="M327.537 183.363l.96-.555v-3.564l-.761.44v-.4a5.044 5.044 0 00.885-.869l.414-.239v4.324l.866-.5v.516l-2.364 1.366z"/>
                                    <path data-name="Path 194" d="M330.573 179.691c0-1.622.5-2.787 1.343-3.272s1.34.1 1.342 1.721-.5 2.817-1.34 3.3-1.345-.127-1.345-1.749zm2.161-1.248c0-1.418-.331-1.8-.818-1.524s-.821 1.05-.819 2.469.331 1.835.821 1.55.816-1.077.816-2.496z"/>
                                    <path data-name="Path 195" d="M334.068 179.591l.959-.553v-3.564l-.761.44v-.4a5.059 5.059 0 00.887-.868l.413-.239v4.322l.868-.5v.514l-2.366 1.366z"/>
                                    <path data-name="Path 196" d="M338.419 175.16c0-1.622.5-2.787 1.346-3.272s1.339.1 1.34 1.721-.506 2.817-1.34 3.3-1.346-.126-1.346-1.749zm2.161-1.248c0-1.418-.329-1.8-.814-1.524s-.822 1.05-.821 2.469.329 1.835.821 1.55.814-1.076.814-2.495z"/>
                                    <path data-name="Path 197" d="M341.917 175.061l.96-.555v-3.564l-.763.44v-.4a5 5 0 00.887-.869l.413-.239v4.324l.868-.5v.516l-2.364 1.366z"/>
                                </g>
                                <g data-name="Group 61">
                                    <path data-name="Path 198" d="M294.61 212.477l.96-.555v-3.563l-.763.44v-.4a5.075 5.075 0 00.889-.869l.413-.239v4.322l.868-.5v.516l-2.366 1.364z"/>
                                    <path data-name="Path 199" d="M297.647 208.805c0-1.622.5-2.787 1.346-3.272s1.339.1 1.339 1.721-.5 2.817-1.339 3.3-1.346-.125-1.346-1.749zm2.161-1.248c0-1.418-.329-1.8-.814-1.524s-.821 1.05-.821 2.469.327 1.834.821 1.55.814-1.077.814-2.496z"/>
                                    <path data-name="Path 200" d="M302.227 206.159c0-1.622.506-2.787 1.347-3.272s1.339.1 1.339 1.721-.5 2.817-1.339 3.3-1.347-.126-1.347-1.749zm2.161-1.248c0-1.418-.327-1.8-.814-1.524s-.821 1.05-.821 2.469.329 1.835.821 1.55.814-1.076.814-2.495z"/>
                                    <path data-name="Path 201" d="M305.495 204.273c0-1.622.5-2.787 1.345-3.272s1.34.1 1.34 1.722-.5 2.816-1.34 3.3-1.345-.128-1.345-1.75zm2.159-1.247c0-1.419-.327-1.806-.814-1.526s-.821 1.051-.821 2.469.329 1.835.821 1.551.814-1.076.814-2.493z"/>
                                    <path data-name="Path 202" d="M308.988 204.175l.961-.555v-3.564l-.763.44v-.4a5.062 5.062 0 00.887-.869l.413-.239v4.317l.868-.5v.516l-2.366 1.364z"/>
                                    <path data-name="Path 203" d="M313.341 199.743c0-1.622.5-2.787 1.345-3.27s1.34.1 1.34 1.721-.5 2.817-1.34 3.3-1.345-.127-1.345-1.751zm2.161-1.247c0-1.418-.329-1.8-.816-1.524s-.821 1.05-.821 2.467.331 1.835.821 1.551.816-1.076.816-2.494z"/>
                                    <path data-name="Path 204" d="M316.608 197.858c0-1.622.5-2.787 1.345-3.272s1.34.1 1.34 1.721-.5 2.817-1.34 3.3-1.345-.127-1.345-1.749zm2.161-1.248c0-1.418-.329-1.8-.816-1.524s-.821 1.05-.821 2.469.331 1.835.821 1.55.816-1.077.816-2.496z"/>
                                    <path data-name="Path 205" d="M320.103 197.758l.96-.553v-3.564l-.761.44v-.4a4.929 4.929 0 00.885-.868l.414-.24v4.324l.866-.5v.514l-2.364 1.366z"/>
                                    <path data-name="Path 206" d="M324.454 193.328c0-1.622.5-2.787 1.347-3.272s1.339.1 1.339 1.721-.5 2.817-1.339 3.3-1.347-.128-1.347-1.749zm2.161-1.248c0-1.418-.327-1.8-.814-1.524s-.821 1.05-.821 2.469.329 1.835.821 1.55.814-1.077.814-2.496z"/>
                                    <path data-name="Path 207" d="M327.951 193.228l.958-.555v-3.564l-.761.44v-.4a5.058 5.058 0 00.887-.869l.413-.239v4.324l.868-.5v.516l-2.364 1.366z"/>
                                    <path data-name="Path 208" d="M330.988 189.555c0-1.622.5-2.787 1.345-3.272s1.34.1 1.34 1.721-.5 2.817-1.34 3.3-1.345-.126-1.345-1.749zm2.159-1.248c0-1.418-.329-1.8-.814-1.524s-.821 1.05-.821 2.469.327 1.835.821 1.55.814-1.076.814-2.495z"/>
                                    <path data-name="Path 209" d="M334.483 189.456l.96-.553v-3.564l-.763.44v-.4a4.945 4.945 0 00.887-.868l.414-.239v4.322l.866-.5v.514l-2.364 1.366z"/>
                                    <path data-name="Path 210" d="M338.834 185.025c0-1.622.5-2.787 1.345-3.272s1.34.1 1.34 1.721-.5 2.817-1.34 3.3-1.345-.126-1.345-1.749zm2.161-1.248c0-1.418-.329-1.8-.816-1.524s-.821 1.05-.821 2.469.331 1.835.821 1.55.816-1.077.816-2.495z"/>
                                    <path data-name="Path 211" d="M342.33 184.926l.959-.555v-3.564l-.761.44v-.4a5.044 5.044 0 00.885-.869l.415-.239v4.324l.866-.5v.516l-2.364 1.363z"/>
                                </g>
                            </g>
                        </g>
                        <g data-name="Group 64" fill-rule="evenodd">
                            <path data-name="Path 212" d="M294.145 229.594l51.561-30.109v-5.61l-51.561 30.11z" fill="#fff"/>
                            <path data-name="Path 213" d="M226.823 268.583l51.56-30.109v-5.61l-51.56 30.11z" fill="#1b2f62"/>
                            <path data-name="Path 214" d="M323.195 250.722l22.51-13v-25.987l-22.51 13z" fill="#ffe9d1"/>
                            <path data-name="Path 215" d="M294.83 244.6l22.51-13v-3.331l-22.51 13z" fill="#c2efff"/>
                            <path data-name="Path 216" d="M294.83 249.997l22.51-13v-3.335l-22.51 13z" fill="#c2efff"/>
                            <path data-name="Path 217" d="M294.83 255.393l22.51-13v-3.336l-22.51 13z" fill="#c2efff"/>
                            <path data-name="Path 218" d="M294.83 260.789l22.51-13v-3.336l-22.51 13z" fill="#c2efff"/>
                            <path data-name="Path 219" d="M294.83 266.186l22.51-13v-3.336l-22.51 13z" fill="#c2efff"/>
                            <path data-name="Path 220" d="M228.284 304.388l50.1-28.782v-26.312l-50.1 28.782z" fill="#1b2f62"/>
                        </g>
                    </g>
                </g>
                <g data-name="Group 67" fill-rule="evenodd">
                    <path data-name="Path 221" d="M578.12 282.142s1.616.619 3.6 46.275l2.872.387s7.162-22.019 5.809-40.615c-1.028-14.175-5.571-2.594-12.281-6.047z" transform="translate(-154.481 60.048)" fill="url(#b)"/>
                    <path data-name="Path 222" d="M587.7 281.306s-.118-3.454 1.871 42.2l2.874.387s7.16-22.019 5.807-40.615c-1.03-14.171-3.841 1.483-10.552-1.972z" transform="translate(-148.611 57.782)" fill="url(#i)"/>
                    <path data-name="Path 223" d="M443.719 255.216s2.816-.642 6.1 6.264c1.974 4.157 1.495 13.5.8 20.284a9.437 9.437 0 01-8.652 8.455l-20.544-20.9 3.951-1.579 14.463 15.12s-5.726-25.094 3.882-27.644z" fill="#f2f2f2"/>
                    <path data-name="Path 224" d="M551.284 217.171c2.338-1.343 3.408.913 5.159 2.269a1.881 1.881 0 00-.211-.534c-.64-.847 0-.884 0-.884s.587.089 1.69 1.59a5.25 5.25 0 01.755 1.667 2.884 2.884 0 01-1.4 3.832c-.993.461-1.819-.374-2.671-.927-6.444-4.174-3.812-6.731-3.322-7.013z" transform="translate(-171.501 20.732)" fill="url(#j)"/>
                    <path data-name="Path 225" d="M424.814 255.2a157.084 157.084 0 01-19.405 1.368s-5.73-6.454-17.963-13.935a14.045 14.045 0 01-.494 1.863 2.25 2.25 0 01-2.221 1.353c10.79 17.981 16.714 24.77 40.892 24.957 12.045.094 12.406-4.151 10.415-7.884-1.844-3.459-7.33-8.173-11.224-7.722z" fill="#f2f2f2"/>
                    <path data-name="Path 226" d="M604.057 254.992c9.155 14.756 3.517 43.246 3.517 43.246-9.255 4.193-17.144 6.022-29.8 2.346 0 0-6.3-31.192.29-46.02.002.001 17.383 4.289 25.993.428z" transform="translate(-156.357 43.894)" fill="url(#c)"/>
                    <path data-name="Path 227" d="M429.266 253.523s-4.977.6-6.739 1.677c-1.042.635-3.291 2.7-3.428 3.506-3.545 20.961 6.272 12.4 1.216 32.33-1.448 5.71-3.051 9.834 3.325 11.711 8.752 2.575 18.686 2.962 25.37-1.422 2.464-1.617-5-12.458-3.478-17 6.372-19.07.044-29.2-3.569-30.2z" fill="#f2f2f2"/>
                    <path data-name="Path 228" d="M578.3 216.4s1.474 3.954-1.155 4.457c-1.272.243-.229 5.143.452 6.576 1.214 2.558 7.488 4.549 7.488 4.549S596.6 215.461 595.19 216.4s-16.89 0-16.89 0z" transform="translate(-155.447 20.489)" fill="url(#d)"/>
                    <path data-name="Path 229" d="M578.434 214.1c4.844-5.618 12.111-4.823 17.012-.155 3.648 3.474 3.575 8.71 3.045 12.993-.84 6.77 6.605 9.9 3.924 19.815-1.377 5.088-9.889 8.02-19.676 4.112-.737-.293-6.418-2.088-1.7-9.436 2.68-4.175 6.46-9.611 5.454-15.26-.792-2.841-5.625-5.359-8.057-5.968-1.48-.373-3.911-1.566-.002-6.101z" transform="translate(-155.584 16.689)" fill="url(#k)"/>
                    <path data-name="Path 230" d="M430.05 388.618a14.923 14.923 0 01-3.383-1.116c-2.608-1.147-7.407-.772-7.836.171-.582 1.28 9.078 5.639 11.127 3.429a1.814 1.814 0 00.092-2.484z" fill="#2a40a6"/>
                    <path data-name="Path 231" d="M444.484 381.043a14.946 14.946 0 01-3.385-1.116c-2.608-1.147-7.407-.772-7.836.171-.582 1.28 9.079 5.638 11.129 3.429a1.814 1.814 0 00.092-2.484z" fill="#2a40a6"/>
                </g>
            </g>
        </g>
        <g data-name="Group 80">
            <g data-name="Group 79">
                <g data-name="Group 71">
                    <path data-name="Path 238" d="M187.222 367.245v147.756c0 7.657-5.367 10.756-12 6.928l-57.981-33.475c-6.61-3.815-12-13.124-12-20.781V319.917c0-7.658 5.388-10.743 12-6.928l57.981 33.475c6.637 3.829 12 13.129 12 20.781z" fill="#193399"/>
                    <path data-name="Path 239" d="M182.179 369.766v147.756c0 7.658-5.365 10.756-12 6.928l-57.981-33.475c-6.61-3.815-12-13.122-12-20.781V322.438c0-7.657 5.388-10.743 12-6.926l57.983 33.474c6.633 3.829 11.998 13.123 11.998 20.78z" fill="#e0efff"/>
                    <path data-name="Path 240" d="M177.815 501.999l-73.251-42.29V323.795c0-4.227 3.419-5.68 7.634-3.246l57.983 33.475c4.217 2.435 7.634 7.834 7.634 12.061z" fill="#1a2e61"/>
                    <path data-name="Path 241" d="M153.472 339.342v2.872c0 3.93-2.748 5.491-6.13 3.538l-12.28-7.089a13.527 13.527 0 01-6.131-10.621v-2.871z" fill="#193399"/>
                    <g data-name="Group 70" fill="#e0efff">
                        <path data-name="Path 242" d="M143.111 337.651c0 1.218-.855 1.711-1.909 1.1a4.215 4.215 0 01-1.908-3.306c0-1.218.855-1.711 1.908-1.1a4.217 4.217 0 011.909 3.306z"/>
                        <path data-name="Path 243" d="M137.011 334.129c0 1.218-.855 1.711-1.909 1.1a4.217 4.217 0 01-1.909-3.306c0-1.217.855-1.711 1.909-1.1a4.216 4.216 0 011.909 3.306z"/>
                        <path data-name="Path 244" d="M149.213 341.173c0 1.218-.855 1.711-1.908 1.1a4.216 4.216 0 01-1.909-3.306c0-1.216.855-1.709 1.909-1.1a4.222 4.222 0 011.908 3.306z"/>
                    </g>
                    <path data-name="Path 245" d="M145.877 502.031l-9.374-5.412a12.056 12.056 0 01-5.452-9.445c0-3.479 2.442-4.888 5.452-3.15l9.374 5.412a12.055 12.055 0 015.452 9.445c0 3.479-2.441 4.888-5.452 3.15z" fill="#9ec6ff"/>
                </g>
                <g data-name="Group 73" style="mix-blend-mode:overlay;isolation:isolate" fill="#70f3ff">
                    <path data-name="Path 246" d="M119.018 374.464l32.849 18.961v-4.589l-32.849-18.961z"/>
                    <path data-name="Path 247" d="M119.018 357.126l32.848 18.965v-4.59l-32.848-18.963z"/>
                    <path data-name="Path 248" d="M136.407 392.663l15.459 8.925v-4.589l-15.459-8.925z"/>
                    <path data-name="Path 249" d="M155.204 403.516l9.717 5.61v-4.589l-9.717-5.61z"/>
                    <path data-name="Path 250" d="M110.627 369.62l3.977 2.295v-4.589l-3.975-2.3z"/>
                    <path data-name="Path 251" d="M154.79 411.436l3.975 2.295v-4.59l-3.975-2.295z"/>
                    <path data-name="Path 252" d="M108.639 384.791l3.975 2.295v-4.589l-3.975-2.295z"/>
                    <path data-name="Path 253" d="M160.947 414.99l3.975 2.295v-4.59l-3.975-2.295z"/>
                    <path data-name="Path 254" d="M167.104 418.545l3.975 2.295v-4.59l-3.975-2.295z"/>
                    <path data-name="Path 255" d="M116.368 381.094l16.561 9.561v-4.589l-16.561-9.561z"/>
                    <path data-name="Path 256" d="M106.928 375.644l5.962 3.442v-4.59l-5.962-3.442z"/>
                    <path data-name="Path 257" d="M169.671 411.868l5.962 3.442v-4.59l-5.962-3.442z"/>
                    <path data-name="Path 258" d="M168.677 403.134l3.975 2.295v-4.589l-3.975-2.295z"/>
                    <path data-name="Path 259" d="M162.273 399.437l3.975 2.295v-4.59l-3.975-2.295z"/>
                    <path data-name="Path 260" d="M155.87 395.74l3.974 2.295v-4.59l-3.974-2.295z"/>
                    <path data-name="Path 261" d="M116.368 389.253l36.077 20.829v-4.59l-36.077-20.829z"/>
                    <path data-name="Path 262" d="M136.985 409.315l15.46 8.925v-4.589l-15.459-8.925z"/>
                    <path data-name="Path 263" d="M155.204 419.834l21.863 12.627v-4.589l-21.863-12.622z"/>
                    <path data-name="Path 264" d="M146.067 422.716l3.975 2.295v-4.59l-3.975-2.294z"/>
                    <path data-name="Path 265" d="M116.947 397.746l16.561 9.561v-4.59l-16.561-9.561z"/>
                    <path data-name="Path 266" d="M107.507 392.3l5.962 3.442v-4.589l-5.962-3.442z"/>
                    <path data-name="Path 267" d="M155.967 387.638l12.613 7.282v-4.59l-12.613-7.282z"/>
                    <path data-name="Path 268" d="M139.661 419.02l3.973 2.295v-4.59l-3.975-2.295z"/>
                    <path data-name="Path 269" d="M133.258 415.322l3.975 2.295v-4.589l-3.975-2.295z"/>
                    <path data-name="Path 270" d="M126.854 411.626l3.975 2.295v-4.59l-3.975-2.295z"/>
                    <path data-name="Path 271" d="M120.451 407.928l3.975 2.295v-4.585l-3.975-2.295z"/>
                    <path data-name="Path 272" d="M147.433 382.711l3.975 2.295v-4.589l-3.975-2.295z"/>
                    <path data-name="Path 273" d="M141.03 379.013l3.975 2.295v-4.59l-3.975-2.295z"/>
                    <path data-name="Path 274" d="M134.621 375.317l3.975 2.295v-4.589l-3.975-2.295z"/>
                    <path data-name="Path 275" d="M128.223 371.619l3.975 2.295v-4.59l-3.975-2.295z"/>
                    <path data-name="Path 276" d="M121.819 367.923l3.975 2.295v-4.59l-3.975-2.295z"/>
                    <g data-name="Group 72">
                        <path data-name="Path 277" d="M119.224 417.415l32.846 18.964v-4.589l-32.848-18.965z"/>
                        <path data-name="Path 278" d="M136.613 435.613l15.459 8.925v-4.589l-15.459-8.925z"/>
                        <path data-name="Path 279" d="M155.411 446.466l9.717 5.61v-4.589l-9.717-5.61z"/>
                        <path data-name="Path 280" d="M110.833 412.57l3.975 2.295v-4.59l-3.975-2.295z"/>
                        <path data-name="Path 281" d="M154.996 454.388l3.975 2.295v-4.595l-3.975-2.295z"/>
                        <path data-name="Path 282" d="M108.845 427.742l3.975 2.295v-4.589l-3.975-2.3z"/>
                        <path data-name="Path 283" d="M161.153 457.938l3.975 2.295v-4.59l-3.975-2.295z"/>
                        <path data-name="Path 284" d="M167.31 461.495l3.975 2.295v-4.589l-3.975-2.295z"/>
                        <path data-name="Path 285" d="M116.574 424.044l16.561 9.561v-4.589l-16.561-9.562z"/>
                        <path data-name="Path 286" d="M107.134 418.59l5.962 3.442v-4.59L107.134 414z"/>
                        <path data-name="Path 287" d="M169.876 454.818l5.962 3.442v-4.59l-5.962-3.442z"/>
                        <path data-name="Path 288" d="M104.429 408.874l3.975 2.295v-4.59l-3.975-2.295z"/>
                        <path data-name="Path 289" d="M168.883 446.084l3.975 2.295v-4.589l-3.975-2.295z"/>
                        <path data-name="Path 290" d="M162.479 442.388l3.975 2.295v-4.59l-3.975-2.295z"/>
                        <path data-name="Path 291" d="M156.075 438.691l3.974 2.295v-4.59l-3.975-2.295z"/>
                        <path data-name="Path 292" d="M116.574 432.203l36.077 20.828v-4.59l-36.077-20.828z"/>
                        <path data-name="Path 293" d="M137.196 452.265l15.459 8.925v-4.589l-15.459-8.925z"/>
                        <path data-name="Path 294" d="M155.41 462.784l21.863 12.622v-4.589l-21.863-12.622z"/>
                        <path data-name="Path 295" d="M146.271 465.668l3.975 2.295v-4.589l-3.975-2.295z"/>
                        <path data-name="Path 296" d="M117.152 440.696l16.561 9.561v-4.59l-16.561-9.561z"/>
                        <path data-name="Path 297" d="M107.713 435.247l5.962 3.442V434.1l-5.962-3.442z"/>
                        <path data-name="Path 298" d="M139.868 461.969l3.975 2.3v-4.59l-3.975-2.295z"/>
                        <path data-name="Path 299" d="M133.464 458.273l3.975 2.295v-4.589l-3.975-2.295z"/>
                        <path data-name="Path 300" d="M127.06 454.576l3.975 2.295v-4.59l-3.975-2.295z"/>
                        <path data-name="Path 301" d="M120.656 450.879l3.975 2.295v-4.589l-3.975-2.295z"/>
                    </g>
                </g>
                <path data-name="Path 302" d="M357.032 362.355a14.806 14.806 0 014.056 5.443c2 4.962-2.03 6.062-3.946 4.451-2.951-2.479-4.249-9.313-4.249-9.313a7.073 7.073 0 004.139-.581z" transform="translate(-292.468 109.932)" fill-rule="evenodd" fill="url(#l)"/>
                <path data-name="Path 303" d="M75.651 417.544s-.16-3.5-4.909-1.655c-3.643 1.418-14.578 18.178-17.247 27.476-1.548 5.394 5.964 27.76 6.954 30.668a.32.32 0 00.426.189l3.832-1.476a.3.3 0 00.21-.339c-.455-2.509-4.248-23.785-2.44-26.136l5.425-10.943s5.781 5.591 7.749-17.784z" fill="#dcdcdc"/>
                <g data-name="Group 77">
                    <path data-name="Path 304" d="M368.094 415.4l-.689 5.117 4.113 2.151 2.48-8.745z" transform="translate(-283.576 141.525)" fill="url(#m)"/>
                    <g data-name="Group 74">
                        <path data-name="Path 305" d="M83.56 563.87a3.35 3.35 0 00.269 2.895c1.476 2.611 14.725-.843 16.431-4.165 1.9-3.7-2-4.093-2-4.093z" fill="#fff"/>
                        <path data-name="Path 306" d="M367.54 419.39s1.761 1.517 4.724 0l.508-1.788s8.731-3.059 10.661-1.295c3.346 3.059-4.1 6.317-10.968 7.423-1.493.24-6.67 1.928-4.925-4.34z" transform="translate(-283.711 142.65)" fill="url(#n)"/>
                        <path data-name="Path 307" d="M90.002 560.792l1 1.795c1.148 0 .782-2.173-1-1.795z" fill="#fff" fill-rule="evenodd"/>
                        <path data-name="Path 308" d="M92.011 560.222l1 1.795c1.146-.001.78-2.174-1-1.795z" fill="#fff" fill-rule="evenodd"/>
                    </g>
                    <g data-name="Group 76">
                        <path data-name="Path 309" d="M355.8 408.6l.533 6.444 4.111.36.987-7.679z" transform="translate(-290.687 137.726)" fill="url(#m)"/>
                        <g data-name="Group 75">
                            <path data-name="Path 310" d="M65.244 554.153a3.511 3.511 0 00.65 2.833c2.032 2.832 13.654-2.843 15.085-6.293 1.734-4.18-1.866-3.8-1.866-3.8z" fill="#fff"/>
                            <path data-name="Path 311" d="M356.237 413.889a3.9 3.9 0 003.961-.245c.4-.3.668-2.059.668-2.059s8.228-4.148 10.4-2.688c3.211 2.161-3.235 6.8-9.892 8.8-1.452.438-6.969 1.675-5.137-3.808z" transform="translate(-290.644 138.255)" fill="url(#o)"/>
                            <path data-name="Path 312" d="M71.226 550.252l1.232 1.647c1.134-.15.484-2.257-1.232-1.647z" fill="#fff" fill-rule="evenodd"/>
                            <path data-name="Path 313" d="M73.141 549.422l1.232 1.647c1.134-.152.484-2.257-1.232-1.647z" fill="#fff" fill-rule="evenodd"/>
                        </g>
                    </g>
                    <path data-name="Path 314" d="M386.808 361.87c3.385 9.794 2.361 47.538-4.88 88.954-.081.46-.566.653-1.024.752-4.517.971-6.984-.632-6.871-1.38 1.437-9.558-.035-45.341-2.079-66.3l-.911-.332s-4.775 30.426-8.7 58.523c0 0-.542 1.064-3.175 1.068-2.6 0-3.741-.123-3.646-1.068 2.025-20.368-3.472-70.339 3.383-85.124z" transform="translate(-290.975 106.627)" fill="url(#p)"/>
                </g>
                <path data-name="Path 315" d="M401.422 333.454c-.158-.126 3.509-3.516 2.748-3.935-1.18-.65-5.136 5.151-5.568 4.743-.179-.281.6-1.458.732-1.646.8-1.169-.056-1.177-.056-1.177s-.474.056-1.779 1.7a8.129 8.129 0 00-1.114 3.158c-.452 1.813-.639 2.846 1.353 3.588a4.917 4.917 0 001.822-.077 7.282 7.282 0 002.75-1.437c2.645-2.216 4.143-4.341 3.911-4.959-.334-.89-2.761 2.612-3.138 2.362-.277-.184 4.493-3.988 3.57-4.611-.642-.434-4.341 3.316-4.483 3.158s4.244-3.172 4.048-3.883c-.45-1.62-4.478 3.269-4.796 3.016z" transform="translate(-266.004 89.784)" fill-rule="evenodd" fill="url(#q)"/>
                <path data-name="Path 316" d="M75.666 415.094s13.166 2.935 17.118 4.343c4.577 1.629 19.237 25.03 21.342 21.251 1.074-1.927 16.064-13.667 16.064-13.667a9.391 9.391 0 001.28 1.538 3.725 3.725 0 001.643 1.063c-3.417 5.383-17.588 19.781-17.588 19.781a3.662 3.662 0 01-4.552.713 160.653 160.653 0 01-14.88-10.086.467.467 0 00-.75.427c.51 5.354 2.629 28.931.59 29.976-11.174 5.72-21.4 1.518-27.252-.461-3.3-1.116-2.822-3.909-2.562-5.788.745-5.4 1.917-17.157-.313-26.649a28.987 28.987 0 01-.2-11.687c1.242-6.998 3.076-11.259 10.06-10.754z" fill="#dcdcdc"/>
                <g data-name="Group 78" fill-rule="evenodd">
                    <path data-name="Path 317" d="M380.03 316.465c-8.174-.019-11.674 5.983-12 10.977a30.9 30.9 0 00-3.433-.373c.761-.282.868 5.878-1.259 7.981-.545.54.3 1.726.861 2.238 3.4 3.1 6.157 1.885 7.633.708.739-.589 1.1-.784 1.008-1.869a9.317 9.317 0 01-.489-2.253 5.4 5.4 0 002.146-1.016c4.032-3.05 5.538-6.683 4.664-8.483-1.334-2.733.869-7.91.869-7.91z" transform="translate(-286.179 81.818)" fill="url(#r)"/>
                    <path data-name="Path 318" d="M369.759 311.667c-3.458.092-13.1 5.04-8.023 16.083 2.983 6.488 4.756 7.35 4.756 7.35s-.76.8 6.67.589c0 0 1.451-.589 1.9-4.7-1.727-.45-3.559-2.627-2.625-3.94.8-1.176 2-.414 2.695.173 0-.519-.034-1.037-.069-1.626-.26-3.3 5.244-1.466 5.928-2.2.434-.464 1.295-.335 1.295-2.946-.001-4.886-2.407-9.05-12.527-8.783z" transform="translate(-287.935 78.871)" fill="url(#s)"/>
                </g>
            </g>
        </g>
    </g>
</svg>
